<?xml version="1.0" encoding="UTF-8" standalone="no"?>
<!-- Created with Inkscape (http://www.inkscape.org/) -->

<svg
   version="1.1"
   id="svg1"
   width="32"
   height="32"
   viewBox="0 0 512 313"
   sodipodi:docname="express.svg"
   xml:space="preserve"
   inkscape:export-filename="express.svg"
   inkscape:export-xdpi="7.5"
   inkscape:export-ydpi="7.5"
   xmlns:inkscape="http://www.inkscape.org/namespaces/inkscape"
   xmlns:sodipodi="http://sodipodi.sourceforge.net/DTD/sodipodi-0.dtd"
   xmlns="http://www.w3.org/2000/svg"
   xmlns:svg="http://www.w3.org/2000/svg"><defs
     id="defs1" /><sodipodi:namedview
     id="namedview1"
     pagecolor="#ffffff"
     bordercolor="#000000"
     borderopacity="0.25"
     inkscape:showpageshadow="2"
     inkscape:pageopacity="0.0"
     inkscape:pagecheckerboard="0"
     inkscape:deskcolor="#d1d1d1" /><g
     id="g5"><path
       style="fill:#cecece"
       d="m 258.29305,263.92604 c 0.52648,-0.0473 1.33231,-0.0466 1.79072,10e-4 0.45842,0.0481 0.0277,0.0868 -0.95724,0.086 -0.98489,-8.1e-4 -1.35996,-0.0402 -0.83348,-0.0874 z m 7.8344,0 c 0.52648,-0.0473 1.3323,-0.0466 1.79071,10e-4 0.45842,0.0481 0.0277,0.0868 -0.95723,0.086 -0.9849,-8.1e-4 -1.35996,-0.0402 -0.83348,-0.0874 z m -12.09066,-0.21797 c 0.27844,-0.0535 0.68135,-0.0515 0.89536,0.005 0.21401,0.056 -0.0138,0.0998 -0.50625,0.0974 -0.49245,-0.002 -0.66755,-0.0483 -0.38911,-0.10187 z m 17.23566,0 c 0.27844,-0.0535 0.68135,-0.0515 0.89536,0.005 0.21401,0.056 -0.0138,0.0998 -0.50625,0.0974 -0.49244,-0.002 -0.66754,-0.0483 -0.38911,-0.10187 z m -19.80817,-0.22064 c 0.21779,-0.0568 0.51997,-0.053 0.67152,0.008 0.15155,0.0613 -0.0266,0.10775 -0.39598,0.10319 -0.36933,-0.005 -0.49333,-0.0547 -0.27554,-0.11148 z m 22.60782,0 c 0.21779,-0.0568 0.51998,-0.053 0.67152,0.008 0.15155,0.0613 -0.0266,0.10775 -0.39598,0.10319 -0.36933,-0.005 -0.49333,-0.0547 -0.27554,-0.11148 z m -24.84622,-0.22384 c 0.21779,-0.0568 0.51998,-0.053 0.67152,0.008 0.15155,0.0613 -0.0266,0.10775 -0.39598,0.10319 -0.36933,-0.005 -0.49333,-0.0547 -0.27554,-0.11148 z m 27.08462,0 c 0.21779,-0.0568 0.51997,-0.053 0.67152,0.008 0.15155,0.0613 -0.0266,0.10775 -0.39598,0.10319 -0.36933,-0.005 -0.49333,-0.0547 -0.27554,-0.11148 z m -28.75369,-0.22163 c 0.16159,-0.0647 0.35465,-0.0567 0.42903,0.0177 0.0744,0.0744 -0.0578,0.12728 -0.29379,0.11756 -0.26076,-0.0107 -0.3138,-0.0638 -0.13524,-0.13523 z m 30.66606,0 c 0.16158,-0.0647 0.35465,-0.0567 0.42903,0.0177 0.0744,0.0744 -0.0578,0.12728 -0.29379,0.11756 -0.26076,-0.0107 -0.3138,-0.0638 -0.13524,-0.13523 z m -32.23293,-0.22384 c 0.16158,-0.0647 0.35464,-0.0567 0.42902,0.0177 0.0744,0.0744 -0.0578,0.12728 -0.29379,0.11756 -0.26076,-0.0107 -0.3138,-0.0638 -0.13523,-0.13523 z m 33.79981,0 c 0.16158,-0.0647 0.35464,-0.0567 0.42902,0.0177 0.0744,0.0744 -0.0578,0.12728 -0.29379,0.11756 -0.26076,-0.0107 -0.3138,-0.0638 -0.13523,-0.13523 z m -35.36669,-0.22384 c 0.16158,-0.0647 0.35464,-0.0567 0.42902,0.0177 0.0744,0.0744 -0.0578,0.12728 -0.29379,0.11756 -0.26076,-0.0107 -0.3138,-0.0638 -0.13523,-0.13523 z m 36.93357,0 c 0.16158,-0.0647 0.35464,-0.0567 0.42902,0.0177 0.0744,0.0744 -0.0578,0.12728 -0.29379,0.11756 -0.26076,-0.0107 -0.3138,-0.0638 -0.13523,-0.13523 z m -38.27661,-0.22384 c 0.16158,-0.0647 0.35464,-0.0567 0.42902,0.0177 0.0744,0.0744 -0.0578,0.12728 -0.29379,0.11756 -0.26076,-0.0107 -0.3138,-0.0638 -0.13523,-0.13523 z m 39.61965,0 c 0.16158,-0.0647 0.35464,-0.0567 0.42902,0.0177 0.0744,0.0744 -0.0578,0.12728 -0.29379,0.11756 -0.26076,-0.0107 -0.3138,-0.0638 -0.13523,-0.13523 z m -40.96269,-0.22384 c 0.16158,-0.0647 0.35465,-0.0567 0.42903,0.0177 0.0744,0.0744 -0.0578,0.12728 -0.29379,0.11756 -0.26077,-0.0107 -0.31381,-0.0638 -0.13524,-0.13523 z m 42.30572,0 c 0.16159,-0.0647 0.35465,-0.0567 0.42903,0.0177 0.0744,0.0744 -0.0578,0.12728 -0.29379,0.11756 -0.26076,-0.0107 -0.3138,-0.0638 -0.13524,-0.13523 z m -43.42492,-0.22384 c 0.16158,-0.0647 0.35465,-0.0567 0.42903,0.0177 0.0744,0.0744 -0.0578,0.12728 -0.29379,0.11756 -0.26076,-0.0107 -0.3138,-0.0638 -0.13524,-0.13523 z m 44.54412,0 c 0.16159,-0.0647 0.35465,-0.0567 0.42903,0.0177 0.0744,0.0744 -0.0578,0.12728 -0.29379,0.11756 -0.26076,-0.0107 -0.3138,-0.0638 -0.13524,-0.13523 z m -45.66332,-0.22384 c 0.16159,-0.0647 0.35465,-0.0567 0.42903,0.0177 0.0744,0.0744 -0.0578,0.12728 -0.29379,0.11756 -0.26076,-0.0107 -0.3138,-0.0638 -0.13524,-0.13523 z m 46.78252,0 c 0.16159,-0.0647 0.35465,-0.0567 0.42903,0.0177 0.0744,0.0744 -0.0578,0.12728 -0.29379,0.11756 -0.26076,-0.0107 -0.3138,-0.0638 -0.13524,-0.13523 z m -88.40331,-19.04136 c -0.27843,-0.35502 -0.27051,-0.36294 0.0845,-0.0845 0.21545,0.16896 0.39172,0.34524 0.39172,0.39172 0,0.18423 -0.18381,0.0657 -0.47623,-0.30721 z m 129.85565,0.30721 c 0,-0.0465 0.17627,-0.22276 0.39172,-0.39172 0.35502,-0.27843 0.36294,-0.27051 0.0845,0.0845 -0.29242,0.37286 -0.47623,0.49144 -0.47623,0.30721 z m -131.87021,-1.87409 c -0.27842,-0.35502 -0.27051,-0.36294 0.0845,-0.0845 0.37286,0.29242 0.49143,0.47623 0.3072,0.47623 -0.0465,0 -0.22275,-0.17627 -0.39172,-0.39172 z m 133.88477,0.30721 c 0,-0.0465 0.17627,-0.22276 0.39172,-0.39172 0.35502,-0.27843 0.36294,-0.27051 0.0845,0.0845 -0.29242,0.37286 -0.47623,0.49144 -0.47623,0.30721 z m -135.00397,-1.20257 c -0.27842,-0.35502 -0.27051,-0.36294 0.0845,-0.0845 0.21544,0.16897 0.39172,0.34524 0.39172,0.39172 0,0.18423 -0.18382,0.0657 -0.47624,-0.30721 z m 136.12317,0.30721 c 0,-0.0465 0.17627,-0.22275 0.39172,-0.39172 0.35502,-0.27843 0.36294,-0.27051 0.0845,0.0845 -0.29242,0.37286 -0.47623,0.49144 -0.47623,0.30721 z M 193.401,239.07612 c -0.27843,-0.35502 -0.27051,-0.36294 0.0845,-0.0845 0.21544,0.16897 0.39172,0.34524 0.39172,0.39172 0,0.18423 -0.18382,0.0657 -0.47623,-0.30721 z m 138.80924,0.30721 c 0,-0.0465 0.17627,-0.22275 0.39172,-0.39172 0.35502,-0.27843 0.36294,-0.27051 0.0845,0.0845 -0.29242,0.37286 -0.47623,0.49144 -0.47623,0.30721 z m -140.36451,-1.65024 -0.54266,-0.61556 0.61556,0.54265 c 0.57533,0.5072 0.71821,0.68846 0.54266,0.68846 -0.0401,0 -0.3171,-0.277 -0.61556,-0.61555 z m 142.15522,0.056 c 0.28915,-0.30778 0.57608,-0.5596 0.63764,-0.5596 0.0616,0 -0.12465,0.25182 -0.4138,0.5596 -0.28914,0.30777 -0.57608,0.55959 -0.63763,0.55959 -0.0616,0 0.12465,-0.25182 0.41379,-0.55959 z m -144.27884,-1.9586 -0.65744,-0.72748 0.72748,0.65744 c 0.40011,0.36159 0.72748,0.68895 0.72748,0.72747 0,0.17293 -0.1847,0.0207 -0.79752,-0.65743 z m 145.84572,0.65743 c 0,-0.0385 0.32737,-0.36588 0.72748,-0.72747 l 0.72748,-0.65744 -0.65744,0.72748 c -0.61282,0.67811 -0.79752,0.83036 -0.79752,0.65743 z m -149.75648,-4.35079 -1.22348,-1.28708 1.28708,1.22347 c 1.19574,1.13665 1.38962,1.35069 1.22348,1.35069 -0.035,0 -0.61417,-0.57919 -1.28708,-1.28708 z m 154.22392,0.11192 c 0.54886,-0.58478 1.02732,-1.06324 1.06324,-1.06324 0.16808,0 -0.01,0.20097 -0.99792,1.12855 l -1.06324,0.99793 z m -157.80976,-3.9172 -0.77139,-0.8394 0.8394,0.77139 c 0.46167,0.42427 0.8394,0.802 0.8394,0.8394 0,0.17093 -0.18942,0.01 -0.90741,-0.77139 z m 161.40056,0.056 c 0.41763,-0.43089 0.8097,-0.78344 0.87126,-0.78344 0.0616,0 -0.22979,0.35255 -0.64742,0.78344 -0.41764,0.43089 -0.80971,0.78344 -0.87126,0.78344 -0.0616,0 0.22978,-0.35255 0.64742,-0.78344 z m 1.79072,-2.01456 c 0.28914,-0.30778 0.57608,-0.5596 0.63763,-0.5596 0.0616,0 -0.12465,0.25182 -0.41379,0.5596 -0.28915,0.30778 -0.57609,0.5596 -0.63764,0.5596 -0.0616,0 0.12465,-0.25182 0.4138,-0.5596 z m -165.10314,-0.16788 -0.42641,-0.50364 0.50364,0.42642 c 0.277,0.23452 0.50364,0.46116 0.50364,0.50364 0,0.17912 -0.18015,0.0469 -0.58087,-0.42642 z m -1.34304,-1.56687 -0.42641,-0.50364 0.50364,0.42641 c 0.4733,0.40072 0.60554,0.58087 0.42641,0.58087 -0.0425,0 -0.26911,-0.22664 -0.50364,-0.50364 z m 167.90113,0.056 c 0.22283,-0.24623 0.45551,-0.44768 0.51707,-0.44768 0.0616,0 -0.0704,0.20145 -0.29323,0.44768 -0.22283,0.24622 -0.4555,0.44768 -0.51706,0.44768 -0.0616,0 0.0704,-0.20146 0.29322,-0.44768 z M 176.83685,222.0643 c -0.27843,-0.35502 -0.27051,-0.36294 0.0845,-0.0845 0.37286,0.29241 0.49144,0.47623 0.30721,0.47623 -0.0465,0 -0.22276,-0.17628 -0.39172,-0.39172 z m 171.93753,0.30721 c 0,-0.0465 0.17628,-0.22276 0.39172,-0.39172 0.35502,-0.27843 0.36294,-0.27051 0.0845,0.0845 -0.29241,0.37286 -0.47623,0.49143 -0.47623,0.30721 z M 220.45821,197.22023 c 0.76945,-0.0437 2.02854,-0.0437 2.79799,0 0.76945,0.0437 0.1399,0.0795 -1.399,0.0795 -1.53889,0 -2.16844,-0.0358 -1.39899,-0.0795 z m 43.48088,0.006 c 7.65738,-0.15695 14.27413,-0.16057 14.17948,-0.008 -0.0572,0.0923 -3.95089,0.14578 -8.65265,0.11878 -4.70177,-0.027 -7.18884,-0.077 -5.52683,-0.11103 z m 65.75295,-0.007 c 2.49301,-0.036 6.57249,-0.036 9.06551,0 2.49302,0.036 0.45328,0.0655 -4.53276,0.0655 -4.98603,0 -7.02577,-0.0295 -4.53275,-0.0655 z m -113.15103,-0.21052 c 0.21545,-0.0563 0.56799,-0.0563 0.78344,0 0.21544,0.0563 0.0392,0.10237 -0.39172,0.10237 -0.43089,0 -0.60717,-0.0461 -0.39172,-0.10237 z m 9.84895,0 c 0.21545,-0.0563 0.56799,-0.0563 0.78344,0 0.21545,0.0563 0.0392,0.10237 -0.39172,0.10237 -0.43089,0 -0.60716,-0.0461 -0.39172,-0.10237 z m -11.75159,-0.21779 c 0.15389,-0.0621 0.40571,-0.0621 0.5596,0 0.15389,0.0621 0.028,0.1129 -0.2798,0.1129 -0.30778,0 -0.43369,-0.0508 -0.2798,-0.1129 z m 13.89206,-0.005 c 0.16158,-0.0647 0.35465,-0.0567 0.42903,0.0177 0.0744,0.0744 -0.0578,0.12729 -0.29379,0.11757 -0.26076,-0.0107 -0.3138,-0.0638 -0.13524,-0.13524 z m -15.22111,-0.22384 c 0.16159,-0.0647 0.35465,-0.0567 0.42903,0.0177 0.0744,0.0744 -0.0578,0.12729 -0.29379,0.11757 -0.26076,-0.0107 -0.3138,-0.0638 -0.13524,-0.13524 z m 16.56415,0 c 0.16158,-0.0647 0.35464,-0.0567 0.42902,0.0177 0.0744,0.0744 -0.0578,0.12729 -0.29378,0.11757 -0.26077,-0.0107 -0.31381,-0.0638 -0.13524,-0.13524 z m 1.34304,-0.22384 c 0.16158,-0.0647 0.35464,-0.0567 0.42902,0.0177 0.0744,0.0744 -0.0578,0.12729 -0.29379,0.11757 -0.26076,-0.0107 -0.3138,-0.0638 -0.13523,-0.13524 z m -20.14559,-0.22384 c 0.16159,-0.0647 0.35465,-0.0567 0.42903,0.0177 0.0744,0.0744 -0.0578,0.12729 -0.29379,0.11757 -0.26076,-0.0107 -0.3138,-0.0638 -0.13524,-0.13524 z m -13.64081,-6.50633 c -0.27843,-0.35502 -0.27051,-0.36294 0.0845,-0.0845 0.37287,0.29242 0.49144,0.47623 0.30721,0.47623 -0.0465,0 -0.22275,-0.17627 -0.39172,-0.39172 z m 48.93756,-0.50364 c 0.22282,-0.24622 0.4555,-0.44768 0.51706,-0.44768 0.0616,0 -0.0704,0.20146 -0.29323,0.44768 -0.22282,0.24623 -0.4555,0.44768 -0.51706,0.44768 -0.0616,0 0.0704,-0.20145 0.29323,-0.44768 z m -50.26899,-0.61556 -0.54265,-0.61555 0.61556,0.54265 c 0.57533,0.5072 0.71821,0.68846 0.54265,0.68846 -0.0401,0 -0.31709,-0.277 -0.61556,-0.61556 z m 52.28354,-1.17515 c 0.22283,-0.24623 0.45551,-0.44768 0.51707,-0.44768 0.0615,0 -0.0704,0.20145 -0.29323,0.44768 -0.22283,0.24622 -0.45551,0.44768 -0.51706,0.44768 -0.0616,0 0.0704,-0.20146 0.29322,-0.44768 z m -55.3097,-1.84668 -0.42641,-0.50364 0.50364,0.42641 c 0.4733,0.40072 0.60554,0.58087 0.42641,0.58087 -0.0425,0 -0.26911,-0.22664 -0.50364,-0.50364 z m 28.1773,0.11414 c 0.71239,-0.0446 1.82039,-0.0441 2.46224,9.2e-4 0.64184,0.0451 0.059,0.0815 -1.29526,0.081 -1.35423,-5.1e-4 -1.87937,-0.0374 -1.16698,-0.0819 z m 28.58736,0.0811 c 0,-0.0465 0.17628,-0.22276 0.39172,-0.39172 0.35502,-0.27843 0.36294,-0.27052 0.0845,0.0845 -0.29241,0.37286 -0.47623,0.49143 -0.47623,0.30721 z m -31.84121,-0.28758 c 0.15389,-0.0621 0.40571,-0.0621 0.5596,0 0.15389,0.0621 0.028,0.1129 -0.2798,0.1129 -0.30778,0 -0.43369,-0.0508 -0.2798,-0.1129 z m 8.05823,0 c 0.15389,-0.0621 0.40571,-0.0621 0.5596,0 0.15389,0.0621 0.028,0.1129 -0.2798,0.1129 -0.30778,0 -0.43369,-0.0508 -0.2798,-0.1129 z m -9.38728,-0.2285 c 0.16158,-0.0647 0.35465,-0.0567 0.42903,0.0177 0.0744,0.0744 -0.0578,0.12729 -0.29379,0.11757 -0.26076,-0.0107 -0.31381,-0.0638 -0.13524,-0.13524 z m 20.63523,-4.18456 c 0,-0.0465 0.17628,-0.22276 0.39172,-0.39172 0.35502,-0.27843 0.36294,-0.27051 0.0845,0.0845 -0.29241,0.37286 -0.47623,0.49144 -0.47623,0.30721 z m -32.47371,-1.42641 -0.54266,-0.61556 0.61556,0.54266 c 0.57533,0.5072 0.71821,0.68846 0.54266,0.68846 -0.0401,0 -0.3171,-0.277 -0.61556,-0.61556 z m 34.15251,-0.056 c 0.22283,-0.24622 0.45551,-0.44768 0.51707,-0.44768 0.0616,0 -0.0704,0.20146 -0.29323,0.44768 -0.22283,0.24623 -0.45551,0.44768 -0.51706,0.44768 -0.0616,0 0.0704,-0.20145 0.29322,-0.44768 z m -82.69114,-0.35441 c 0.0107,-0.26076 0.0638,-0.3138 0.13524,-0.13524 0.0647,0.16159 0.0567,0.35465 -0.0177,0.42903 -0.0744,0.0744 -0.12728,-0.0578 -0.11756,-0.29379 z m 213.31935,0 c 0.0107,-0.26076 0.0638,-0.3138 0.13523,-0.13524 0.0647,0.16159 0.0567,0.35465 -0.0177,0.42903 -0.0744,0.0744 -0.12728,-0.0578 -0.11756,-0.29379 z m -166.57144,-1.38035 -0.54266,-0.61556 0.61556,0.54266 c 0.57533,0.5072 0.71821,0.68846 0.54266,0.68846 -0.0401,0 -0.3171,-0.277 -0.61556,-0.61556 z m -47.41943,-1.97725 c 0.0107,-0.26076 0.0638,-0.3138 0.13524,-0.13523 0.0647,0.16158 0.0567,0.35464 -0.0177,0.42902 -0.0744,0.0744 -0.12728,-0.0578 -0.11756,-0.29379 z m 214.66239,0 c 0.0107,-0.26076 0.0638,-0.3138 0.13523,-0.13523 0.0647,0.16158 0.0567,0.35464 -0.0177,0.42902 -0.0744,0.0744 -0.12728,-0.0578 -0.11756,-0.29379 z m -170.37004,-2.57467 c -0.13742,-0.25677 -0.20769,-0.50902 -0.15615,-0.56055 0.0515,-0.0515 0.20862,0.15855 0.34909,0.46685 0.30847,0.67701 0.15828,0.74995 -0.19294,0.0937 z m -44.74003,-0.11141 c 0.0107,-0.26076 0.0638,-0.3138 0.13524,-0.13523 0.0647,0.16158 0.0567,0.35464 -0.0177,0.42902 -0.0744,0.0744 -0.12729,-0.0578 -0.11757,-0.29379 z m 215.55775,0 c 0.0107,-0.26076 0.0638,-0.3138 0.13523,-0.13523 0.0647,0.16158 0.0567,0.35464 -0.0177,0.42902 -0.0744,0.0744 -0.12728,-0.0578 -0.11756,-0.29379 z M 154.94677,171.7381 c 0.0107,-0.26076 0.0638,-0.3138 0.13524,-0.13523 0.0647,0.16158 0.0567,0.35464 -0.0177,0.42902 -0.0744,0.0744 -0.12729,-0.0578 -0.11757,-0.29379 z m 216.00543,0 c 0.0107,-0.26076 0.0638,-0.3138 0.13523,-0.13523 0.0647,0.16158 0.0567,0.35464 -0.0177,0.42902 -0.0744,0.0744 -0.12728,-0.0578 -0.11756,-0.29379 z m -216.2116,-1.6606 c 0,-0.30778 0.0508,-0.43369 0.1129,-0.2798 0.0621,0.15389 0.0621,0.40571 0,0.5596 -0.0621,0.15389 -0.1129,0.028 -0.1129,-0.2798 z m 216.45311,0 c 0,-0.30778 0.0508,-0.43369 0.1129,-0.2798 0.0621,0.15389 0.0621,0.40571 0,0.5596 -0.0621,0.15389 -0.1129,0.028 -0.1129,-0.2798 z m -216.67695,-1.79072 c 0,-0.30778 0.0508,-0.43369 0.1129,-0.2798 0.0621,0.15389 0.0621,0.40571 0,0.5596 -0.0621,0.15389 -0.1129,0.028 -0.1129,-0.2798 z m 216.90079,0 c 0,-0.30778 0.0508,-0.43369 0.1129,-0.2798 0.0621,0.15389 0.0621,0.40571 0,0.5596 -0.0621,0.15389 -0.1129,0.028 -0.1129,-0.2798 z m -173.71737,-1.69745 c 0.0107,-0.26076 0.0638,-0.3138 0.13523,-0.13524 0.0647,0.16159 0.0567,0.35465 -0.0177,0.42903 -0.0744,0.0744 -0.12728,-0.0578 -0.11756,-0.29379 z m -43.39896,-0.42903 c 0.005,-0.36933 0.0547,-0.49333 0.11148,-0.27554 0.0567,0.21779 0.053,0.51998 -0.008,0.67152 -0.0613,0.15155 -0.10775,-0.0266 -0.10318,-0.39598 z m 217.34846,0 c 0.005,-0.36933 0.0547,-0.49333 0.11148,-0.27554 0.0568,0.21779 0.053,0.51998 -0.008,0.67152 -0.0613,0.15155 -0.10775,-0.0266 -0.10319,-0.39598 z m -187.60373,-0.69017 c 0.0107,-0.26076 0.0638,-0.3138 0.13523,-0.13524 0.0647,0.16159 0.0567,0.35465 -0.0177,0.42903 -0.0744,0.0744 -0.12728,-0.0578 -0.11756,-0.29379 z m 13.43039,-0.22384 c 0.0107,-0.26076 0.0638,-0.3138 0.13523,-0.13524 0.0647,0.16159 0.0567,0.35465 -0.0177,0.42903 -0.0744,0.0744 -0.12728,-0.0578 -0.11756,-0.29379 z m -13.65423,-1.1192 c 0.0107,-0.26076 0.0638,-0.3138 0.13523,-0.13524 0.0647,0.16159 0.0567,0.35465 -0.0177,0.42903 -0.0744,0.0744 -0.12728,-0.0578 -0.11756,-0.29379 z m 13.45635,-0.42903 c 0.005,-0.36933 0.0547,-0.49332 0.11148,-0.27553 0.0568,0.21778 0.053,0.51997 -0.008,0.67151 -0.0613,0.15155 -0.10775,-0.0266 -0.10319,-0.39598 z m -43.18827,-0.44767 c 0.002,-0.49245 0.0483,-0.66755 0.10186,-0.38911 0.0535,0.27843 0.0515,0.68134 -0.005,0.89535 -0.056,0.21401 -0.0998,-0.0138 -0.0974,-0.50624 z m 217.79614,0 c 0.002,-0.49245 0.0483,-0.66755 0.10187,-0.38911 0.0535,0.27843 0.0515,0.68134 -0.005,0.89535 -0.056,0.21401 -0.0998,-0.0138 -0.0974,-0.50624 z m -188.27039,-0.5596 c 0,-0.30778 0.0508,-0.43369 0.1129,-0.2798 0.0621,0.15389 0.0621,0.40571 0,0.5596 -0.0621,0.15389 -0.1129,0.028 -0.1129,-0.2798 z m 13.44061,-2.74204 -0.0456,-1.9586 h 30.43411 30.43411 l 0.0762,-2.07052 0.0762,-2.07052 -0.0121,2.12648 -0.0122,2.12648 -30.37722,0.0568 -30.37722,0.0568 -0.0754,1.84588 -0.0754,1.84588 z m -13.66445,1.17516 c 0,-0.30778 0.0508,-0.43369 0.1129,-0.2798 0.0621,0.15389 0.0621,0.40571 0,0.5596 -0.0621,0.15389 -0.1129,0.028 -0.1129,-0.2798 z m -29.50547,-2.35032 c 8.2e-4,-0.9849 0.0402,-1.35996 0.0875,-0.83348 0.0473,0.52648 0.0466,1.3323 -0.001,1.79071 -0.0481,0.45842 -0.0868,0.0277 -0.086,-0.95723 z m 218.24383,0 c 8.1e-4,-0.9849 0.0402,-1.35996 0.0874,-0.83348 0.0473,0.52648 0.0466,1.3323 -10e-4,1.79071 -0.0481,0.45842 -0.0868,0.0277 -0.086,-0.95723 z m -188.94561,0.11192 c 0,-0.43089 0.0461,-0.60717 0.10236,-0.39172 0.0563,0.21544 0.0563,0.56799 0,0.78344 -0.0563,0.21544 -0.10236,0.0392 -0.10236,-0.39172 z m -0.1888,-4.81256 c 3.9e-4,-1.60045 0.036,-2.22581 0.0792,-1.38969 0.0432,0.83613 0.0429,2.14559 -7.1e-4,2.90992 -0.0436,0.76433 -0.0789,0.0802 -0.0785,-1.52023 z m -29.10942,-3.13375 c 8.2e-4,-0.9849 0.0402,-1.35997 0.0875,-0.83349 0.0473,0.52648 0.0466,1.33231 -0.001,1.79072 -0.0481,0.45842 -0.0868,0.0277 -0.086,-0.95723 z m 218.24383,0 c 8.1e-4,-0.9849 0.0402,-1.35997 0.0874,-0.83349 0.0473,0.52648 0.0466,1.33231 -10e-4,1.79072 -0.0481,0.45842 -0.0868,0.0277 -0.086,-0.95723 z m -114.40695,0.33575 c 0,-0.43089 0.0461,-0.60716 0.10236,-0.39171 0.0563,0.21544 0.0563,0.56799 0,0.78343 -0.0563,0.21545 -0.10236,0.0392 -0.10236,-0.39172 z m 52.55042,0.23705 c 0,-0.11584 0.0996,-0.27216 0.22128,-0.34738 0.12689,-0.0784 0.16441,0.0114 0.088,0.21063 -0.14881,0.38778 -0.30925,0.45873 -0.30925,0.13675 z m -127.09738,-2.36352 c 0.005,-0.36934 0.0547,-0.49333 0.11149,-0.27554 0.0567,0.21779 0.053,0.51997 -0.008,0.67152 -0.0613,0.15154 -0.10775,-0.0266 -0.10319,-0.39598 z m 74.30653,-0.11192 c 0,-0.30778 0.0508,-0.43369 0.1129,-0.2798 0.0621,0.15389 0.0621,0.40571 0,0.5596 -0.0621,0.15389 -0.1129,0.028 -0.1129,-0.2798 z m -0.22384,-1.56688 c 0,-0.30778 0.0508,-0.43369 0.1129,-0.2798 0.0621,0.15389 0.0621,0.40571 0,0.5596 -0.0621,0.15389 -0.1129,0.028 -0.1129,-0.2798 z m -73.86714,-0.22384 c 0,-0.30778 0.0508,-0.43369 0.1129,-0.2798 0.0621,0.15389 0.0621,0.40571 0,0.5596 -0.0621,0.15389 -0.1129,0.028 -0.1129,-0.2798 z m -29.30191,-0.78344 c 0.002,-0.49245 0.0483,-0.66755 0.10186,-0.38911 0.0535,0.27844 0.0515,0.68135 -0.005,0.89536 -0.056,0.21401 -0.0998,-0.0138 -0.0974,-0.50625 z m 42.94676,0.2798 c 0.0195,-0.37738 0.0516,-0.4057 0.12813,-0.11296 0.0963,0.36807 1.45247,0.39405 23.42126,0.44873 l 23.31909,0.058 -23.44722,0.0549 -23.44723,0.0549 z m 174.84938,-0.2798 c 0.002,-0.49245 0.0483,-0.66755 0.10187,-0.38911 0.0535,0.27844 0.0515,0.68135 -0.005,0.89536 -0.056,0.21401 -0.0998,-0.0138 -0.0974,-0.50625 z m -128.28132,-0.5596 c 0,-0.30778 0.0508,-0.43369 0.1129,-0.2798 0.0621,0.15389 0.0621,0.40571 0,0.5596 -0.0621,0.15389 -0.1129,0.028 -0.1129,-0.2798 z m 13.41272,0.0933 c 0.0107,-0.26076 0.0638,-0.31381 0.13523,-0.13524 0.0647,0.16158 0.0567,0.35465 -0.0177,0.42903 -0.0744,0.0744 -0.12728,-0.0578 -0.11756,-0.29379 z m -73.41946,-0.22384 c 0.0107,-0.26076 0.0638,-0.3138 0.13523,-0.13524 0.0647,0.16158 0.0567,0.35465 -0.0177,0.42903 -0.0744,0.0744 -0.12728,-0.0578 -0.11756,-0.29379 z m 13.6719,-0.76479 c 0,-0.30778 0.0508,-0.43369 0.1129,-0.2798 0.0621,0.15389 0.0621,0.40571 0,0.5596 -0.0621,0.15389 -0.1129,0.028 -0.1129,-0.2798 z m 59.52372,-0.13057 c 0.0107,-0.26076 0.0638,-0.3138 0.13523,-0.13524 0.0647,0.16158 0.0567,0.35465 -0.0177,0.42903 -0.0744,0.0744 -0.12728,-0.0578 -0.11756,-0.29379 z m -13.43039,-0.67152 c 0.0107,-0.26076 0.0638,-0.3138 0.13524,-0.13524 0.0647,0.16158 0.0567,0.35465 -0.0177,0.42903 -0.0744,0.0744 -0.12728,-0.0578 -0.11756,-0.29379 z m -89.06228,-0.65287 c 0.005,-0.36933 0.0547,-0.49333 0.11148,-0.27554 0.0567,0.21779 0.053,0.51997 -0.008,0.67152 -0.0613,0.15155 -0.10775,-0.0266 -0.10318,-0.39598 z m 217.34846,0 c 0.005,-0.36933 0.0547,-0.49333 0.11148,-0.27554 0.0568,0.21779 0.053,0.51997 -0.008,0.67152 -0.0613,0.15155 -0.10775,-0.0266 -0.10319,-0.39598 z m -174.17334,-0.0187 c 0.0107,-0.26076 0.0638,-0.3138 0.13523,-0.13524 0.0647,0.16159 0.0567,0.35465 -0.0177,0.42903 -0.0744,0.0744 -0.12728,-0.0578 -0.11756,-0.29379 z m 45.66332,-0.44768 c 0.0107,-0.26076 0.0638,-0.3138 0.13524,-0.13524 0.0647,0.16159 0.0567,0.35465 -0.0177,0.42903 -0.0744,0.0744 -0.12728,-0.0578 -0.11756,-0.29379 z m -88.6229,-1.66015 c 0,-0.30778 0.0508,-0.43369 0.1129,-0.2798 0.0621,0.15389 0.0621,0.40571 0,0.5596 -0.0621,0.15389 -0.1129,0.028 -0.1129,-0.2798 z m 216.90079,0 c 0,-0.30778 0.0508,-0.43369 0.1129,-0.2798 0.0621,0.15389 0.0621,0.40571 0,0.5596 -0.0621,0.15389 -0.1129,0.028 -0.1129,-0.2798 z m -216.67695,-1.7907 c 0,-0.30778 0.0508,-0.43369 0.1129,-0.2798 0.0621,0.15389 0.0621,0.40571 0,0.5596 -0.0621,0.15389 -0.1129,0.028 -0.1129,-0.2798 z m 216.45311,0 c 0,-0.30778 0.0508,-0.43369 0.1129,-0.2798 0.0621,0.15389 0.0621,0.40571 0,0.5596 -0.0621,0.15389 -0.1129,0.028 -0.1129,-0.2798 z m -216.24694,-1.69745 c 0.0107,-0.26076 0.0638,-0.3138 0.13524,-0.13523 0.0647,0.16158 0.0567,0.35464 -0.0177,0.42902 -0.0744,0.0744 -0.12729,-0.0578 -0.11757,-0.29379 z m 216.00543,0 c 0.0107,-0.26076 0.0638,-0.3138 0.13523,-0.13523 0.0647,0.16158 0.0567,0.35464 -0.0177,0.42902 -0.0744,0.0744 -0.12728,-0.0578 -0.11756,-0.29379 z m -50.15779,-0.62546 c 0,-0.0465 0.17627,-0.22275 0.39171,-0.39172 0.35503,-0.27842 0.36294,-0.27051 0.0845,0.0845 -0.29242,0.37286 -0.47623,0.49143 -0.47623,0.3072 z m -165.6238,-0.71758 c 0.0107,-0.26076 0.0638,-0.3138 0.13524,-0.13523 0.0647,0.16158 0.0567,0.35464 -0.0177,0.42902 -0.0744,0.0744 -0.12729,-0.0578 -0.11757,-0.29379 z m 215.55775,0 c 0.0107,-0.26076 0.0638,-0.3138 0.13523,-0.13523 0.0647,0.16158 0.0567,0.35464 -0.0177,0.42902 -0.0744,0.0744 -0.12728,-0.0578 -0.11756,-0.29379 z m -130.06861,-0.3171 c -0.13178,-0.24623 -0.18923,-0.44768 -0.12767,-0.44768 0.0615,0 0.21973,0.20145 0.35151,0.44768 0.13177,0.24622 0.18923,0.44768 0.12767,0.44768 -0.0616,0 -0.21974,-0.20146 -0.35151,-0.44768 z m 80.80617,0.13932 c 0,-0.0465 0.17628,-0.22275 0.39172,-0.39171 0.35503,-0.27843 0.36294,-0.27052 0.0845,0.0845 -0.29242,0.37286 -0.47624,0.49143 -0.47624,0.3072 z m 0.67152,-0.89535 c 0,-0.0465 0.17628,-0.22276 0.39172,-0.39172 0.35503,-0.27843 0.36294,-0.27051 0.0845,0.0845 -0.29242,0.37286 -0.47624,0.49143 -0.47624,0.30721 z m 0.67152,-0.89536 c 0,-0.0465 0.17628,-0.22276 0.39172,-0.39172 0.35503,-0.27843 0.36294,-0.27051 0.0845,0.0845 -0.29242,0.37286 -0.47624,0.49143 -0.47624,0.30721 z m -167.19067,-0.71758 c 0.0107,-0.26077 0.0638,-0.31381 0.13524,-0.13524 0.0647,0.16158 0.0567,0.35465 -0.0177,0.42903 -0.0744,0.0744 -0.12728,-0.0578 -0.11756,-0.29379 z m 214.66239,0 c 0.0107,-0.26077 0.0638,-0.31381 0.13523,-0.13524 0.0647,0.16158 0.0567,0.35465 -0.0177,0.42903 -0.0744,0.0744 -0.12728,-0.0578 -0.11756,-0.29379 z m -46.8002,-0.17778 c 0,-0.0465 0.17628,-0.22276 0.39172,-0.39172 0.35503,-0.27843 0.36294,-0.27051 0.0845,0.0845 -0.29241,0.37286 -0.47623,0.49143 -0.47623,0.30721 z m -85.08768,-0.97873 c -0.27843,-0.35502 -0.27051,-0.36294 0.0845,-0.0845 0.21545,0.16896 0.39172,0.34524 0.39172,0.39172 0,0.18423 -0.18381,0.0657 -0.47623,-0.30721 z m -34.21894,-2.18244 c 0.6687,-0.67711 1.26619,-1.23112 1.32775,-1.23112 0.0616,0 -0.43521,0.55401 -1.10391,1.23112 -0.66871,0.67712 -1.26619,1.23112 -1.32775,1.23112 -0.0616,0 0.4352,-0.554 1.10391,-1.23112 z m 32.55816,0.2798 -0.88483,-0.95132 0.95132,0.88483 c 0.88472,0.82288 1.05418,1.01781 0.88483,1.01781 -0.0366,0 -0.46466,-0.42809 -0.95132,-0.95132 z m -80.44221,-0.29845 c 0.0107,-0.26076 0.0638,-0.3138 0.13524,-0.13524 0.0647,0.16159 0.0567,0.35465 -0.0177,0.42903 -0.0744,0.0744 -0.12728,-0.0578 -0.11756,-0.29379 z m 213.31935,0 c 0.0107,-0.26076 0.0638,-0.3138 0.13523,-0.13524 0.0647,0.16159 0.0567,0.35465 -0.0177,0.42903 -0.0744,0.0744 -0.12728,-0.0578 -0.11756,-0.29379 z m -134.7978,-1.38035 c -0.27843,-0.35502 -0.27051,-0.36294 0.0845,-0.0845 0.37287,0.29242 0.49144,0.47623 0.30721,0.47623 -0.0465,0 -0.22275,-0.17627 -0.39172,-0.39172 z m -28.84678,-0.14047 c 0,-0.0465 0.17627,-0.22275 0.39172,-0.39172 0.35502,-0.27843 0.36294,-0.27051 0.0845,0.0845 -0.29242,0.37286 -0.47623,0.49144 -0.47623,0.30721 z m -13.65423,-3.13376 c 0,-0.0465 0.17627,-0.22275 0.39172,-0.39172 0.35502,-0.27842 0.36294,-0.27051 0.0845,0.0845 -0.29242,0.37286 -0.47623,0.49143 -0.47623,0.3072 z m 55.48372,-1.4264 c -0.27843,-0.35503 -0.27051,-0.36294 0.0845,-0.0845 0.37286,0.29242 0.49144,0.47624 0.30721,0.47624 -0.0465,0 -0.22275,-0.17628 -0.39172,-0.39172 z m -54.36452,0.10631 c 0,-0.0339 0.78064,-0.8145 1.73476,-1.73475 l 1.73476,-1.6732 -1.6732,1.73476 c -1.55403,1.6112 -1.79632,1.83689 -1.79632,1.67319 z m 22.56585,-0.0913 c 0.16158,-0.0647 0.35465,-0.0567 0.42903,0.0177 0.0744,0.0744 -0.0578,0.12728 -0.29379,0.11756 -0.26076,-0.0107 -0.3138,-0.0638 -0.13524,-0.13523 z m 8.28207,0 c 0.16159,-0.0647 0.35465,-0.0567 0.42903,0.0177 0.0744,0.0744 -0.0578,0.12728 -0.29379,0.11756 -0.26076,-0.0107 -0.3138,-0.0638 -0.13524,-0.13523 z m -6.61726,-0.22523 c 0.21544,-0.0563 0.56799,-0.0563 0.78344,0 0.21544,0.0563 0.0392,0.10237 -0.39172,0.10237 -0.43089,0 -0.60717,-0.0461 -0.39172,-0.10237 z m 4.70063,0 c 0.21545,-0.0563 0.568,-0.0563 0.78344,0 0.21545,0.0563 0.0392,0.10237 -0.39172,0.10237 -0.43089,0 -0.60716,-0.0461 -0.39172,-0.10237 z m 23.21574,-2.25198 -1.22347,-1.28708 1.28708,1.22347 c 0.70789,0.67291 1.28707,1.2521 1.28707,1.28708 0,0.16615 -0.21404,-0.0277 -1.35068,-1.22347 z m -48.11792,-1.25967 c 0,-0.0465 0.17628,-0.22276 0.39172,-0.39172 0.35503,-0.27843 0.36294,-0.27051 0.0845,0.0845 -0.29242,0.37286 -0.47624,0.49144 -0.47624,0.30721 z m 45.63478,-0.97873 c -0.27843,-0.35502 -0.27051,-0.36294 0.0845,-0.0845 0.37286,0.29242 0.49143,0.47623 0.30721,0.47623 -0.0465,0 -0.22276,-0.17627 -0.39172,-0.39172 z m -1.1192,-0.89536 c -0.27843,-0.35502 -0.27051,-0.36294 0.0845,-0.0845 0.21544,0.16896 0.39172,0.34524 0.39172,0.39172 0,0.18423 -0.18382,0.0657 -0.47623,-0.30721 z m 22.38398,-4.92448 c -0.27843,-0.35502 -0.27051,-0.36293 0.0845,-0.0845 0.37286,0.29242 0.49144,0.47623 0.30721,0.47623 -0.0465,0 -0.22276,-0.17627 -0.39172,-0.39172 z m -34.26091,-0.65654 c 0.16158,-0.0647 0.35464,-0.0567 0.42902,0.0177 0.0744,0.0744 -0.0578,0.12728 -0.29379,0.11756 -0.26076,-0.0107 -0.3138,-0.0638 -0.13523,-0.13523 z m -1.1192,-0.22384 c 0.16158,-0.0647 0.35465,-0.0567 0.42903,0.0177 0.0744,0.0744 -0.0578,0.12728 -0.29379,0.11756 -0.26076,-0.0107 -0.31381,-0.0638 -0.13524,-0.13523 z m -14.32575,-0.22384 c 0.16159,-0.0647 0.35465,-0.0567 0.42903,0.0177 0.0744,0.0744 -0.0578,0.12728 -0.29379,0.11756 -0.26076,-0.0107 -0.3138,-0.0638 -0.13524,-0.13523 z m 12.98271,0 c 0.16158,-0.0647 0.35465,-0.0567 0.42903,0.0177 0.0744,0.0744 -0.0578,0.12728 -0.29379,0.11756 -0.26076,-0.0107 -0.3138,-0.0638 -0.13524,-0.13523 z m -11.31364,-0.22605 c 0.21779,-0.0568 0.51997,-0.053 0.67152,0.008 0.15155,0.0613 -0.0267,0.10775 -0.39598,0.10319 -0.36934,-0.005 -0.49333,-0.0547 -0.27554,-0.11148 z m 9.40127,0 c 0.21779,-0.0568 0.51997,-0.053 0.67152,0.008 0.15155,0.0613 -0.0266,0.10775 -0.39598,0.10319 -0.36933,-0.005 -0.49333,-0.0547 -0.27554,-0.11148 z m -5.81478,-0.23492 c 0.83612,-0.0432 2.14558,-0.0429 2.90991,7.1e-4 0.76433,0.0436 0.0802,0.0789 -1.52022,0.0785 -1.60046,-4e-4 -2.22582,-0.0361 -1.38969,-0.0792 z M 176.64156,87.843774 c 0,-0.04648 0.17628,-0.222755 0.39172,-0.39172 0.35502,-0.278427 0.36294,-0.27051 0.0845,0.08451 -0.29241,0.372861 -0.47623,0.491436 -0.47623,0.307208 z m 172.32811,-0.307208 c -0.27843,-0.355022 -0.27051,-0.362939 0.0845,-0.08451 0.37286,0.292418 0.49144,0.476232 0.30721,0.476232 -0.0465,0 -0.22276,-0.176274 -0.39172,-0.39172 z M 178.99188,85.018368 c 0.22283,-0.246224 0.45551,-0.447679 0.51706,-0.447679 0.0616,0 -0.0704,0.201455 -0.29322,0.447679 -0.22283,0.246224 -0.45551,0.44768 -0.51707,0.44768 -0.0615,0 0.0704,-0.201456 0.29323,-0.44768 z m 167.8586,-0.05596 -0.42642,-0.503639 0.50364,0.426412 c 0.27701,0.234526 0.50364,0.461164 0.50364,0.503639 0,0.179129 -0.18014,0.04689 -0.58086,-0.426412 z M 180.33492,83.45149 c 0.22283,-0.246224 0.45551,-0.44768 0.51706,-0.44768 0.0616,0 -0.0704,0.201456 -0.29322,0.44768 -0.22283,0.246223 -0.45551,0.447679 -0.51707,0.447679 -0.0615,0 0.0704,-0.201456 0.29323,-0.447679 z m 165.17252,-0.05596 -0.42641,-0.50364 0.50364,0.426412 c 0.277,0.234527 0.50363,0.461164 0.50363,0.50364 0,0.179128 -0.18014,0.04688 -0.58086,-0.426412 z M 182.23756,81.325011 c 0.41763,-0.430891 0.8097,-0.783439 0.87126,-0.783439 0.0615,0 -0.22979,0.352548 -0.64742,0.783439 -0.41764,0.430892 -0.80971,0.78344 -0.87126,0.78344 -0.0616,0 0.22978,-0.352548 0.64742,-0.78344 z m 161.37646,-0.05596 -0.77139,-0.839399 0.8394,0.771389 c 0.78129,0.717993 0.94231,0.90741 0.77139,0.90741 -0.0374,0 -0.41514,-0.37773 -0.8394,-0.8394 z M 185.70707,77.631654 c 0.60631,-0.615559 1.15274,-1.119199 1.21429,-1.119199 0.0616,0 -0.38414,0.50364 -0.99045,1.119199 -0.6063,0.61556 -1.15273,1.119199 -1.21429,1.119199 -0.0616,0 0.38415,-0.503639 0.99045,-1.119199 z m 154.44106,-0.05596 -1.11078,-1.175159 1.17516,1.110785 c 1.09198,1.032161 1.27781,1.239533 1.11078,1.239533 -0.0354,0 -0.56422,-0.528821 -1.17516,-1.175159 z m -150.7477,-3.413557 c 0.41764,-0.430892 0.8097,-0.783439 0.87126,-0.783439 0.0616,0 -0.22978,0.352547 -0.64742,0.783439 -0.41764,0.430892 -0.8097,0.783439 -0.87126,0.783439 -0.0615,0 0.22978,-0.352547 0.64742,-0.783439 z m 147.05071,-0.05596 -0.77139,-0.839399 0.8394,0.771389 c 0.7813,0.717993 0.94232,0.907409 0.77139,0.907409 -0.0374,0 -0.41513,-0.377729 -0.8394,-0.839399 z M 191.52691,72.259499 c 0.22283,-0.246224 0.45551,-0.44768 0.51706,-0.44768 0.0616,0 -0.0704,0.201456 -0.29322,0.44768 -0.22283,0.246223 -0.45551,0.447679 -0.51707,0.447679 -0.0615,0 0.0704,-0.201456 0.29323,-0.447679 z m 142.78854,-0.05596 -0.42642,-0.50364 0.50364,0.426412 c 0.27701,0.234527 0.50364,0.461165 0.50364,0.50364 0,0.179128 -0.18014,0.04688 -0.58086,-0.426412 z M 193.09379,70.91646 c 0.22283,-0.246224 0.45551,-0.44768 0.51706,-0.44768 0.0616,0 -0.0704,0.201456 -0.29322,0.44768 -0.22283,0.246223 -0.45551,0.447679 -0.51707,0.447679 -0.0615,0 0.0704,-0.201456 0.29323,-0.447679 z m 139.65478,-0.05596 -0.42641,-0.50364 0.50364,0.426412 c 0.47329,0.400722 0.60554,0.580867 0.42641,0.580867 -0.0425,0 -0.26912,-0.226638 -0.50364,-0.503639 z M 195.44411,69.041229 c 0,-0.04648 0.17627,-0.222755 0.39172,-0.39172 0.35502,-0.278427 0.36294,-0.27051 0.0845,0.08451 -0.29242,0.372861 -0.47623,0.491436 -0.47623,0.307208 z m 134.72302,-0.307208 c -0.27843,-0.355022 -0.27051,-0.362939 0.0845,-0.08451 0.21544,0.168965 0.39172,0.345239 0.39172,0.39172 0,0.184228 -0.18382,0.06565 -0.47623,-0.307208 z M 238.60322,48.15573 c 0.16159,-0.06466 0.35465,-0.05671 0.42903,0.01767 0.0744,0.07438 -0.0578,0.127285 -0.29379,0.117565 -0.26076,-0.01074 -0.3138,-0.06378 -0.13524,-0.135235 z m 48.57324,0 c 0.16159,-0.06466 0.35465,-0.05671 0.42903,0.01767 0.0744,0.07438 -0.0578,0.127285 -0.29379,0.117565 -0.26076,-0.01074 -0.3138,-0.06378 -0.13524,-0.135235 z m -45.21564,-0.67152 c 0.16158,-0.06466 0.35464,-0.05671 0.42903,0.01767 0.0744,0.07438 -0.0578,0.127284 -0.29379,0.117565 -0.26077,-0.01074 -0.31381,-0.06378 -0.13524,-0.135237 z m 41.85804,0 c 0.16159,-0.06466 0.35465,-0.05671 0.42903,0.01767 0.0744,0.07438 -0.0578,0.127284 -0.29379,0.117565 -0.26076,-0.01074 -0.3138,-0.06378 -0.13524,-0.135237 z M 244.6469,47.036531 c 0.16158,-0.06466 0.35464,-0.05671 0.42902,0.01767 0.0744,0.07438 -0.0578,0.127285 -0.29379,0.117565 -0.26076,-0.01074 -0.3138,-0.06378 -0.13523,-0.135235 z m 36.48589,0 c 0.16158,-0.06466 0.35464,-0.05671 0.42902,0.01767 0.0744,0.07438 -0.0578,0.127285 -0.29379,0.117565 -0.26076,-0.01074 -0.3138,-0.06378 -0.13523,-0.135235 z m -35.14285,-0.22384 c 0.16158,-0.06466 0.35464,-0.05671 0.42902,0.01767 0.0744,0.07438 -0.0578,0.127285 -0.29379,0.117565 -0.26076,-0.01074 -0.3138,-0.06378 -0.13523,-0.135235 z m 33.79981,0 c 0.16158,-0.06466 0.35464,-0.05671 0.42902,0.01767 0.0744,0.07438 -0.0578,0.127285 -0.29379,0.117565 -0.26076,-0.01074 -0.3138,-0.06378 -0.13523,-0.135235 z m -32.24693,-0.219177 c 0.15389,-0.0621 0.40571,-0.0621 0.5596,0 0.15389,0.0621 0.028,0.112902 -0.2798,0.112902 -0.30778,0 -0.43369,-0.05081 -0.2798,-0.112902 z m 30.44222,0 c 0.15389,-0.0621 0.40571,-0.0621 0.5596,0 0.15389,0.0621 0.028,0.112902 -0.2798,0.112902 -0.30778,0 -0.43369,-0.05081 -0.2798,-0.112902 z m -28.6515,-0.223839 c 0.15389,-0.0621 0.40571,-0.0621 0.5596,0 0.15389,0.06209 0.028,0.112901 -0.2798,0.112901 -0.30778,0 -0.43369,-0.05081 -0.2798,-0.112901 z m 26.86078,0 c 0.15389,-0.0621 0.40571,-0.0621 0.5596,0 0.15389,0.06209 0.028,0.112901 -0.2798,0.112901 -0.30778,0 -0.43369,-0.05081 -0.2798,-0.112901 z m -24.73004,-0.230714 c 0.21779,-0.05675 0.51997,-0.05302 0.67152,0.0083 0.15155,0.06132 -0.0266,0.107749 -0.39598,0.103187 -0.36933,-0.0046 -0.49333,-0.05473 -0.27554,-0.111481 z m 22.60782,0 c 0.21779,-0.05675 0.51998,-0.05302 0.67152,0.0083 0.15155,0.06132 -0.0266,0.107749 -0.39598,0.103187 -0.36933,-0.0046 -0.49333,-0.05473 -0.27554,-0.111481 z m -19.81147,-0.227034 c 0.27844,-0.05354 0.68135,-0.05151 0.89536,0.0045 0.21401,0.05602 -0.0138,0.09983 -0.50625,0.09735 -0.49245,-0.0025 -0.66755,-0.04832 -0.38911,-0.101864 z m 16.78799,0 c 0.27843,-0.05354 0.68134,-0.05151 0.89535,0.0045 0.21401,0.05602 -0.0138,0.09983 -0.50625,0.09735 -0.49244,-0.0025 -0.66754,-0.04832 -0.3891,-0.101864 z m -12.75557,-0.229713 c 0.52648,-0.04729 1.33231,-0.04662 1.79072,0.0015 0.45842,0.0481 0.0277,0.08679 -0.95724,0.08597 -0.98489,-8.13e-4 -1.35996,-0.04017 -0.83348,-0.08745 z m 7.8344,0 c 0.52648,-0.04729 1.3323,-0.04662 1.79071,0.0015 0.45842,0.0481 0.0277,0.08679 -0.95723,0.08597 -0.9849,-8.13e-4 -1.35996,-0.04017 -0.83348,-0.08745 z"
       id="path6" /><path
       style="fill:#818181;stroke-width:2.33759"
       d="M 242.69644,411.38514 C 188.96195,408.91452 141.04481,391.08566 99.641858,358.15783 63.401123,329.33557 35.046589,291.91813 18.869077,251.56791 -0.49644373,203.26605 -4.1655239,145.52331 8.7949037,93.024359 19.593686,49.281622 42.072175,10.25096 76.012591,-23.689456 109.95302,-57.629879 148.98368,-80.108378 192.72642,-90.907159 c 52.49895,-12.960431 110.24169,-9.291341 158.54355,10.074188 57.30591,22.975493 108.23377,70.619049 135.50374,126.765205 22.58879,46.508051 29.95989,101.477846 20.90886,155.927316 -9.10731,54.78796 -37.86265,105.92869 -81.64164,145.19777 -45.49373,40.80717 -96.12331,61.48176 -157.60019,64.35603 -11.86004,0.5545 -13.09974,0.55315 -25.7443,-0.0283 z M 178.07554,254.469 c 14.32413,-2.37448 25.13496,-6.88533 36.16537,-15.09015 12.97541,-9.65157 21.88538,-23.0365 25.84628,-38.82742 0.61356,-2.44617 1.23207,-4.85967 1.37443,-5.36327 0.24236,-0.85743 -0.73629,-0.91569 -15.38394,-0.91569 h -15.64277 l -0.62986,2.74705 c -0.9776,4.26386 -4.92437,11.83041 -7.90302,15.15137 -3.5419,3.94887 -10.07909,8.82238 -14.90785,11.11382 -6.76045,3.20812 -12.93661,4.53264 -22.65993,4.85961 -16.09981,0.54135 -26.80944,-2.12308 -37.93004,-9.43656 -15.23825,-10.02147 -23.93773,-27.91047 -23.93773,-49.22394 v -5.03263 l 71.03067,-0.13277 71.03065,-0.13278 -0.0921,-7.32545 c -0.11431,-9.0929 -0.82959,-15.57063 -2.82153,-25.55371 -2.15048,-10.77781 -5.15927,-19.63324 -9.71668,-28.59819 C 227.1174,93.305293 222.45805,86.708237 216.01096,80.214945 204.06574,68.184134 191.67023,61.547593 175.72102,58.643787 167.50703,57.148296 150.74189,57.045304 143.01815,58.442992 101.3944,65.974693 73.091007,99.860968 69.408633,146.57212 c -1.532479,19.43953 2.846577,44.70478 10.729814,61.90627 9.310602,20.31612 26.717763,35.8838 47.842733,42.78712 5.67785,1.85544 14.09185,3.5362 21.0543,4.2057 7.36625,0.70837 21.70614,0.21344 29.04014,-1.0023 z M 102.46648,137.04557 c 0,-0.68175 0.3645,-3.32966 0.80998,-5.88423 3.2705,-18.75452 14.42789,-33.982266 30.25768,-41.296075 14.03131,-6.482859 32.00301,-6.384658 46.17332,0.252325 6.00677,2.813382 10.28036,5.838457 15.13612,10.71407 9.06301,9.1001 14.04649,19.96289 16.16227,35.2297 l 0.30818,2.22379 h -54.42377 -54.42378 z m 216.18944,78.18046 c 15.05986,-22.43421 27.59344,-40.7295 27.85238,-40.65624 0.25893,0.0732 12.73835,18.36965 27.73203,40.65865 l 27.26125,40.52545 21.1297,0.13674 c 16.94412,0.10967 21.0281,0.007 20.61687,-0.52325 -5.94311,-7.64948 -76.02466,-106.37161 -75.84469,-106.84058 0.14049,-0.36645 15.3461,-20.84265 33.78995,-45.50265 18.44385,-24.659991 33.5343,-44.944955 33.5343,-45.077657 0,-0.132781 -8.77855,-0.241268 -19.50789,-0.241268 H 395.71197 L 372.70611,89.98591 c -12.65325,17.75438 -23.7363,33.30392 -24.62906,34.55453 l -1.62315,2.27384 -23.66717,-34.554526 -23.66718,-34.554529 h -20.917 c -16.59084,0 -20.83708,0.135347 -20.53059,0.654063 0.21248,0.359722 15.65634,21.444212 34.31959,46.854412 20.69465,28.176 33.78645,46.44622 33.55706,46.83052 -0.39545,0.6625 -72.69375,102.1866 -73.57521,103.31718 -0.40597,0.52073 3.54801,0.65405 19.39548,0.65405 h 19.90543 z"
       id="path5" /></g></svg>
