<svg xmlns="http://www.w3.org/2000/svg" width="36" height="36" viewBox="0 0 512 512" version="1.1"><path d="M 379.827 275.076 C 376.707 275.534, 372.448 276.622, 370.364 277.493 C 368.279 278.364, 365.769 279.804, 364.787 280.693 C 363.804 281.582, 363 282.624, 363 283.009 C 363 283.393, 365.363 283.069, 368.250 282.289 C 371.331 281.458, 376.186 281.043, 380 281.286 C 384.010 281.542, 388.144 282.540, 390.791 283.892 C 393.151 285.097, 396.836 287.890, 398.980 290.099 C 401.237 292.425, 403.583 296.239, 404.554 299.162 C 405.611 302.344, 406.071 306.133, 405.799 309.414 C 405.552 312.386, 403.993 317.555, 402.163 321.464 C 399.727 326.670, 396.868 330.390, 390.230 336.992 C 385.428 341.766, 378.125 347.922, 374 350.672 C 369.875 353.421, 363.467 357.356, 359.759 359.416 C 356.051 361.477, 352.744 363.606, 352.409 364.148 C 352.074 364.690, 351.976 365.310, 352.192 365.525 C 352.408 365.741, 358.459 363.950, 365.640 361.546 C 372.821 359.142, 382.477 355.275, 387.098 352.953 C 391.719 350.630, 398.029 347.014, 401.120 344.916 C 404.211 342.818, 408.833 339.009, 411.390 336.452 C 413.948 333.894, 417.312 329.934, 418.866 327.651 C 420.420 325.368, 422.548 321.250, 423.596 318.500 C 424.804 315.328, 425.480 311.091, 425.446 306.910 C 425.404 301.847, 424.762 299.035, 422.675 294.769 C 421.181 291.715, 417.910 287.328, 415.405 285.019 C 412.900 282.710, 408.521 279.760, 405.675 278.463 C 402.829 277.166, 397.575 275.635, 394 275.060 C 390.425 274.485, 387.050 274.067, 386.500 274.129 C 385.950 274.192, 382.947 274.619, 379.827 275.076 M 182.304 280.137 C 178.896 280.626, 170.899 282.342, 164.532 283.950 C 158.165 285.558, 147.975 288.897, 141.887 291.370 C 135.800 293.843, 129.273 296.909, 127.384 298.183 C 125.495 299.457, 123.685 301.518, 123.363 302.763 C 123.040 304.008, 123.359 305.728, 124.071 306.586 C 124.784 307.444, 127.074 309.018, 129.162 310.083 C 131.249 311.148, 135.905 312.702, 139.507 313.538 C 143.109 314.373, 150.662 315.703, 156.290 316.493 C 161.918 317.283, 175.068 318.456, 185.511 319.100 C 197.108 319.814, 214.232 320.026, 229.500 319.646 C 243.250 319.303, 261.773 318.346, 270.663 317.520 C 279.552 316.694, 290.127 315.556, 294.163 314.992 C 298.198 314.428, 304.200 313.509, 307.500 312.951 C 310.800 312.392, 317.775 311.001, 323 309.859 C 328.225 308.717, 334.750 306.515, 337.500 304.965 C 340.250 303.415, 345.200 300.741, 348.500 299.023 C 354.500 295.899, 354.500 295.899, 350.500 296.361 C 348.300 296.615, 338.625 297.975, 329 299.383 C 319.375 300.791, 304.975 302.605, 297 303.414 C 289.025 304.223, 274.625 305.428, 265 306.092 C 255.375 306.757, 233.775 307.324, 217 307.353 C 198.662 307.384, 182.888 306.927, 177.441 306.205 C 172.458 305.545, 166.022 304.305, 163.139 303.449 C 160.255 302.592, 157.622 301.180, 157.289 300.310 C 156.955 299.440, 157.116 298.039, 157.647 297.197 C 158.178 296.355, 161.062 294.402, 164.056 292.856 C 167.050 291.310, 173.609 288.666, 178.631 286.980 C 183.653 285.294, 191.528 282.848, 196.131 281.544 C 204.500 279.174, 204.500 279.174, 196.500 279.211 C 192.100 279.231, 185.712 279.647, 182.304 280.137 M 175.841 334.383 C 171.672 336.195, 166.845 338.686, 165.115 339.918 C 163.385 341.150, 161.303 343.447, 160.488 345.023 C 159.448 347.034, 159.278 348.601, 159.917 350.282 C 160.418 351.600, 162.210 353.840, 163.898 355.261 C 165.587 356.682, 169.559 358.814, 172.724 359.998 C 175.890 361.182, 182.084 362.998, 186.490 364.033 C 190.895 365.068, 198.325 366.409, 203 367.014 C 207.675 367.619, 219.600 368.368, 229.500 368.680 C 239.747 369.002, 253.746 368.752, 262 368.099 C 269.975 367.467, 282.800 366.039, 290.500 364.924 C 298.200 363.810, 309.450 361.789, 315.500 360.435 C 321.550 359.080, 328.975 357.256, 332 356.382 C 337.500 354.791, 337.500 354.791, 331.500 351.766 C 328.200 350.102, 323.808 347.407, 321.741 345.779 C 317.981 342.817, 317.981 342.817, 302.741 345.351 C 294.358 346.745, 282.775 348.474, 277 349.193 C 270.582 349.992, 255.615 350.495, 238.500 350.487 C 222.166 350.479, 206.038 349.943, 199.791 349.199 C 193.901 348.498, 187.601 347.428, 185.791 346.821 C 183.981 346.214, 181.713 345.036, 180.750 344.203 C 179.787 343.371, 179 341.669, 179 340.422 C 179 339.174, 180.181 336.750, 181.624 335.034 C 183.068 333.319, 184.063 331.729, 183.835 331.502 C 183.607 331.274, 180.010 332.571, 175.841 334.383 M 186.892 384.354 C 183.808 385.623, 179.870 387.669, 178.140 388.900 C 176.411 390.132, 174.547 391.978, 173.998 393.004 C 173.449 394.029, 173 395.782, 173 396.899 C 173 398.016, 174.424 400.552, 176.163 402.533 C 177.903 404.515, 181.931 407.451, 185.114 409.058 C 188.297 410.664, 194.235 412.894, 198.309 414.011 C 202.384 415.129, 209.493 416.737, 214.109 417.585 C 218.724 418.433, 230.179 419.386, 239.565 419.702 C 249.940 420.053, 261.113 419.816, 268.065 419.098 C 274.354 418.448, 284.947 416.821, 291.605 415.482 C 298.262 414.143, 308.162 411.513, 313.605 409.639 C 319.047 407.764, 324.850 405.679, 326.500 405.006 C 329.500 403.783, 329.500 403.783, 327 402.728 C 325.625 402.148, 319.639 399.289, 313.698 396.376 C 302.895 391.078, 302.895 391.078, 288.353 393.542 C 280.354 394.897, 267.327 396.411, 259.403 396.906 C 251.009 397.432, 239.151 397.442, 230.989 396.931 C 223.284 396.448, 213.054 395.566, 208.255 394.970 C 203.456 394.373, 197.610 393.036, 195.264 391.999 C 192.599 390.820, 191 389.459, 191 388.371 C 191 387.413, 191.978 385.587, 193.174 384.314 C 194.715 382.674, 194.934 382.007, 193.924 382.024 C 193.141 382.037, 189.977 383.086, 186.892 384.354 M 132 416.612 C 128.425 417.387, 121.900 419.206, 117.500 420.652 C 113.100 422.098, 106.352 424.855, 102.505 426.777 C 98.658 428.699, 94.019 431.409, 92.196 432.800 C 90.373 434.190, 88.234 436.581, 87.441 438.114 C 86.648 439.647, 86 441.618, 86 442.496 C 86 443.373, 87.041 445.132, 88.313 446.403 C 89.584 447.675, 93.072 449.630, 96.063 450.747 C 99.053 451.864, 105.775 453.502, 111 454.387 C 116.225 455.271, 125.675 456.683, 132 457.523 C 138.325 458.363, 152.725 459.966, 164 461.086 C 178.549 462.532, 195.386 463.287, 222 463.688 C 246.091 464.051, 265.757 463.836, 277 463.086 C 286.625 462.444, 300.575 461.261, 308 460.457 C 315.425 459.653, 327.125 458.064, 334 456.925 C 340.875 455.787, 352.024 453.546, 358.775 451.947 C 365.525 450.348, 374.525 447.847, 378.775 446.390 C 383.024 444.932, 389.020 442.476, 392.101 440.931 C 395.182 439.386, 399.158 436.897, 400.937 435.399 C 402.716 433.902, 404.572 431.625, 405.061 430.339 C 405.594 428.939, 405.569 426.996, 405 425.500 C 404.477 424.126, 402.597 422.117, 400.821 421.037 C 399.045 419.958, 397.377 419.290, 397.113 419.554 C 396.849 419.817, 397.166 420.566, 397.817 421.217 C 398.468 421.868, 399 423.576, 399 425.013 C 399 426.573, 397.892 428.663, 396.250 430.199 C 394.738 431.614, 392.080 433.488, 390.344 434.363 C 388.608 435.238, 383.356 437.065, 378.673 438.422 C 373.989 439.779, 362.810 442.018, 353.829 443.397 C 344.848 444.776, 330.300 446.588, 321.500 447.422 C 312.700 448.257, 295.865 449.461, 284.089 450.099 C 270.798 450.819, 248.232 451.045, 224.589 450.696 C 203.640 450.386, 181.775 449.651, 176 449.063 C 170.225 448.474, 160.325 447.269, 154 446.385 C 147.675 445.501, 138.307 443.696, 133.182 442.374 C 128.057 441.052, 122.094 439.068, 119.932 437.965 C 117.525 436.738, 116 435.251, 116 434.135 C 116 433.131, 116.787 431.617, 117.750 430.769 C 118.713 429.921, 121.750 428.114, 124.500 426.752 C 127.250 425.391, 131.956 423.472, 134.957 422.489 C 137.959 421.506, 144.934 419.923, 150.457 418.971 C 159.663 417.386, 160.265 417.148, 157.685 416.121 C 156.137 415.504, 151.187 415.045, 146.685 415.100 C 142.183 415.156, 135.575 415.836, 132 416.612 M 421.500 446.124 C 419.850 447.723, 414.900 450.769, 410.500 452.893 C 406.100 455.017, 398.900 457.917, 394.500 459.336 C 390.100 460.755, 382 463.030, 376.500 464.392 C 371 465.754, 362.675 467.588, 358 468.469 C 353.325 469.351, 343.650 470.931, 336.500 471.983 C 329.350 473.034, 315.625 474.636, 306 475.544 C 296.375 476.451, 278.600 477.487, 266.500 477.847 C 254.400 478.206, 232.800 478.211, 218.500 477.859 C 204.200 477.506, 185.300 476.480, 176.500 475.579 C 167.700 474.677, 157.826 473.515, 154.559 472.995 C 151.291 472.475, 148.437 472.230, 148.216 472.451 C 147.995 472.672, 149.196 473.567, 150.884 474.440 C 152.572 475.313, 158.577 477.133, 164.227 478.485 C 169.877 479.836, 179.675 481.611, 186 482.429 C 192.325 483.247, 205.815 484.441, 215.977 485.083 C 227.646 485.820, 248.097 486.049, 271.477 485.704 C 294.039 485.370, 314.459 484.540, 323.756 483.579 C 332.147 482.710, 343.612 481.309, 349.233 480.465 C 354.855 479.621, 363.964 477.998, 369.477 476.858 C 374.990 475.719, 384.142 473.269, 389.815 471.414 C 395.488 469.559, 403.179 466.439, 406.905 464.481 C 410.631 462.523, 415.546 459.127, 417.827 456.936 C 420.108 454.744, 422.598 451.724, 423.360 450.225 C 424.123 448.726, 425.059 446.488, 425.441 445.250 C 425.822 444.012, 425.767 443.049, 425.317 443.108 C 424.868 443.167, 423.150 444.524, 421.500 446.124" stroke="none" fill="#5484a4" fill-rule="evenodd"/><path d="M 302.467 29 C 302.789 30.925, 303.321 37.290, 303.650 43.144 C 304.103 51.207, 303.844 55.606, 302.579 61.290 C 301.661 65.416, 299.192 72.327, 297.093 76.646 C 294.993 80.966, 291.231 87.205, 288.732 90.512 C 286.233 93.818, 279.984 100.579, 274.844 105.536 C 269.705 110.492, 256.500 121.698, 245.500 130.437 C 234.500 139.176, 221.201 150.640, 215.946 155.913 C 210.692 161.186, 204.714 168.074, 202.662 171.221 C 200.611 174.367, 198.203 178.867, 197.313 181.221 C 196.340 183.794, 195.671 188.689, 195.637 193.500 C 195.596 199.284, 196.204 203.335, 197.830 208.125 C 199.068 211.769, 201.670 217.394, 203.613 220.625 C 205.556 223.856, 209.646 229.875, 212.703 234 C 215.760 238.125, 226.527 249.713, 236.631 259.750 C 246.734 269.788, 255.494 278, 256.096 278 C 256.698 278, 255.736 275.413, 253.958 272.250 C 252.180 269.087, 246.118 259.750, 240.487 251.500 C 234.856 243.250, 228.669 233.349, 226.737 229.498 C 224.805 225.647, 222.499 220.053, 221.612 217.067 C 220.726 214.080, 220 208.425, 220 204.500 C 220 200.575, 220.714 194.919, 221.586 191.932 C 222.459 188.944, 224.669 183.800, 226.499 180.500 C 228.328 177.200, 232.742 171.084, 236.307 166.908 C 239.872 162.733, 249.272 153.904, 257.196 147.288 C 265.120 140.672, 275.555 131.263, 280.385 126.379 C 285.214 121.496, 291.529 114.350, 294.417 110.500 C 297.306 106.650, 301.251 100.778, 303.186 97.450 C 305.120 94.123, 307.872 88.477, 309.301 84.905 C 310.730 81.332, 312.424 76.180, 313.065 73.455 C 313.705 70.730, 314.248 64.675, 314.270 60 C 314.296 54.745, 313.646 49.226, 312.567 45.543 C 311.608 42.266, 309.786 37.537, 308.517 35.033 C 307.248 32.529, 305.236 29.360, 304.046 27.990 C 301.882 25.500, 301.882 25.500, 302.467 29 M 344 124.401 C 337.125 126.763, 328.575 129.942, 325 131.465 C 321.425 132.988, 314.675 136.159, 310 138.512 C 305.325 140.865, 297.422 145.474, 292.439 148.753 C 287.455 152.032, 280.368 157.530, 276.690 160.971 C 273.012 164.411, 268.019 170.213, 265.594 173.863 C 263.169 177.513, 260.243 183.298, 259.092 186.718 C 257.674 190.934, 257.004 195.443, 257.012 200.718 C 257.018 204.998, 257.679 210.975, 258.479 214 C 259.279 217.025, 261.541 222.676, 263.506 226.557 C 265.471 230.439, 270.425 237.864, 274.515 243.057 C 278.605 248.251, 282.637 254.493, 283.476 256.928 C 284.314 259.364, 284.996 264.089, 284.990 267.428 C 284.983 271.821, 284.274 275.021, 282.427 279 C 281.022 282.025, 278.075 286.637, 275.877 289.250 C 273.679 291.863, 272.287 294, 272.784 294 C 273.280 294, 277.019 291.674, 281.093 288.832 C 285.167 285.990, 291.478 280.653, 295.118 276.973 C 299.232 272.813, 302.942 267.833, 304.923 263.808 C 306.774 260.049, 308.350 255.007, 308.683 251.784 C 309.006 248.650, 308.712 243.967, 308.006 241.026 C 307.121 237.336, 303.784 231.372, 296.550 220.552 C 289.068 209.360, 285.872 203.606, 284.580 198.999 C 283.364 194.665, 283.027 191.282, 283.496 188.106 C 283.870 185.573, 285.599 180.800, 287.338 177.500 C 289.112 174.133, 293.791 168.162, 298 163.894 C 302.125 159.710, 310.334 152.712, 316.243 148.343 C 322.151 143.973, 333.531 136.371, 341.530 131.449 C 349.529 126.527, 356.845 121.952, 357.787 121.282 C 359.172 120.297, 359.213 120.068, 358 120.085 C 357.175 120.096, 350.875 122.038, 344 124.401" stroke="none" fill="#fb9b1c" fill-rule="evenodd"/></svg>