<svg xmlns="http://www.w3.org/2000/svg" width="64" height="64" viewBox="0 0 512 512" version="1.1"><path d="M 206.037 88.115 C 200.832 88.577, 191.876 90.131, 186.133 91.569 C 180.390 93.007, 171.673 95.717, 166.761 97.591 C 161.849 99.466, 153.256 103.349, 147.665 106.221 C 142.074 109.093, 132.325 114.862, 126 119.042 C 119.675 123.223, 110.225 130.200, 105 134.548 C 99.775 138.896, 91.665 146.289, 86.977 150.977 C 82.289 155.665, 74.896 163.775, 70.548 169 C 66.200 174.225, 59.223 183.675, 55.042 190 C 50.862 196.325, 45.093 206.074, 42.221 211.665 C 39.349 217.256, 35.466 225.849, 33.591 230.761 C 31.717 235.673, 29.019 244.374, 27.597 250.096 C 26.174 255.818, 24.609 265.225, 24.118 271 C 23.597 277.134, 23.595 285.509, 24.114 291.142 C 24.603 296.445, 26.102 304.578, 27.446 309.215 C 28.789 313.852, 32.164 322.298, 34.944 327.984 C 38.608 335.476, 40 339.495, 40 342.580 C 40 344.921, 38.425 351.860, 36.500 358 C 34.204 365.323, 33 371.136, 33 374.900 C 33 378.055, 33.718 383.081, 34.595 386.068 C 35.473 389.056, 37.117 393.075, 38.249 395 C 39.381 396.925, 42.151 400.434, 44.404 402.798 C 46.657 405.162, 50.300 408.150, 52.500 409.439 C 54.700 410.727, 58.944 412.506, 61.932 413.391 C 64.919 414.276, 69.990 415, 73.200 415 C 77.142 415, 82.552 413.864, 89.864 411.500 C 95.818 409.575, 102.613 408, 104.963 408 C 107.829 408, 112.242 409.359, 118.368 412.129 C 123.391 414.400, 130.600 417.319, 134.390 418.617 C 138.179 419.914, 144.867 421.656, 149.250 422.488 C 153.645 423.322, 162.721 424, 169.479 424 C 176.222 424, 185.586 423.329, 190.290 422.509 C 194.994 421.688, 202.590 419.836, 207.171 418.391 C 211.752 416.947, 219.916 413.825, 225.314 411.452 C 230.712 409.080, 239.743 404.408, 245.383 401.069 C 251.023 397.731, 255.908 395, 256.239 395 C 256.570 395, 260.467 397.498, 264.900 400.552 C 269.332 403.605, 277.581 408.305, 283.230 410.996 C 288.878 413.686, 297.550 417.057, 302.500 418.486 C 307.450 419.914, 315.550 421.788, 320.500 422.650 C 327.329 423.839, 333.601 424.089, 346.500 423.690 C 356.621 423.376, 366.535 422.495, 371 421.513 C 375.125 420.605, 383.065 418.347, 388.644 416.495 C 394.224 414.642, 402.954 411.034, 408.046 408.477 C 413.138 405.920, 419.148 402.647, 421.402 401.203 C 423.656 399.760, 429.104 395.809, 433.509 392.424 C 437.913 389.038, 445.407 382.181, 450.161 377.185 C 454.916 372.189, 461.275 364.366, 464.294 359.801 C 467.313 355.235, 471.469 348.125, 473.530 344 C 475.591 339.875, 478.366 333.607, 479.697 330.071 C 481.028 326.535, 483.237 319.110, 484.606 313.571 C 486.296 306.729, 487.288 299.244, 487.698 290.225 C 488.286 277.303, 488.240 276.884, 485.977 274.475 C 483.651 272, 483.651 272, 419.019 272 C 354.388 272, 354.388 272, 356.890 262.750 C 359.148 254.407, 359.393 251.637, 359.396 234.500 C 359.398 217.051, 359.181 214.698, 356.737 205.674 C 355.274 200.270, 351.809 190.737, 349.038 184.491 C 345.576 176.687, 344 171.812, 344 168.912 C 344 166.590, 345.575 159.818, 347.500 153.864 C 349.864 146.552, 351 141.142, 351 137.200 C 351 133.990, 350.282 128.919, 349.405 125.932 C 348.527 122.944, 346.883 118.925, 345.751 117 C 344.619 115.075, 341.849 111.566, 339.596 109.202 C 337.343 106.838, 333.700 103.850, 331.500 102.561 C 329.300 101.273, 325.056 99.494, 322.068 98.609 C 319.081 97.724, 314.055 97, 310.900 97 C 307.136 97, 301.323 98.204, 294 100.500 C 287.860 102.425, 280.921 104, 278.580 104 C 275.495 104, 271.476 102.608, 263.984 98.944 C 258.298 96.164, 249.945 92.816, 245.421 91.505 C 240.897 90.194, 234.339 88.855, 230.848 88.530 C 227.356 88.204, 222.475 87.789, 220 87.607 C 217.525 87.425, 211.242 87.654, 206.037 88.115 M 201.520 105.052 C 198.231 105.565, 191.931 106.917, 187.520 108.056 C 183.109 109.195, 174.826 111.985, 169.113 114.256 C 163.400 116.527, 153.223 121.596, 146.498 125.520 C 139.774 129.445, 129.990 135.874, 124.756 139.807 C 119.523 143.741, 111.423 150.456, 106.755 154.729 C 102.088 159.003, 94.850 166.232, 90.671 170.794 C 86.493 175.356, 79.958 183.234, 76.151 188.300 C 72.343 193.366, 66.622 201.783, 63.438 207.005 C 60.254 212.227, 55.876 220.325, 53.709 225 C 51.542 229.675, 48.305 238, 46.516 243.500 C 44.727 249, 42.641 256.650, 41.882 260.500 C 41.070 264.613, 40.535 273.275, 40.584 281.500 C 40.650 292.391, 41.131 297.183, 42.750 303.080 C 43.895 307.250, 47.214 315.526, 50.126 321.471 C 55.130 331.690, 55.442 332.782, 55.819 341.417 C 56.182 349.704, 55.916 351.431, 52.956 360.026 C 50.905 365.981, 49.663 371.565, 49.613 375.059 C 49.554 379.162, 50.198 381.910, 52.071 385.550 C 53.467 388.262, 56.487 391.914, 58.782 393.664 C 61.170 395.485, 65.296 397.370, 68.430 398.072 C 73.572 399.222, 74.505 399.108, 83.703 396.197 C 89.091 394.492, 96.088 392.693, 99.250 392.200 C 102.637 391.671, 107.363 391.671, 110.750 392.198 C 113.913 392.690, 121.225 395.274, 127 397.940 C 132.775 400.606, 141.325 403.723, 146 404.866 C 150.675 406.010, 158.550 407.237, 163.500 407.593 C 169.764 408.043, 175.946 407.733, 183.837 406.573 C 190.072 405.656, 199.852 403.373, 205.570 401.500 C 211.288 399.627, 221.261 395.394, 227.733 392.093 C 234.205 388.792, 240.374 385.452, 241.441 384.669 C 243.296 383.311, 243.103 382.940, 237.128 376.374 C 233.688 372.593, 228.186 365.509, 224.902 360.632 C 221.617 355.754, 216.944 347.654, 214.516 342.632 C 212.088 337.609, 208.983 330.125, 207.616 326 C 206.248 321.875, 204.156 313.775, 202.966 308 C 201.776 302.225, 200.562 293.834, 200.267 289.354 C 199.972 284.873, 200.028 280.025, 200.391 278.578 C 200.754 277.132, 201.939 275.061, 203.025 273.975 C 204.952 272.048, 206.616 272, 270.891 272 C 336.783 272, 336.783 272, 338.361 268.055 C 339.229 265.886, 340.899 259.473, 342.072 253.805 C 343.834 245.293, 344.113 241.325, 343.679 231 C 343.348 223.133, 342.383 215.569, 341.077 210.592 C 339.935 206.242, 337.370 199.042, 335.378 194.592 C 333.385 190.141, 330.879 184.061, 329.808 181.081 C 328.584 177.671, 327.851 173.008, 327.834 168.509 C 327.812 162.937, 328.634 158.772, 331.557 149.655 C 335.150 138.445, 335.256 137.723, 334.077 132.454 C 333.371 129.297, 331.491 125.177, 329.664 122.782 C 327.914 120.487, 324.262 117.467, 321.550 116.071 C 317.910 114.198, 315.162 113.554, 311.059 113.613 C 307.565 113.663, 301.981 114.905, 296.026 116.956 C 287.431 119.916, 285.704 120.182, 277.417 119.819 C 268.782 119.442, 267.690 119.130, 257.471 114.126 C 251.526 111.214, 243.250 107.926, 239.080 106.820 C 234.127 105.507, 227.341 104.690, 219.500 104.464 C 212.900 104.273, 204.809 104.538, 201.520 105.052 M 104.980 179.250 C 101.201 183.238, 95.577 189.650, 92.482 193.500 C 89.387 197.350, 84.019 204.775, 80.554 210 C 77.089 215.225, 72.002 224, 69.249 229.500 C 66.496 235, 62.879 243.775, 61.210 249 C 59.541 254.225, 57.624 262.283, 56.950 266.906 C 56.245 271.739, 55.975 278.966, 56.315 283.906 C 56.640 288.633, 57.609 295.200, 58.468 298.500 C 59.327 301.800, 61.711 307.860, 63.765 311.967 C 66.591 317.616, 68.161 319.641, 70.215 320.288 C 72.030 320.860, 73.849 320.702, 75.705 319.812 C 77.232 319.081, 79.091 317.210, 79.836 315.655 C 81.069 313.084, 80.917 312.215, 78.148 306.023 C 76.474 302.279, 74.346 295.471, 73.418 290.892 C 72.203 284.897, 71.902 280.164, 72.341 273.982 C 72.676 269.260, 74.111 261.392, 75.529 256.497 C 76.947 251.603, 80.064 243.526, 82.456 238.549 C 84.847 233.572, 89.473 225.450, 92.736 220.500 C 95.999 215.550, 101.392 208.083, 104.721 203.908 C 108.050 199.732, 113.525 193.374, 116.887 189.780 C 122.018 184.295, 123 182.670, 123 179.662 C 123 177.263, 122.276 175.404, 120.811 174.039 C 119.502 172.819, 117.262 172, 115.237 172 C 112.333 172, 110.875 173.031, 104.980 179.250 M 306.736 193.250 C 305.831 193.938, 304.667 195.642, 304.151 197.037 C 303.485 198.836, 303.650 200.727, 304.720 203.537 C 305.550 205.717, 307.405 210.650, 308.842 214.500 C 311.236 220.913, 311.456 222.785, 311.477 236.836 C 311.499 251.734, 311.568 252.228, 313.861 254.086 C 315.159 255.139, 317.272 256, 318.555 256 C 319.838 256, 322.043 254.988, 323.454 253.750 C 325.295 252.135, 326.331 249.806, 327.124 245.500 C 327.746 242.119, 327.989 235.136, 327.679 229.500 C 327.377 224, 326.189 216.202, 325.040 212.171 C 323.890 208.141, 321.633 202.235, 320.024 199.047 C 318.415 195.860, 316.364 192.970, 315.467 192.626 C 314.570 192.282, 312.609 192, 311.109 192 C 309.609 192, 307.642 192.563, 306.736 193.250 M 216.356 290.750 C 216.640 292.262, 217.157 295.750, 217.507 298.500 C 217.856 301.250, 219.048 307.100, 220.154 311.500 C 221.260 315.900, 223.734 323.325, 225.652 328 C 227.569 332.675, 230.977 339.650, 233.225 343.500 C 235.473 347.350, 240.137 354.142, 243.588 358.593 C 247.040 363.045, 253.130 369.711, 257.122 373.407 C 261.114 377.103, 268.341 382.776, 273.181 386.014 C 278.022 389.251, 285.340 393.494, 289.445 395.442 C 293.549 397.389, 300.191 400.080, 304.204 401.421 C 308.217 402.762, 315.325 404.666, 320 405.652 C 326.073 406.933, 332.925 407.444, 344 407.444 C 355.051 407.444, 361.940 406.931, 368 405.656 C 372.675 404.673, 380.550 402.522, 385.500 400.876 C 390.450 399.230, 398.306 395.861, 402.959 393.391 C 407.611 390.920, 414.936 386.364, 419.237 383.268 C 423.538 380.172, 430.996 373.557, 435.812 368.569 C 440.627 363.581, 447.139 355.625, 450.283 350.889 C 453.427 346.153, 457.770 338.500, 459.933 333.883 C 462.097 329.267, 465.011 321.542, 466.409 316.717 C 467.807 311.893, 469.387 305.145, 469.919 301.723 C 470.452 298.300, 471.109 293.813, 471.381 291.750 C 471.874 288, 471.874 288, 463.982 288 C 456.091 288, 456.091 288, 455.486 291.750 C 455.153 293.813, 454.197 299.098, 453.360 303.495 C 452.524 307.892, 450.294 315.493, 448.404 320.385 C 446.515 325.278, 442.839 332.874, 440.235 337.265 C 437.631 341.657, 432.690 348.550, 429.255 352.584 C 425.821 356.618, 420.323 362.155, 417.039 364.888 C 413.754 367.621, 409.112 371.203, 406.723 372.846 C 404.334 374.490, 398.660 377.710, 394.113 380.003 C 389.567 382.295, 382.619 385.272, 378.674 386.618 C 374.728 387.963, 367.729 389.725, 363.119 390.532 C 358.509 391.340, 350.356 392, 345 392 C 339.644 392, 331.295 391.308, 326.446 390.463 C 321.597 389.617, 314.226 387.785, 310.065 386.392 C 305.904 384.999, 299.008 382.115, 294.740 379.983 C 290.472 377.850, 283.514 373.720, 279.277 370.803 C 275.040 367.886, 268.317 362.252, 264.336 358.283 C 260.356 354.314, 254.785 347.789, 251.958 343.783 C 249.130 339.777, 245.281 333.469, 243.403 329.764 C 241.525 326.059, 238.873 319.610, 237.510 315.433 C 236.146 311.255, 234.555 304.836, 233.974 301.169 C 233.393 297.501, 232.691 293.038, 232.414 291.250 C 231.909 288, 231.909 288, 223.875 288 C 215.841 288, 215.841 288, 216.356 290.750 M 248.668 291.750 C 248.966 293.813, 249.829 298.307, 250.587 301.737 C 251.345 305.168, 253.317 311.468, 254.970 315.737 C 256.622 320.007, 260.248 327.040, 263.027 331.367 C 265.807 335.693, 270.650 341.941, 273.790 345.250 C 276.931 348.559, 282.380 353.456, 285.899 356.133 C 289.419 358.810, 292.797 361, 293.406 361 C 294.014 361, 302.722 344.575, 312.755 324.500 C 330.996 288, 330.996 288, 289.561 288 C 248.126 288, 248.126 288, 248.668 291.750 M 375.245 324.500 C 385.278 344.575, 393.986 361, 394.594 361 C 395.203 361, 398.581 358.820, 402.101 356.155 C 405.620 353.490, 411.172 348.428, 414.438 344.905 C 417.703 341.382, 422.547 335.125, 425.201 331 C 427.854 326.875, 431.378 320.007, 433.030 315.737 C 434.683 311.468, 436.655 305.168, 437.413 301.737 C 438.171 298.307, 439.034 293.813, 439.332 291.750 C 439.874 288, 439.874 288, 398.439 288 C 357.004 288, 357.004 288, 375.245 324.500 M 326.148 333.694 C 310.395 365.216, 308.966 368.502, 310.519 369.637 C 311.458 370.324, 316.339 371.902, 321.364 373.144 C 328.569 374.924, 333.353 375.401, 344 375.401 C 354.647 375.401, 359.431 374.924, 366.636 373.144 C 371.661 371.902, 376.542 370.324, 377.481 369.637 C 379.034 368.502, 377.605 365.216, 361.852 333.694 C 352.316 314.612, 344.282 299, 344 299 C 343.718 299, 335.684 314.612, 326.148 333.694" stroke="none" fill="#060604" fill-rule="evenodd"/><path d="M 201.520 105.052 C 198.231 105.565, 191.931 106.917, 187.520 108.056 C 183.109 109.195, 174.826 111.985, 169.113 114.256 C 163.400 116.527, 153.223 121.596, 146.498 125.520 C 139.774 129.445, 129.990 135.874, 124.756 139.807 C 119.523 143.741, 111.423 150.456, 106.755 154.729 C 102.088 159.003, 94.850 166.232, 90.671 170.794 C 86.493 175.356, 79.958 183.234, 76.151 188.300 C 72.343 193.366, 66.622 201.783, 63.438 207.005 C 60.254 212.227, 55.876 220.325, 53.709 225 C 51.542 229.675, 48.305 238, 46.516 243.500 C 44.727 249, 42.641 256.650, 41.882 260.500 C 41.070 264.613, 40.535 273.275, 40.584 281.500 C 40.650 292.391, 41.131 297.183, 42.750 303.080 C 43.895 307.250, 47.214 315.526, 50.126 321.471 C 55.130 331.690, 55.442 332.782, 55.819 341.417 C 56.182 349.704, 55.916 351.431, 52.956 360.026 C 50.905 365.981, 49.663 371.565, 49.613 375.059 C 49.554 379.162, 50.198 381.910, 52.071 385.550 C 53.467 388.262, 56.487 391.914, 58.782 393.664 C 61.170 395.485, 65.296 397.370, 68.430 398.072 C 73.572 399.222, 74.505 399.108, 83.703 396.197 C 89.091 394.492, 96.088 392.693, 99.250 392.200 C 102.637 391.671, 107.363 391.671, 110.750 392.198 C 113.913 392.690, 121.225 395.274, 127 397.940 C 132.775 400.606, 141.325 403.723, 146 404.866 C 150.675 406.010, 158.550 407.237, 163.500 407.593 C 169.764 408.043, 175.946 407.733, 183.837 406.573 C 190.072 405.656, 199.852 403.373, 205.570 401.500 C 211.288 399.627, 221.261 395.394, 227.733 392.093 C 234.205 388.792, 240.374 385.452, 241.441 384.669 C 243.296 383.311, 243.103 382.940, 237.128 376.374 C 233.688 372.593, 228.186 365.509, 224.902 360.632 C 221.617 355.754, 216.944 347.654, 214.516 342.632 C 212.088 337.609, 208.983 330.125, 207.616 326 C 206.248 321.875, 204.156 313.775, 202.966 308 C 201.776 302.225, 200.562 293.834, 200.267 289.354 C 199.972 284.873, 200.028 280.025, 200.391 278.578 C 200.754 277.132, 201.939 275.061, 203.025 273.975 C 204.952 272.048, 206.616 272, 270.891 272 C 336.783 272, 336.783 272, 338.361 268.055 C 339.229 265.886, 340.899 259.473, 342.072 253.805 C 343.834 245.293, 344.113 241.325, 343.679 231 C 343.348 223.133, 342.383 215.569, 341.077 210.592 C 339.935 206.242, 337.370 199.042, 335.378 194.592 C 333.385 190.141, 330.879 184.061, 329.808 181.081 C 328.584 177.671, 327.851 173.008, 327.834 168.509 C 327.812 162.937, 328.634 158.772, 331.557 149.655 C 335.150 138.445, 335.256 137.723, 334.077 132.454 C 333.371 129.297, 331.491 125.177, 329.664 122.782 C 327.914 120.487, 324.262 117.467, 321.550 116.071 C 317.910 114.198, 315.162 113.554, 311.059 113.613 C 307.565 113.663, 301.981 114.905, 296.026 116.956 C 287.431 119.916, 285.704 120.182, 277.417 119.819 C 268.782 119.442, 267.690 119.130, 257.471 114.126 C 251.526 111.214, 243.250 107.926, 239.080 106.820 C 234.127 105.507, 227.341 104.690, 219.500 104.464 C 212.900 104.273, 204.809 104.538, 201.520 105.052 M 104.980 179.250 C 101.201 183.238, 95.577 189.650, 92.482 193.500 C 89.387 197.350, 84.019 204.775, 80.554 210 C 77.089 215.225, 72.002 224, 69.249 229.500 C 66.496 235, 62.879 243.775, 61.210 249 C 59.541 254.225, 57.624 262.283, 56.950 266.906 C 56.245 271.739, 55.975 278.966, 56.315 283.906 C 56.640 288.633, 57.609 295.200, 58.468 298.500 C 59.327 301.800, 61.711 307.860, 63.765 311.967 C 66.591 317.616, 68.161 319.641, 70.215 320.288 C 72.030 320.860, 73.849 320.702, 75.705 319.812 C 77.232 319.081, 79.091 317.210, 79.836 315.655 C 81.069 313.084, 80.917 312.215, 78.148 306.023 C 76.474 302.279, 74.346 295.471, 73.418 290.892 C 72.203 284.897, 71.902 280.164, 72.341 273.982 C 72.676 269.260, 74.111 261.392, 75.529 256.497 C 76.947 251.603, 80.064 243.526, 82.456 238.549 C 84.847 233.572, 89.473 225.450, 92.736 220.500 C 95.999 215.550, 101.392 208.083, 104.721 203.908 C 108.050 199.732, 113.525 193.374, 116.887 189.780 C 122.018 184.295, 123 182.670, 123 179.662 C 123 177.263, 122.276 175.404, 120.811 174.039 C 119.502 172.819, 117.262 172, 115.237 172 C 112.333 172, 110.875 173.031, 104.980 179.250 M 306.736 193.250 C 305.831 193.938, 304.667 195.642, 304.151 197.037 C 303.485 198.836, 303.650 200.727, 304.720 203.537 C 305.550 205.717, 307.405 210.650, 308.842 214.500 C 311.236 220.913, 311.456 222.785, 311.477 236.836 C 311.499 251.734, 311.568 252.228, 313.861 254.086 C 315.159 255.139, 317.272 256, 318.555 256 C 319.838 256, 322.043 254.988, 323.454 253.750 C 325.295 252.135, 326.331 249.806, 327.124 245.500 C 327.746 242.119, 327.989 235.136, 327.679 229.500 C 327.377 224, 326.189 216.202, 325.040 212.171 C 323.890 208.141, 321.633 202.235, 320.024 199.047 C 318.415 195.860, 316.364 192.970, 315.467 192.626 C 314.570 192.282, 312.609 192, 311.109 192 C 309.609 192, 307.642 192.563, 306.736 193.250 M 216.356 290.750 C 216.640 292.262, 217.157 295.750, 217.507 298.500 C 217.856 301.250, 219.048 307.100, 220.154 311.500 C 221.260 315.900, 223.734 323.325, 225.652 328 C 227.569 332.675, 230.977 339.650, 233.225 343.500 C 235.473 347.350, 240.137 354.142, 243.588 358.593 C 247.040 363.045, 253.130 369.711, 257.122 373.407 C 261.114 377.103, 268.341 382.776, 273.181 386.014 C 278.022 389.251, 285.340 393.494, 289.445 395.442 C 293.549 397.389, 300.191 400.080, 304.204 401.421 C 308.217 402.762, 315.325 404.666, 320 405.652 C 326.073 406.933, 332.925 407.444, 344 407.444 C 355.051 407.444, 361.940 406.931, 368 405.656 C 372.675 404.673, 380.550 402.522, 385.500 400.876 C 390.450 399.230, 398.306 395.861, 402.959 393.391 C 407.611 390.920, 414.936 386.364, 419.237 383.268 C 423.538 380.172, 430.996 373.557, 435.812 368.569 C 440.627 363.581, 447.139 355.625, 450.283 350.889 C 453.427 346.153, 457.770 338.500, 459.933 333.883 C 462.097 329.267, 465.011 321.542, 466.409 316.717 C 467.807 311.893, 469.387 305.145, 469.919 301.723 C 470.452 298.300, 471.109 293.813, 471.381 291.750 C 471.874 288, 471.874 288, 463.982 288 C 456.091 288, 456.091 288, 455.486 291.750 C 455.153 293.813, 454.197 299.098, 453.360 303.495 C 452.524 307.892, 450.294 315.493, 448.404 320.385 C 446.515 325.278, 442.839 332.874, 440.235 337.265 C 437.631 341.657, 432.690 348.550, 429.255 352.584 C 425.821 356.618, 420.323 362.155, 417.039 364.888 C 413.754 367.621, 409.112 371.203, 406.723 372.846 C 404.334 374.490, 398.660 377.710, 394.113 380.003 C 389.567 382.295, 382.619 385.272, 378.674 386.618 C 374.728 387.963, 367.729 389.725, 363.119 390.532 C 358.509 391.340, 350.356 392, 345 392 C 339.644 392, 331.295 391.308, 326.446 390.463 C 321.597 389.617, 314.226 387.785, 310.065 386.392 C 305.904 384.999, 299.008 382.115, 294.740 379.983 C 290.472 377.850, 283.514 373.720, 279.277 370.803 C 275.040 367.886, 268.317 362.252, 264.336 358.283 C 260.356 354.314, 254.785 347.789, 251.958 343.783 C 249.130 339.777, 245.281 333.469, 243.403 329.764 C 241.525 326.059, 238.873 319.610, 237.510 315.433 C 236.146 311.255, 234.555 304.836, 233.974 301.169 C 233.393 297.501, 232.691 293.038, 232.414 291.250 C 231.909 288, 231.909 288, 223.875 288 C 215.841 288, 215.841 288, 216.356 290.750 M 248.668 291.750 C 248.966 293.813, 249.829 298.307, 250.587 301.737 C 251.345 305.168, 253.317 311.468, 254.970 315.737 C 256.622 320.007, 260.248 327.040, 263.027 331.367 C 265.807 335.693, 270.650 341.941, 273.790 345.250 C 276.931 348.559, 282.380 353.456, 285.899 356.133 C 289.419 358.810, 292.797 361, 293.406 361 C 294.014 361, 302.722 344.575, 312.755 324.500 C 330.996 288, 330.996 288, 289.561 288 C 248.126 288, 248.126 288, 248.668 291.750 M 375.245 324.500 C 385.278 344.575, 393.986 361, 394.594 361 C 395.203 361, 398.581 358.820, 402.101 356.155 C 405.620 353.490, 411.172 348.428, 414.438 344.905 C 417.703 341.382, 422.547 335.125, 425.201 331 C 427.854 326.875, 431.378 320.007, 433.030 315.737 C 434.683 311.468, 436.655 305.168, 437.413 301.737 C 438.171 298.307, 439.034 293.813, 439.332 291.750 C 439.874 288, 439.874 288, 398.439 288 C 357.004 288, 357.004 288, 375.245 324.500 M 326.148 333.694 C 310.395 365.216, 308.966 368.502, 310.519 369.637 C 311.458 370.324, 316.339 371.902, 321.364 373.144 C 328.569 374.924, 333.353 375.401, 344 375.401 C 354.647 375.401, 359.431 374.924, 366.636 373.144 C 371.661 371.902, 376.542 370.324, 377.481 369.637 C 379.034 368.502, 377.605 365.216, 361.852 333.694 C 352.316 314.612, 344.282 299, 344 299 C 343.718 299, 335.684 314.612, 326.148 333.694" stroke="none" fill="#fad23e" fill-rule="evenodd"/></svg>