<svg xmlns="http://www.w3.org/2000/svg" width="32" height="32" viewBox="0 0 1280 1278" version="1.1"><path d="M 578 1.073 C 571.125 1.501, 560.325 2.357, 554 2.974 C 547.675 3.591, 535.750 5.004, 527.500 6.113 C 519.250 7.222, 506.425 9.240, 499 10.597 C 491.575 11.955, 478.525 14.821, 470 16.967 C 461.475 19.114, 449.550 22.527, 443.500 24.552 C 437.450 26.578, 429.249 29.523, 425.275 31.097 C 421.302 32.671, 412.752 36.621, 406.275 39.874 C 399.799 43.127, 390.450 48.473, 385.500 51.754 C 380.550 55.035, 372.896 60.862, 368.492 64.703 C 364.087 68.544, 357.942 74.795, 354.835 78.593 C 351.729 82.392, 347.113 88.866, 344.578 92.980 C 342.042 97.094, 338.650 103.878, 337.039 108.055 C 335.065 113.173, 333.766 119.003, 333.055 125.931 C 332.416 132.158, 332 165.718, 332 211.047 C 332 252.206, 332.337 286.086, 332.750 286.335 C 333.163 286.584, 394.475 287.065, 469 287.404 C 543.525 287.743, 613.163 288.290, 623.750 288.620 C 643 289.219, 643 289.219, 642.985 308.859 C 642.976 319.662, 642.543 329.175, 642.021 330 C 641.185 331.324, 613.712 331.566, 408.287 332.060 C 175.500 332.620, 175.500 332.620, 166.500 334.767 C 161.550 335.947, 154.575 337.781, 151 338.840 C 147.425 339.900, 140.900 342.206, 136.500 343.964 C 132.100 345.723, 126.925 347.890, 125 348.781 C 123.075 349.672, 117.675 352.634, 113 355.362 C 108.325 358.090, 101.125 362.813, 97 365.856 C 92.875 368.900, 84.501 376.365, 78.392 382.445 C 72.282 388.525, 63.920 398.043, 59.809 403.596 C 55.699 409.149, 49.356 418.824, 45.715 425.096 C 42.074 431.368, 36.985 441, 34.408 446.500 C 31.831 452, 27.749 461.675, 25.338 468 C 22.928 474.325, 19.210 485.575, 17.076 493 C 14.943 500.425, 12.025 512.190, 10.592 519.145 C 9.160 526.100, 7.109 537.575, 6.036 544.645 C 4.963 551.715, 3.280 565.375, 2.296 575 C 0.843 589.213, 0.507 601.609, 0.505 641 C 0.503 680.674, 0.829 692.594, 2.297 706.500 C 3.284 715.850, 5.219 730.925, 6.597 740 C 7.974 749.075, 10.686 763.656, 12.622 772.403 C 14.558 781.149, 18.122 794.874, 20.542 802.903 C 22.962 810.931, 26.779 822.225, 29.024 828 C 31.269 833.775, 35.964 844.350, 39.458 851.500 C 42.951 858.650, 48.363 868.550, 51.484 873.500 C 54.604 878.450, 59.665 885.839, 62.730 889.919 C 65.794 893.999, 71.720 900.916, 75.898 905.289 C 80.076 909.662, 86.871 916.052, 90.997 919.488 C 95.124 922.924, 102.439 928.299, 107.252 931.432 C 112.066 934.566, 120.166 939.094, 125.252 941.495 C 130.339 943.896, 138.775 947.196, 144 948.829 C 149.225 950.461, 156.200 952.405, 159.500 953.148 C 164.193 954.206, 179.114 954.500, 228 954.500 C 290.500 954.500, 290.500 954.500, 290.720 929.500 C 290.841 915.750, 291.397 875.250, 291.956 839.500 C 292.718 790.688, 293.342 772.259, 294.459 765.500 C 295.278 760.550, 296.839 753.125, 297.929 749 C 299.018 744.875, 300.781 738.800, 301.846 735.500 C 302.911 732.200, 305.031 726.350, 306.556 722.500 C 308.082 718.650, 311.509 711.297, 314.172 706.161 C 316.834 701.024, 321.807 692.699, 325.222 687.661 C 328.793 682.392, 336.332 673.585, 342.966 666.932 C 350.601 659.273, 357.895 653.116, 364.543 648.716 C 370.067 645.060, 378.842 640.064, 384.043 637.613 C 389.244 635.162, 397.775 631.784, 403 630.106 C 408.225 628.428, 415.322 626.340, 418.771 625.465 C 422.220 624.590, 428.295 623.451, 432.271 622.934 C 436.247 622.418, 474.825 621.580, 518 621.072 C 561.175 620.565, 632.950 620.019, 677.500 619.860 C 722.050 619.700, 769.075 619.257, 782 618.874 C 794.925 618.492, 807.300 617.896, 809.500 617.552 C 811.700 617.207, 815.750 616.430, 818.500 615.826 C 821.250 615.222, 826.813 613.851, 830.861 612.780 C 834.910 611.709, 842.335 609.344, 847.361 607.524 C 852.388 605.705, 860.504 602.365, 865.398 600.104 C 870.291 597.843, 877.266 594.125, 880.898 591.843 C 884.529 589.560, 890.650 585.323, 894.500 582.427 C 898.350 579.532, 904.990 573.639, 909.255 569.331 C 913.521 565.024, 919.719 557.900, 923.029 553.500 C 926.339 549.100, 931.501 540.550, 934.501 534.500 C 937.500 528.450, 941.577 518.550, 943.560 512.500 C 945.544 506.450, 948.123 497.450, 949.291 492.500 C 951.407 483.538, 951.418 482.788, 951.738 313.027 C 952.061 142.554, 952.061 142.554, 948.990 133.027 C 947.301 127.787, 943.261 118.047, 940.012 111.382 C 936.764 104.717, 931.417 95.695, 928.129 91.332 C 924.842 86.970, 917.481 78.923, 911.772 73.450 C 906.062 67.978, 897.815 60.953, 893.445 57.840 C 889.075 54.727, 881.077 49.631, 875.672 46.515 C 870.267 43.398, 861.042 38.689, 855.172 36.048 C 849.302 33.408, 839.550 29.436, 833.500 27.220 C 827.450 25.005, 817.698 21.796, 811.828 20.090 C 805.959 18.383, 795.384 15.692, 788.328 14.109 C 781.273 12.526, 771.450 10.512, 766.500 9.633 C 761.550 8.754, 753 7.376, 747.500 6.571 C 742 5.767, 730.525 4.415, 722 3.568 C 713.475 2.721, 700.200 1.574, 692.500 1.018 C 684.800 0.463, 658.700 0.072, 634.500 0.151 C 610.300 0.229, 584.875 0.644, 578 1.073 M 457.500 99.649 C 456.400 99.878, 453.475 100.565, 451 101.176 C 448.525 101.787, 443.498 103.835, 439.828 105.726 C 436.158 107.618, 430.834 111.428, 427.996 114.192 C 425.157 116.957, 421.377 121.532, 419.595 124.359 C 417.813 127.187, 415.403 131.975, 414.240 135 C 413.076 138.025, 411.810 142.525, 411.425 145 C 411.041 147.475, 410.771 152.295, 410.826 155.711 C 410.880 159.127, 411.655 164.752, 412.547 168.211 C 413.439 171.670, 415.577 177.200, 417.298 180.500 C 419.043 183.845, 423.401 189.460, 427.144 193.187 C 432.141 198.164, 436.116 200.978, 442.680 204.187 C 451.500 208.500, 451.500 208.500, 466 208.500 C 480.500 208.500, 480.500 208.500, 489.039 204.323 C 494.415 201.694, 499.630 198.175, 503.116 194.823 C 506.161 191.896, 510.331 186.971, 512.382 183.880 C 514.433 180.789, 517.231 174.948, 518.601 170.900 C 520.533 165.190, 521.088 161.517, 521.079 154.520 C 521.072 149.134, 520.410 143.284, 519.437 140 C 518.541 136.975, 516.241 131.503, 514.327 127.840 C 512.112 123.602, 508.363 118.783, 504.014 114.584 C 499.374 110.104, 494.806 106.860, 489.779 104.472 C 485.707 102.538, 479.703 100.519, 476.438 99.984 C 473.172 99.449, 468.025 99.061, 465 99.122 C 461.975 99.182, 458.600 99.419, 457.500 99.649" stroke="none" fill="#3474a4" fill-rule="evenodd"/><path d="M 412.750 287.748 C 420.587 287.917, 433.412 287.917, 441.250 287.748 C 449.087 287.579, 442.675 287.441, 427 287.441 C 411.325 287.441, 404.912 287.579, 412.750 287.748 M 596.750 288.745 C 601.837 288.927, 610.163 288.927, 615.250 288.745 C 620.337 288.564, 616.175 288.415, 606 288.415 C 595.825 288.415, 591.663 288.564, 596.750 288.745 M 993.952 329.750 C 993.926 332.913, 993.497 371.950, 992.998 416.500 C 992.499 461.050, 991.611 501.550, 991.024 506.500 C 990.437 511.450, 988.616 520.753, 986.977 527.174 C 985.338 533.595, 982.607 542.820, 980.907 547.674 C 979.207 552.528, 975.654 561, 973.011 566.500 C 970.368 572, 965.402 580.775, 961.976 586 C 958.551 591.225, 952.637 599.206, 948.835 603.737 C 945.033 608.267, 938.694 614.752, 934.748 618.148 C 930.802 621.544, 923.843 626.754, 919.284 629.726 C 914.725 632.698, 906.834 637.095, 901.748 639.498 C 896.661 641.901, 889.125 644.993, 885 646.368 C 880.875 647.743, 874.125 649.766, 870 650.864 C 865.875 651.961, 858.675 653.540, 854 654.372 C 849.325 655.205, 841.450 656.128, 836.500 656.425 C 831.550 656.722, 795.100 657.196, 755.500 657.479 C 715.900 657.762, 637.600 658.248, 581.500 658.558 C 483.511 659.100, 479.146 659.202, 470.500 661.164 C 465.550 662.288, 456.100 664.771, 449.500 666.684 C 442.900 668.596, 433.740 671.717, 429.145 673.619 C 424.550 675.521, 418.025 678.465, 414.645 680.160 C 411.265 681.856, 404.675 685.726, 400 688.761 C 395.325 691.795, 388.168 697.028, 384.096 700.389 C 380.024 703.750, 373.572 710.100, 369.757 714.500 C 365.943 718.900, 360.795 725.549, 358.318 729.275 C 355.840 733.002, 351.851 739.977, 349.454 744.775 C 347.056 749.574, 343.293 758.900, 341.090 765.500 C 338.888 772.100, 336.403 781.435, 335.567 786.245 C 334.731 791.054, 333.587 804.554, 333.025 816.245 C 332.423 828.744, 332.018 898.675, 332.040 986 C 332.079 1134.500, 332.079 1134.500, 335.878 1146 C 337.968 1152.325, 341.729 1161.550, 344.236 1166.500 C 346.744 1171.450, 351.606 1179.442, 355.042 1184.261 C 358.478 1189.079, 365.387 1197.079, 370.395 1202.038 C 375.403 1206.998, 383.918 1214.360, 389.317 1218.400 C 394.717 1222.439, 403.984 1228.496, 409.911 1231.860 C 415.837 1235.223, 425.369 1240.056, 431.093 1242.598 C 436.817 1245.141, 446.382 1248.974, 452.350 1251.117 C 458.317 1253.259, 469.792 1256.832, 477.850 1259.057 C 485.907 1261.283, 500.150 1264.624, 509.500 1266.482 C 518.850 1268.340, 531.675 1270.581, 538 1271.462 C 544.325 1272.343, 553.550 1273.506, 558.500 1274.047 C 563.450 1274.588, 576.500 1275.692, 587.500 1276.500 C 600.242 1277.437, 622.259 1277.976, 648.170 1277.985 C 670.539 1277.993, 695.739 1277.548, 704.170 1276.995 C 712.602 1276.443, 724.225 1275.522, 730 1274.949 C 735.775 1274.377, 746.125 1273.235, 753 1272.412 C 759.875 1271.590, 772.250 1269.774, 780.500 1268.377 C 788.750 1266.980, 801.125 1264.509, 808 1262.886 C 814.875 1261.263, 825.900 1258.322, 832.500 1256.351 C 839.100 1254.380, 849.643 1250.781, 855.929 1248.353 C 862.214 1245.925, 872.328 1241.440, 878.403 1238.386 C 884.479 1235.332, 893.061 1230.464, 897.475 1227.570 C 901.889 1224.675, 909.367 1218.907, 914.094 1214.753 C 918.821 1210.599, 925.739 1203.702, 929.467 1199.426 C 933.196 1195.151, 937.799 1189.227, 939.695 1186.262 C 941.592 1183.297, 944.467 1177.761, 946.085 1173.960 C 947.703 1170.159, 949.965 1163.100, 951.112 1158.274 C 953.153 1149.693, 953.191 1147.757, 952.849 1070.333 C 952.657 1026.791, 952.274 990.940, 951.997 990.664 C 951.721 990.388, 881.858 989.832, 796.747 989.428 C 642 988.696, 642 988.696, 642 967.848 C 642 947, 642 947, 762.750 946.920 C 829.163 946.877, 933.675 946.456, 995 945.985 C 1064.908 945.449, 1109.666 944.720, 1114.986 944.032 C 1119.654 943.429, 1128.879 941.131, 1135.486 938.927 C 1142.094 936.722, 1152.550 932.494, 1158.723 929.531 C 1164.896 926.568, 1174.346 921.211, 1179.723 917.625 C 1185.100 914.040, 1193.844 907.274, 1199.154 902.589 C 1204.463 897.904, 1212.497 889.668, 1217.006 884.286 C 1221.516 878.904, 1228.566 869.428, 1232.674 863.229 C 1236.782 857.029, 1243.212 845.779, 1246.963 838.229 C 1250.714 830.678, 1255.811 819.325, 1258.288 813 C 1260.766 806.675, 1264.164 797, 1265.839 791.500 C 1267.514 786, 1269.999 777, 1271.362 771.500 C 1272.725 766, 1274.755 756.775, 1275.873 751 C 1276.991 745.225, 1278.386 736.344, 1278.972 731.264 C 1279.646 725.419, 1280.030 691.089, 1280.017 637.764 C 1280 571.549, 1279.691 550.823, 1278.574 541 C 1277.792 534.125, 1275.972 522.650, 1274.531 515.500 C 1273.090 508.350, 1270.380 496.650, 1268.510 489.500 C 1266.640 482.350, 1263.350 471.325, 1261.199 465 C 1259.048 458.675, 1255.767 449.675, 1253.908 445 C 1252.049 440.325, 1247.776 431.078, 1244.413 424.450 C 1241.049 417.823, 1235.388 407.923, 1231.833 402.450 C 1228.277 396.978, 1221.701 387.947, 1217.219 382.382 C 1212.738 376.817, 1205.617 369.039, 1201.396 365.097 C 1197.175 361.154, 1189.847 355.016, 1185.111 351.455 C 1180.375 347.894, 1170.200 341.845, 1162.500 338.014 C 1154.121 333.844, 1143.759 329.632, 1136.692 327.524 C 1124.884 324, 1124.884 324, 1059.442 324 C 994 324, 994 324, 993.952 329.750 M 590.750 331.744 C 595.288 331.929, 602.712 331.929, 607.250 331.744 C 611.788 331.559, 608.075 331.407, 599 331.407 C 589.925 331.407, 586.212 331.559, 590.750 331.744 M 584.750 620.749 C 594.788 620.912, 611.213 620.912, 621.250 620.749 C 631.288 620.585, 623.075 620.452, 603 620.452 C 582.925 620.452, 574.712 620.585, 584.750 620.749 M 291.402 882 C 291.402 890.525, 291.556 894.013, 291.743 889.750 C 291.931 885.487, 291.931 878.513, 291.743 874.250 C 291.556 869.987, 291.402 873.475, 291.402 882 M 809.528 1069.009 C 806.794 1069.498, 802.600 1070.645, 800.209 1071.558 C 797.817 1072.471, 793.852 1074.341, 791.397 1075.713 C 788.942 1077.086, 784.508 1080.425, 781.545 1083.133 C 778.581 1085.842, 774.477 1090.587, 772.426 1093.677 C 770.375 1096.767, 767.565 1102.492, 766.181 1106.398 C 764.120 1112.215, 763.671 1115.309, 763.698 1123.500 C 763.725 1131.578, 764.219 1134.897, 766.272 1140.766 C 767.669 1144.763, 770.239 1150.256, 771.983 1152.973 C 773.727 1155.691, 778.015 1160.591, 781.513 1163.863 C 785.010 1167.135, 790.713 1171.196, 794.186 1172.889 C 797.659 1174.582, 803.425 1176.706, 807 1177.610 C 811.651 1178.786, 815.783 1179.093, 821.527 1178.691 C 826.163 1178.366, 832.339 1177.118, 836.147 1175.736 C 839.773 1174.420, 844.874 1172.092, 847.483 1170.563 C 850.092 1169.034, 854.888 1165.080, 858.140 1161.777 C 862.218 1157.636, 865.259 1153.245, 867.937 1147.635 C 870.072 1143.161, 872.310 1137.115, 872.910 1134.201 C 873.509 1131.286, 874 1126.367, 874 1123.269 C 874 1120.171, 873.051 1114.118, 871.890 1109.818 C 870.730 1105.518, 868.143 1099.296, 866.140 1095.990 C 864.138 1092.684, 860.298 1087.740, 857.607 1085.002 C 854.916 1082.265, 850.534 1078.626, 847.871 1076.917 C 845.207 1075.208, 839.984 1072.753, 836.264 1071.463 C 832.544 1070.173, 826.125 1068.893, 822 1068.619 C 817.875 1068.345, 812.263 1068.520, 809.528 1069.009" stroke="none" fill="#fcd444" fill-rule="evenodd"/></svg>