<?xml version="1.0" encoding="UTF-8" standalone="no"?>
<!-- Created with Inkscape (http://www.inkscape.org/) -->

<svg
   version="1.1"
   id="svg1"
   width="40"
   height="40"
   viewBox="0 0 512 313"
   sodipodi:docname="Tailwind_CSS_Logo.svg.png"
   xml:space="preserve"
   xmlns:inkscape="http://www.inkscape.org/namespaces/inkscape"
   xmlns:sodipodi="http://sodipodi.sourceforge.net/DTD/sodipodi-0.dtd"
   xmlns="http://www.w3.org/2000/svg"
   xmlns:svg="http://www.w3.org/2000/svg"><defs
     id="defs1" /><sodipodi:namedview
     id="namedview1"
     pagecolor="#ffffff"
     bordercolor="#000000"
     borderopacity="0.25"
     inkscape:showpageshadow="2"
     inkscape:pageopacity="0.0"
     inkscape:pagecheckerboard="0"
     inkscape:deskcolor="#d1d1d1" /><g
     id="g1"
     transform="translate(-4.2404683,-1.5901722)"><path
       style="fill:#9ee7fb"
       d="m 187.40166,302.35307 c 0.21121,-0.0845 0.46357,-0.0741 0.56079,0.0231 0.0972,0.0972 -0.0756,0.16634 -0.38402,0.15364 -0.34085,-0.014 -0.41018,-0.0833 -0.17677,-0.17673 z m 12.28869,0 c 0.21121,-0.0845 0.46357,-0.0741 0.56079,0.0231 0.0972,0.0972 -0.0756,0.16634 -0.38402,0.15364 -0.34085,-0.014 -0.41018,-0.0833 -0.17677,-0.17673 z m 118.18719,0.006 c 0.20115,-0.0811 0.53031,-0.0811 0.73147,0 0.20115,0.0812 0.0366,0.14754 -0.36574,0.14754 -0.40231,0 -0.56689,-0.0664 -0.36573,-0.14754 z m 12.59956,-0.006 c 0.21121,-0.0845 0.46357,-0.0741 0.56079,0.0231 0.0972,0.0972 -0.0756,0.16634 -0.38402,0.15364 -0.34085,-0.014 -0.41018,-0.0833 -0.17677,-0.17673 z m -129.03123,-0.29252 c 0.21122,-0.0845 0.46357,-0.0741 0.5608,0.0231 0.0972,0.0972 -0.0756,0.16634 -0.38402,0.15364 -0.34085,-0.014 -0.41018,-0.0833 -0.17678,-0.17673 z m 114.98701,0 c 0.21122,-0.0845 0.46357,-0.0741 0.5608,0.0231 0.0972,0.0972 -0.0756,0.16634 -0.38402,0.15364 -0.34085,-0.014 -0.41018,-0.0833 -0.17678,-0.17673 z m -143.93566,-6.45499 c -0.36394,-0.46395 -0.35359,-0.4743 0.11047,-0.11044 0.28161,0.2208 0.51203,0.45116 0.51203,0.51191 0,0.24075 -0.24027,0.0858 -0.6225,-0.40147 z m 172.66413,0.40147 c 0,-0.0607 0.23041,-0.29111 0.51203,-0.51191 0.46406,-0.36386 0.47441,-0.35351 0.11047,0.11044 -0.38223,0.48726 -0.6225,0.64222 -0.6225,0.40147 z m -176.76036,-4.49674 c -0.36394,-0.46395 -0.35359,-0.4743 0.11047,-0.11044 0.28161,0.2208 0.51203,0.45116 0.51203,0.51191 0,0.24075 -0.24027,0.0858 -0.6225,-0.40147 z m 180.85659,0.40147 c 0,-0.0608 0.23041,-0.29111 0.51203,-0.51191 0.46406,-0.36386 0.47441,-0.35351 0.11047,0.11044 -0.38223,0.48726 -0.6225,0.64222 -0.6225,0.40147 z m -156.46133,-3.31679 c 0.44254,-0.067 1.16669,-0.067 1.60923,0 0.44254,0.067 0.0805,0.12186 -0.80462,0.12186 -0.88507,0 -1.24715,-0.0548 -0.80461,-0.12186 z m 131.07934,0 c 0.44254,-0.067 1.16669,-0.067 1.60923,0 0.44254,0.067 0.0805,0.12186 -0.80462,0.12186 -0.88508,0 -1.24715,-0.0548 -0.80461,-0.12186 z m -133.84064,-0.28283 c 0.21121,-0.0845 0.46357,-0.0741 0.56079,0.0231 0.0972,0.0972 -0.0756,0.16633 -0.38402,0.15363 -0.34085,-0.014 -0.41018,-0.0833 -0.17677,-0.17673 z m 7.00382,0.006 c 0.20115,-0.0811 0.53032,-0.0811 0.73147,0 0.20115,0.0811 0.0366,0.14754 -0.36573,0.14754 -0.40231,0 -0.56689,-0.0664 -0.36574,-0.14754 z m 123.47206,0 c 0.20115,-0.0811 0.53031,-0.0811 0.73147,0 0.20115,0.0811 0.0366,0.14754 -0.36574,0.14754 -0.40231,0 -0.56689,-0.0664 -0.36573,-0.14754 z m 7.33298,-0.006 c 0.21121,-0.0845 0.46357,-0.0741 0.56079,0.0231 0.0972,0.0972 -0.0756,0.16633 -0.38402,0.15363 -0.34085,-0.014 -0.41018,-0.0833 -0.17677,-0.17673 z m -128.73864,-0.29252 c 0.21121,-0.0845 0.46357,-0.0741 0.5608,0.0231 0.0972,0.0972 -0.0756,0.16633 -0.38403,0.15363 -0.34084,-0.014 -0.41017,-0.0833 -0.17677,-0.17673 z m 119.66842,0 c 0.21121,-0.0845 0.46357,-0.0741 0.56079,0.0231 0.0972,0.0972 -0.0756,0.16633 -0.38402,0.15363 -0.34085,-0.014 -0.41018,-0.0833 -0.17677,-0.17673 z m -78.06609,-5.46848 c 0,-0.0607 0.23041,-0.2911 0.51203,-0.51191 0.46406,-0.36386 0.47441,-0.35351 0.11047,0.11044 -0.38223,0.48726 -0.6225,0.64222 -0.6225,0.40147 z m 36.24357,-0.40147 c -0.36394,-0.46395 -0.35359,-0.4743 0.11047,-0.11044 0.28161,0.22081 0.51203,0.45116 0.51203,0.51191 0,0.24075 -0.24027,0.0858 -0.6225,-0.40147 z m -98.01692,-0.29252 c -0.36394,-0.46395 -0.35359,-0.4743 0.11047,-0.11044 0.28162,0.22081 0.51203,0.45117 0.51203,0.51191 0,0.24075 -0.24027,0.0858 -0.6225,-0.40147 z m 159.79027,0.40147 c 0,-0.0607 0.23041,-0.2911 0.51203,-0.51191 0.46406,-0.36386 0.47441,-0.35351 0.11046,0.11044 -0.38222,0.48727 -0.62249,0.64222 -0.62249,0.40147 z m -95.38363,-1.75512 c 0,-0.0607 0.23041,-0.2911 0.51203,-0.51191 0.46406,-0.36385 0.47441,-0.35351 0.11047,0.11045 -0.38223,0.48726 -0.6225,0.64222 -0.6225,0.40146 z m 1.46294,-1.17007 c 0,-0.0608 0.23041,-0.29111 0.51203,-0.51191 0.46406,-0.36386 0.47441,-0.35351 0.11047,0.11044 -0.38223,0.48726 -0.6225,0.64222 -0.6225,0.40147 z m 27.91434,-0.54773 -0.55738,-0.65817 0.65832,0.55725 c 0.61866,0.52367 0.79152,0.75909 0.55738,0.75909 -0.0555,0 -0.35177,-0.29618 -0.65832,-0.65817 z m -26.15881,-0.91487 c 0,-0.0607 0.23041,-0.2911 0.51203,-0.51191 0.46406,-0.36386 0.47441,-0.35351 0.11046,0.11044 -0.38222,0.48727 -0.62249,0.64222 -0.62249,0.40147 z m 24.40328,-0.54773 -0.55738,-0.65817 0.65833,0.55725 c 0.61866,0.52367 0.79152,0.75909 0.55737,0.75909 -0.0555,0 -0.35176,-0.29617 -0.65832,-0.65817 z m -22.35517,-1.20739 c 0,-0.0607 0.23042,-0.2911 0.51203,-0.51191 0.46406,-0.36385 0.47441,-0.3535 0.11047,0.11045 -0.38223,0.48726 -0.6225,0.64222 -0.6225,0.40146 z m 20.44383,-0.40146 c -0.36394,-0.46395 -0.35359,-0.4743 0.11047,-0.11045 0.28161,0.22081 0.51202,0.45117 0.51202,0.51191 0,0.24076 -0.24026,0.0858 -0.62249,-0.40146 z m -17.81054,-1.97451 c 0.37795,-0.40221 0.75301,-0.7313 0.83348,-0.7313 0.0805,0 -0.16294,0.32909 -0.54089,0.7313 -0.37795,0.40222 -0.75301,0.7313 -0.83347,0.7313 -0.0805,0 0.16293,-0.32908 0.54088,-0.7313 z m 15.19242,-0.36565 -0.70932,-0.80443 0.80462,0.70916 c 0.44253,0.39004 0.80461,0.75203 0.80461,0.80443 0,0.22942 -0.23694,0.0427 -0.89991,-0.70916 z m -11.82766,-2.7058 c 0.62855,-0.64354 1.20865,-1.17008 1.28911,-1.17008 0.0805,0 -0.36797,0.52654 -0.99652,1.17008 -0.62855,0.64354 -1.20865,1.17008 -1.28911,1.17008 -0.0805,0 0.36797,-0.52654 0.99652,-1.17008 z m 8.76387,-0.0731 -1.15658,-1.24321 1.24349,1.15632 c 1.15644,1.07536 1.37795,1.3301 1.15659,1.3301 -0.0478,0 -0.60738,-0.55945 -1.2435,-1.24321 z m -104.56328,-1.85262 c 0.014,-0.34077 0.0834,-0.41009 0.17678,-0.17673 0.0845,0.21116 0.0741,0.46346 -0.0231,0.56066 -0.0972,0.0972 -0.16638,-0.0756 -0.15368,-0.38393 z m 200.42265,0 c 0.014,-0.34077 0.0834,-0.41009 0.17678,-0.17673 0.0845,0.21116 0.0741,0.46346 -0.0231,0.56066 -0.0972,0.0972 -0.16638,-0.0756 -0.15368,-0.38393 z m -124.08033,0.0602 c 0,-0.0607 0.23042,-0.2911 0.51203,-0.51191 0.46406,-0.36385 0.47441,-0.35351 0.11047,0.11044 -0.38223,0.48727 -0.6225,0.64222 -0.6225,0.40147 z m -62.00551,-0.93775 c 0.014,-0.34077 0.0834,-0.41008 0.17677,-0.17673 0.0845,0.21116 0.0741,0.46346 -0.0231,0.56066 -0.0972,0.0972 -0.16638,-0.0756 -0.15367,-0.38393 z m 171.74904,0 c 0.014,-0.34077 0.0834,-0.41008 0.17677,-0.17673 0.0845,0.21116 0.0741,0.46346 -0.0231,0.56066 -0.0972,0.0972 -0.16637,-0.0756 -0.15367,-0.38393 z m -86.41081,-0.70849 c 0.64505,-0.69805 0.66662,-0.70084 1.17035,-0.15143 0.48964,0.53404 0.48944,0.54183 -0.004,0.16974 -0.44058,-0.33203 -0.61456,-0.30952 -1.17035,0.15142 l -0.65283,0.54142 z m -99.94453,-0.29095 c 0,-0.40222 0.0664,-0.56676 0.14758,-0.36565 0.0812,0.20111 0.0812,0.53019 0,0.7313 -0.0812,0.2011 -0.14758,0.0366 -0.14758,-0.36565 z m 78.36734,0.4746 c 0,-0.0608 0.23041,-0.29111 0.51203,-0.51191 0.46406,-0.36386 0.47441,-0.35351 0.11047,0.11044 -0.38223,0.48726 -0.6225,0.64222 -0.6225,0.40147 z m 43.85085,-0.40147 c -0.36394,-0.46395 -0.35359,-0.4743 0.11047,-0.11044 0.28161,0.2208 0.51203,0.45116 0.51203,0.51191 0,0.24075 -0.24027,0.0858 -0.6225,-0.40147 z m 78.78964,-0.0731 c 0,-0.40222 0.0664,-0.56676 0.14758,-0.36565 0.0812,0.20111 0.0812,0.53019 0,0.7313 -0.0812,0.2011 -0.14758,0.0366 -0.14758,-0.36565 z M 172.87333,266.2805 c 0,-0.40221 0.0664,-0.56676 0.14757,-0.36565 0.0812,0.20111 0.0812,0.53019 0,0.7313 -0.0812,0.20111 -0.14757,0.0366 -0.14757,-0.36565 z m 172.31112,-0.17064 c 0.014,-0.34076 0.0834,-0.41008 0.17677,-0.17673 0.0845,0.21117 0.0741,0.46346 -0.0231,0.56067 -0.0972,0.0972 -0.16638,-0.0756 -0.15367,-0.38394 z m -106.08618,-0.70692 c 0.29127,-0.32177 0.59541,-0.58504 0.67587,-0.58504 0.0805,0 -0.092,0.26327 -0.38328,0.58504 -0.29127,0.32177 -0.59541,0.58504 -0.67587,0.58504 -0.0805,0 0.092,-0.26327 0.38328,-0.58504 z m 39.76414,-0.0731 -0.55737,-0.65817 0.65832,0.55725 c 0.61866,0.52367 0.79152,0.75909 0.55737,0.75909 -0.0555,0 -0.35176,-0.29617 -0.65832,-0.65817 z m -120.60763,-0.65817 c 0.006,-0.48265 0.0715,-0.64469 0.14572,-0.36008 0.0742,0.28461 0.0693,0.67951 -0.0108,0.87756 -0.0802,0.19805 -0.14084,-0.0348 -0.13488,-0.51748 z m 201.58216,-0.14626 c 0,-0.40221 0.0664,-0.56675 0.14758,-0.36564 0.0812,0.2011 0.0812,0.53019 0,0.73129 -0.0812,0.20111 -0.14758,0.0366 -0.14758,-0.36565 z m -187.2793,-0.17063 c 0.014,-0.34077 0.0834,-0.41008 0.17677,-0.17673 0.0845,0.21116 0.0741,0.46346 -0.0231,0.56066 -0.0972,0.0972 -0.16637,-0.0756 -0.15367,-0.38393 z m 172.9425,-0.12188 c 0,-0.40222 0.0664,-0.56676 0.14757,-0.36565 0.0812,0.2011 0.0812,0.53019 0,0.73129 -0.0812,0.20111 -0.14757,0.0366 -0.14757,-0.36564 z m -104.20746,-0.7313 c 0.37795,-0.40222 0.75301,-0.7313 0.83347,-0.7313 0.0805,0 -0.16294,0.32908 -0.54089,0.7313 -0.37794,0.40221 -0.75301,0.7313 -0.83347,0.7313 -0.0805,0 0.16294,-0.32909 0.54089,-0.7313 z m 35.08839,-0.36565 -0.70933,-0.80443 0.80462,0.70916 c 0.44254,0.39004 0.80462,0.75203 0.80462,0.80443 0,0.22941 -0.23694,0.0427 -0.89991,-0.70916 z m -118.40213,-1.38947 c 0.003,-0.64354 0.0632,-0.87237 0.13315,-0.5085 0.07,0.36387 0.0673,0.89041 -0.006,1.17008 -0.0732,0.27967 -0.13049,-0.018 -0.12724,-0.66158 z m 14.30921,0.14626 c 0,-0.40221 0.0664,-0.56676 0.14758,-0.36565 0.0812,0.20111 0.0812,0.53019 0,0.7313 -0.0812,0.20111 -0.14758,0.0366 -0.14758,-0.36565 z m 173.51542,-0.14626 c 0.006,-0.48266 0.0715,-0.64469 0.14572,-0.36008 0.0742,0.28461 0.0693,0.67951 -0.0109,0.87756 -0.0801,0.19804 -0.14084,-0.0348 -0.13487,-0.51748 z m 14.34764,-0.14626 c 0,-0.5631 0.0602,-0.79346 0.13381,-0.51191 0.0736,0.28155 0.0736,0.74227 0,1.02382 -0.0736,0.28155 -0.13381,0.0512 -0.13381,-0.51191 z m -115.93265,-0.7313 c 0.5459,-0.5631 1.05838,-1.02381 1.13884,-1.02381 0.0805,0 -0.30035,0.46071 -0.84626,1.02381 -0.5459,0.5631 -1.05838,1.02382 -1.13885,1.02382 -0.0805,0 0.30036,-0.46072 0.84627,-1.02382 z m 29.24303,-0.36565 -1.00831,-1.09694 1.0972,1.00807 c 0.60347,0.55444 1.09721,1.04806 1.09721,1.09694 0,0.22338 -0.2476,0.013 -1.1861,-1.00807 z m -101.42156,-2.85206 c 0.002,-0.96531 0.0563,-1.32495 0.12138,-0.79919 0.0651,0.52576 0.0638,1.31556 -0.003,1.75512 -0.0668,0.43955 -0.12004,0.009 -0.1184,-0.95593 z m 174.09273,-0.14626 c 0,-1.04575 0.0531,-1.47356 0.11801,-0.95069 0.0649,0.52288 0.0649,1.3785 0,1.90138 -0.0649,0.52288 -0.11801,0.0951 -0.11801,-0.95069 z m -188.39931,-4.24153 c 3.1e-4,-2.89594 0.0441,-4.04108 0.0973,-2.54475 0.0532,1.49633 0.053,3.86574 -5.6e-4,5.26535 -0.0535,1.39961 -0.097,0.17534 -0.0967,-2.7206 z m 202.76219,0 c -3.4e-4,-2.73505 0.0436,-3.89331 0.0977,-2.5739 0.0541,1.3194 0.0544,3.55717 6.1e-4,4.97282 -0.0537,1.41565 -0.098,0.33614 -0.0983,-2.39892 z m -112.2151,3.89754 c 0.4107,-0.47227 0.59351,-0.93641 0.46086,-1.17008 -0.17796,-0.31347 -0.144,-0.31684 0.17814,-0.0177 0.33164,0.30799 0.25478,0.50314 -0.46085,1.17008 l -0.85887,0.80044 z m 21.38951,-0.0987 c -0.57024,-0.60686 -0.62272,-0.79832 -0.30066,-1.09695 0.31202,-0.28932 0.34612,-0.28421 0.17028,0.0255 -0.13335,0.23489 0.0425,0.66656 0.44696,1.09695 0.36676,0.3903 0.601,0.70964 0.52054,0.70964 -0.0805,0 -0.45716,-0.33083 -0.83712,-0.73517 z m -23.41913,-3.87201 -1.00831,-1.09695 1.09721,1.00807 c 1.02125,0.93829 1.23173,1.18583 1.0083,1.18583 -0.0489,0 -0.54263,-0.49363 -1.0972,-1.09695 z m 25.47089,0.0731 c 0.5459,-0.5631 1.05839,-1.02382 1.13885,-1.02382 0.0805,0 -0.30036,0.46072 -0.84626,1.02382 -0.54591,0.5631 -1.05839,1.02382 -1.13885,1.02382 -0.0805,0 0.30035,-0.46072 0.84626,-1.02382 z m -27.67735,-2.55954 -0.55737,-0.65817 0.65832,0.55725 c 0.61866,0.52367 0.79152,0.75909 0.55737,0.75909 -0.0555,0 -0.35176,-0.29618 -0.65832,-0.65817 z m 29.87176,0.0731 c 0.29127,-0.32177 0.59541,-0.58504 0.67587,-0.58504 0.0805,0 -0.092,0.26327 -0.38328,0.58504 -0.29127,0.32177 -0.59541,0.58504 -0.67587,0.58504 -0.0805,0 0.092,-0.26327 0.38328,-0.58504 z m 72.21654,-1.75512 c 0,-1.04575 0.0531,-1.47356 0.11801,-0.95069 0.0649,0.52288 0.0649,1.3785 0,1.90138 -0.0649,0.52288 -0.11801,0.0951 -0.11801,-0.95069 z M 172.04003,248.8756 c 0.002,-0.96531 0.0563,-1.32495 0.12138,-0.79919 0.0651,0.52576 0.0638,1.31556 -0.003,1.75512 -0.0668,0.43955 -0.12004,0.009 -0.1184,-0.95593 z m 69.95632,-0.51191 -0.55738,-0.65816 0.65832,0.55724 c 0.61866,0.52367 0.79152,0.75909 0.55738,0.75909 -0.0555,0 -0.35177,-0.29617 -0.65832,-0.65817 z m 33.96798,0.0731 c 0.29127,-0.32177 0.59541,-0.58503 0.67587,-0.58503 0.0805,0 -0.092,0.26326 -0.38328,0.58503 -0.29127,0.32177 -0.59541,0.58504 -0.67587,0.58504 -0.0805,0 0.092,-0.26327 0.38328,-0.58504 z m -35.72351,-2.12076 -0.55738,-0.65817 0.65833,0.55725 c 0.36207,0.30648 0.65832,0.60266 0.65832,0.65816 0,0.23409 -0.23547,0.0613 -0.75927,-0.55724 z m 37.33275,0.25521 c 0,-0.0607 0.23041,-0.29111 0.51202,-0.51191 0.46406,-0.36386 0.47441,-0.35351 0.11047,0.11044 -0.38223,0.48726 -0.62249,0.64222 -0.62249,0.40147 z m -119.59463,-2.08346 c 0.003,-0.64354 0.0632,-0.87236 0.13315,-0.50849 0.07,0.36386 0.0673,0.8904 -0.006,1.17007 -0.0732,0.27968 -0.13049,-0.018 -0.12724,-0.66158 z m 202.17817,0 c 0.003,-0.64354 0.0632,-0.87236 0.13315,-0.50849 0.07,0.36386 0.0673,0.8904 -0.006,1.17007 -0.0732,0.27968 -0.13049,-0.018 -0.12725,-0.66158 z m -121.37923,0.0731 -0.55738,-0.65817 0.65833,0.55725 c 0.61866,0.52367 0.79152,0.75909 0.55737,0.75909 -0.0555,0 -0.35176,-0.29617 -0.65832,-0.65817 z m -66.46805,-0.51191 c 0,-0.5631 0.0602,-0.79345 0.13381,-0.5119 0.0736,0.28155 0.0736,0.74226 0,1.02381 -0.0736,0.28155 -0.13381,0.0512 -0.13381,-0.51191 z m 106.72667,0.76712 c 0,-0.0607 0.23042,-0.2911 0.51203,-0.51191 0.46406,-0.36385 0.47441,-0.35351 0.11047,0.11044 -0.38223,0.48727 -0.6225,0.64222 -0.6225,0.40147 z m 66.77791,-0.76712 c 0,-0.5631 0.0602,-0.79345 0.1338,-0.5119 0.0736,0.28155 0.0736,0.74226 0,1.02381 -0.0736,0.28155 -0.1338,0.0512 -0.1338,-0.51191 z m -89.17928,-0.65816 -0.85936,-0.95069 0.95091,0.85915 c 0.88639,0.80086 1.0854,1.04222 0.85936,1.04222 -0.0504,0 -0.47826,-0.42781 -0.95091,-0.95068 z m 4.84611,-0.0731 c 0.37794,-0.40222 0.75301,-0.7313 0.83347,-0.7313 0.0805,0 -0.16294,0.32908 -0.54089,0.7313 -0.37795,0.40221 -0.75301,0.73129 -0.83347,0.73129 -0.0805,0 0.16294,-0.32908 0.54089,-0.73129 z m -24.1663,-0.51191 -0.55737,-0.65817 0.65832,0.55724 c 0.61866,0.52368 0.79152,0.7591 0.55737,0.7591 -0.0555,0 -0.35176,-0.29618 -0.65832,-0.65817 z m 43.1845,0.2552 c 0,-0.0607 0.23042,-0.2911 0.51203,-0.5119 0.46406,-0.36386 0.47441,-0.35351 0.11047,0.11044 -0.38223,0.48726 -0.6225,0.64222 -0.6225,0.40146 z m -122.24466,-2.08345 c 0.006,-0.48266 0.0715,-0.64469 0.14572,-0.36008 0.0742,0.28461 0.0693,0.67951 -0.0108,0.87756 -0.0802,0.19804 -0.14084,-0.0348 -0.13488,-0.51748 z m 14.3368,0 c 0.006,-0.48266 0.0715,-0.64469 0.14572,-0.36008 0.0742,0.28461 0.0693,0.67951 -0.0108,0.87756 -0.0802,0.19804 -0.14084,-0.0348 -0.13488,-0.51748 z m 109.07821,0.62086 c 0,-0.0608 0.23042,-0.2911 0.51203,-0.51191 0.46406,-0.36386 0.47441,-0.35351 0.11047,0.11044 -0.38223,0.48726 -0.6225,0.64222 -0.6225,0.40147 z m 63.84119,-0.62086 c 0.006,-0.48266 0.0715,-0.64469 0.14572,-0.36008 0.0742,0.28461 0.0693,0.67951 -0.0108,0.87756 -0.0802,0.19804 -0.14085,-0.0348 -0.13488,-0.51748 z m 14.3368,0 c 0.006,-0.48266 0.0715,-0.64469 0.14572,-0.36008 0.0742,0.28461 0.0693,0.67951 -0.0108,0.87756 -0.0802,0.19804 -0.14084,-0.0348 -0.13488,-0.51748 z m -105.56274,-0.21939 -0.55738,-0.65817 0.65832,0.55725 c 0.36208,0.30648 0.65832,0.60266 0.65832,0.65817 0,0.23409 -0.23547,0.0613 -0.75926,-0.55725 z m 9.3906,0.0731 c 0.29127,-0.32177 0.59541,-0.58504 0.67588,-0.58504 0.0805,0 -0.092,0.26327 -0.38329,0.58504 -0.29126,0.32177 -0.59541,0.58504 -0.67587,0.58504 -0.0805,0 0.092,-0.26327 0.38328,-0.58504 z m -28.85722,-1.09695 c -0.36394,-0.46395 -0.35359,-0.47429 0.11047,-0.11044 0.28162,0.22081 0.51203,0.45117 0.51203,0.51191 0,0.24075 -0.24027,0.0858 -0.6225,-0.40147 z m 17.57045,-1.17007 -0.70933,-0.80443 0.80462,0.70916 c 0.44254,0.39004 0.80462,0.75203 0.80462,0.80443 0,0.22941 -0.23694,0.0427 -0.89991,-0.70916 z m -79.5047,-0.21939 c 0.006,-0.48266 0.0715,-0.6447 0.14572,-0.36008 0.0742,0.28461 0.0693,0.67951 -0.0108,0.87755 -0.0802,0.19805 -0.14084,-0.0348 -0.13488,-0.51747 z m 92.83959,0.14626 c 0.29127,-0.32177 0.59541,-0.58504 0.67587,-0.58504 0.0805,0 -0.092,0.26327 -0.38328,0.58504 -0.29127,0.32177 -0.59541,0.58504 -0.67587,0.58504 -0.0805,0 0.092,-0.26327 0.38328,-0.58504 z m 79.48379,0 c 0,-0.40222 0.0664,-0.56676 0.14758,-0.36565 0.0812,0.20111 0.0812,0.53019 0,0.7313 -0.0812,0.2011 -0.14758,0.0366 -0.14758,-0.36565 z m -186.67103,-0.29252 c 0,-0.40222 0.0664,-0.56676 0.14758,-0.36565 0.0812,0.20111 0.0812,0.53019 0,0.7313 -0.0812,0.2011 -0.14758,0.0366 -0.14758,-0.36565 z m 75.11155,0.0731 c -0.36394,-0.46395 -0.35359,-0.4743 0.11047,-0.11044 0.28162,0.2208 0.51203,0.45116 0.51203,0.5119 0,0.24076 -0.24027,0.0858 -0.6225,-0.40146 z m 125.89628,-0.0731 c 0,-0.40222 0.0664,-0.56676 0.14758,-0.36565 0.0812,0.20111 0.0812,0.53019 0,0.7313 -0.0812,0.2011 -0.14758,0.0366 -0.14758,-0.36565 z m -127.06663,-1.38947 c -0.36394,-0.46395 -0.35359,-0.4743 0.11047,-0.11044 0.48738,0.38214 0.64237,0.62235 0.40156,0.62235 -0.0608,0 -0.29117,-0.23036 -0.51203,-0.51191 z m 52.70313,0.40147 c 0,-0.0607 0.23041,-0.2911 0.51203,-0.51191 0.46406,-0.36386 0.47441,-0.35351 0.11047,0.11044 -0.38223,0.48727 -0.6225,0.64222 -0.6225,0.40147 z m -34.56268,-0.69399 c -0.36395,-0.46395 -0.3536,-0.4743 0.11046,-0.11044 0.28162,0.22081 0.51203,0.45117 0.51203,0.51191 0,0.24075 -0.24027,0.0858 -0.62249,-0.40147 z m 16.42223,0.40147 c 0,-0.0607 0.23042,-0.2911 0.51203,-0.51191 0.46406,-0.36386 0.47441,-0.35351 0.11047,0.11044 -0.38223,0.48727 -0.6225,0.64222 -0.6225,0.40147 z m -93.87448,-0.76712 c 0,-0.40221 0.0664,-0.56675 0.14757,-0.36565 0.0812,0.20111 0.0812,0.5302 0,0.7313 -0.0812,0.20111 -0.14757,0.0366 -0.14757,-0.36565 z m 171.74904,0 c 0,-0.40221 0.0664,-0.56675 0.14758,-0.36565 0.0812,0.20111 0.0812,0.5302 0,0.7313 -0.0812,0.20111 -0.14758,0.0366 -0.14758,-0.36565 z M 158.80601,235.6878 c 0.014,-0.34077 0.0834,-0.41008 0.17678,-0.17673 0.0845,0.21116 0.0741,0.46346 -0.0231,0.56066 -0.0972,0.0972 -0.16638,-0.0756 -0.15368,-0.38393 z m 200.42265,0 c 0.014,-0.34077 0.0834,-0.41008 0.17678,-0.17673 0.0845,0.21116 0.0741,0.46346 -0.0231,0.56066 -0.0972,0.0972 -0.16638,-0.0756 -0.15368,-0.38393 z m -127.92129,-0.34127 c -0.36394,-0.46396 -0.35359,-0.4743 0.11047,-0.11045 0.48738,0.38214 0.64237,0.62235 0.40156,0.62235 -0.0608,0 -0.29117,-0.23035 -0.51203,-0.5119 z m 55.04383,0.40146 c 0,-0.0607 0.23041,-0.2911 0.51203,-0.51191 0.46406,-0.36385 0.47441,-0.35351 0.11047,0.11045 -0.38223,0.48726 -0.6225,0.64222 -0.6225,0.40146 z m -37.19597,-0.9865 c -0.36394,-0.46395 -0.3536,-0.4743 0.11046,-0.11045 0.28162,0.22081 0.51203,0.45117 0.51203,0.51191 0,0.24076 -0.24027,0.0858 -0.62249,-0.40146 z m 19.34811,0.40146 c 0,-0.0607 0.23042,-0.2911 0.51203,-0.51191 0.46406,-0.36385 0.47441,-0.3535 0.11047,0.11045 -0.38223,0.48726 -0.6225,0.64222 -0.6225,0.40146 z m -95.04484,-1.05963 c 0,-0.40222 0.0664,-0.56676 0.14758,-0.36565 0.0812,0.20111 0.0812,0.53019 0,0.7313 -0.0812,0.2011 -0.14758,0.0366 -0.14758,-0.36565 z m 171.16387,0 c 0,-0.40222 0.0664,-0.56676 0.14758,-0.36565 0.0812,0.20111 0.0812,0.53019 0,0.7313 -0.0812,0.2011 -0.14758,0.0366 -0.14758,-0.36565 z M 159.1217,233.51834 c 0,-0.40221 0.0664,-0.56676 0.14758,-0.36565 0.0812,0.20111 0.0812,0.53019 0,0.7313 -0.0812,0.20111 -0.14758,0.0366 -0.14758,-0.36565 z m 199.83748,0 c 0,-0.40221 0.0664,-0.56676 0.14757,-0.36565 0.0812,0.20111 0.0812,0.53019 0,0.7313 -0.0812,0.20111 -0.14757,0.0366 -0.14757,-0.36565 z m -111.26689,-0.51191 c -0.36394,-0.46395 -0.35359,-0.4743 0.11047,-0.11044 0.28161,0.22081 0.51202,0.45116 0.51202,0.51191 0,0.24075 -0.24026,0.0858 -0.62249,-0.40147 z m 22.27399,0.40147 c 0,-0.0608 0.23042,-0.2911 0.51203,-0.51191 0.46406,-0.36386 0.47441,-0.35351 0.11047,0.11044 -0.38223,0.48726 -0.6225,0.64222 -0.6225,0.40147 z m -96.23829,-1.23027 c 0.014,-0.34077 0.0834,-0.41009 0.17677,-0.17673 0.0845,0.21116 0.0741,0.46346 -0.0231,0.56066 -0.0972,0.0972 -0.16637,-0.0756 -0.15367,-0.38393 z m 170.5787,0 c 0.014,-0.34077 0.0834,-0.41009 0.17677,-0.17673 0.0845,0.21116 0.0741,0.46346 -0.0231,0.56066 -0.0972,0.0972 -0.16638,-0.0756 -0.15367,-0.38393 z m -184.9155,-0.58504 c 0.014,-0.34077 0.0834,-0.41008 0.17677,-0.17673 0.0845,0.21116 0.0741,0.46346 -0.0231,0.56066 -0.0972,0.0972 -0.16638,-0.0756 -0.15367,-0.38393 z m 87.13075,-0.0488 c -0.36394,-0.46395 -0.3536,-0.47429 0.11046,-0.11044 0.28162,0.22081 0.51203,0.45117 0.51203,0.51191 0,0.24075 -0.24027,0.0858 -0.62249,-0.40147 z m 24.61469,0.40147 c 0,-0.0607 0.23042,-0.2911 0.51203,-0.51191 0.46406,-0.36385 0.47441,-0.35351 0.11047,0.11044 -0.38223,0.48727 -0.6225,0.64222 -0.6225,0.40147 z m 87.50686,-0.35271 c 0.014,-0.34077 0.0834,-0.41008 0.17677,-0.17673 0.0845,0.21116 0.0741,0.46346 -0.0231,0.56066 -0.0972,0.0972 -0.16638,-0.0756 -0.15367,-0.38393 z m -184.62291,-1.17008 c 0.014,-0.34077 0.0834,-0.41008 0.17677,-0.17673 0.0845,0.21116 0.0741,0.46346 -0.0231,0.56066 -0.0972,0.0972 -0.16637,-0.0756 -0.15367,-0.38393 z m 53.48315,-0.0487 c -0.36394,-0.46395 -0.35359,-0.4743 0.11047,-0.11044 0.48737,0.38213 0.64237,0.62235 0.40156,0.62235 -0.0608,0 -0.29117,-0.23036 -0.51203,-0.51191 z m 116.51037,0.0487 c 0.014,-0.34077 0.0834,-0.41008 0.17677,-0.17673 0.0845,0.21116 0.0741,0.46346 -0.0231,0.56066 -0.0972,0.0972 -0.16638,-0.0756 -0.15367,-0.38393 z m -98.66251,-0.34127 c -0.36395,-0.46395 -0.3536,-0.4743 0.11046,-0.11044 0.28162,0.2208 0.51203,0.45116 0.51203,0.5119 0,0.24076 -0.24027,0.0858 -0.62249,-0.40146 z m 26.95539,0.40146 c 0,-0.0607 0.23042,-0.2911 0.51203,-0.5119 0.46406,-0.36386 0.47441,-0.35351 0.11047,0.11044 -0.38223,0.48726 -0.6225,0.64222 -0.6225,0.40146 z m -112.6232,-0.93775 c 0.014,-0.34077 0.0834,-0.41008 0.17677,-0.17673 0.0845,0.21116 0.0741,0.46346 -0.0231,0.56066 -0.0972,0.0972 -0.16638,-0.0756 -0.15367,-0.38393 z m 198.66712,0 c 0.014,-0.34077 0.0834,-0.41008 0.17677,-0.17673 0.0845,0.21116 0.0741,0.46346 -0.0231,0.56066 -0.0972,0.0972 -0.16637,-0.0756 -0.15367,-0.38393 z M 244.18123,228.6186 c -0.36394,-0.46395 -0.35359,-0.4743 0.11047,-0.11044 0.28162,0.22081 0.51203,0.45117 0.51203,0.51191 0,0.24075 -0.24027,0.0858 -0.6225,-0.40147 z m 29.29611,0.40147 c 0,-0.0607 0.23041,-0.2911 0.51202,-0.51191 0.46407,-0.36386 0.47441,-0.35351 0.11047,0.11044 -0.38222,0.48727 -0.62249,0.64222 -0.62249,0.40147 z M 159.97636,227.7898 c 0.014,-0.34077 0.0834,-0.41009 0.17678,-0.17673 0.0845,0.21116 0.0741,0.46346 -0.0231,0.56066 -0.0972,0.0972 -0.16638,-0.0756 -0.15368,-0.38393 z m 14.6294,-0.58504 c 0.014,-0.34077 0.0834,-0.41008 0.17677,-0.17673 0.0845,0.21116 0.0741,0.46346 -0.0231,0.56066 -0.0972,0.0972 -0.16638,-0.0756 -0.15367,-0.38393 z m 68.40512,-0.0488 c -0.36394,-0.46396 -0.35359,-0.4743 0.11047,-0.11045 0.28162,0.22081 0.51203,0.45117 0.51203,0.51191 0,0.24076 -0.24027,0.0858 -0.6225,-0.40146 z m 31.63681,0.40146 c 0,-0.0607 0.23041,-0.2911 0.51203,-0.51191 0.46406,-0.36385 0.47441,-0.35351 0.11046,0.11045 -0.38222,0.48726 -0.62249,0.64222 -0.62249,0.40146 z m 68.78123,-0.35271 c 0.014,-0.34077 0.0834,-0.41008 0.17677,-0.17673 0.0845,0.21116 0.0741,0.46346 -0.0231,0.56066 -0.0972,0.0972 -0.16637,-0.0756 -0.15367,-0.38393 z m -183.15997,-0.87756 c 0.014,-0.34077 0.0834,-0.41008 0.17677,-0.17673 0.0845,0.21116 0.0741,0.46346 -0.0231,0.56066 -0.0972,0.0972 -0.16638,-0.0756 -0.15368,-0.38393 z m 197.49677,0 c 0.014,-0.34077 0.0834,-0.41008 0.17678,-0.17673 0.0845,0.21116 0.0741,0.46346 -0.0231,0.56066 -0.0972,0.0972 -0.16638,-0.0756 -0.15368,-0.38393 z M 174.89834,225.7422 c 0.014,-0.34077 0.0834,-0.41008 0.17677,-0.17673 0.0845,0.21116 0.0741,0.46346 -0.0231,0.56066 -0.0972,0.0972 -0.16638,-0.0756 -0.15368,-0.38393 z m 168.23799,0 c 0.014,-0.34077 0.0834,-0.41008 0.17678,-0.17673 0.0845,0.21116 0.0741,0.46346 -0.0231,0.56066 -0.0972,0.0972 -0.16638,-0.0756 -0.15368,-0.38393 z m -167.9454,-1.46259 c 0.014,-0.34077 0.0834,-0.41009 0.17677,-0.17673 0.0845,0.21116 0.0741,0.46346 -0.0231,0.56066 -0.0972,0.0972 -0.16637,-0.0756 -0.15367,-0.38393 z m 79.19505,-0.92579 c 2.61501,-0.0485 6.8941,-0.0485 9.50911,0 2.615,0.0485 0.47545,0.0881 -4.75456,0.0881 -5.23,0 -7.36955,-0.0397 -4.75455,-0.0881 z M 241.951,223.06707 c 0.60346,-0.0631 1.59095,-0.0631 2.19441,0 0.60346,0.0631 0.10972,0.11475 -1.09721,0.11475 -1.20692,0 -1.70066,-0.0516 -1.0972,-0.11475 z m 32.18466,0 c 0.60346,-0.0631 1.59094,-0.0631 2.19441,0 0.60346,0.0631 0.10972,0.11475 -1.09721,0.11475 -1.20692,0 -1.70066,-0.0516 -1.0972,-0.11475 z m -53.98245,-1.44323 c 0.20115,-0.0812 0.53031,-0.0812 0.73147,0 0.20115,0.0812 0.0366,0.14754 -0.36574,0.14754 -0.40231,0 -0.56689,-0.0664 -0.36573,-0.14754 z m 77.24318,0 c 0.20115,-0.0812 0.53032,-0.0812 0.73147,0 0.20115,0.0812 0.0366,0.14754 -0.36574,0.14754 -0.4023,0 -0.56688,-0.0664 -0.36573,-0.14754 z m -80.0172,-0.3015 c 0.28468,-0.0742 0.67967,-0.0693 0.87777,0.0108 0.19809,0.0801 -0.0348,0.1408 -0.5176,0.13484 -0.48277,-0.006 -0.64485,-0.0715 -0.36017,-0.14568 z m 82.94308,0.009 c 0.20115,-0.0812 0.53031,-0.0812 0.73147,0 0.20115,0.0812 0.0366,0.14754 -0.36574,0.14754 -0.40231,0 -0.56689,-0.0664 -0.36573,-0.14754 z m -85.57637,-0.3015 c 0.28468,-0.0742 0.67967,-0.0693 0.87777,0.0108 0.19809,0.0801 -0.0348,0.14081 -0.5176,0.13484 -0.48277,-0.006 -0.64485,-0.0715 -0.36017,-0.14568 z m 88.20966,0.009 c 0.20115,-0.0812 0.53031,-0.0812 0.73147,0 0.20115,0.0811 0.0366,0.14754 -0.36574,0.14754 -0.40231,0 -0.56689,-0.0664 -0.36573,-0.14754 z m -90.99481,-0.29252 c 0.20115,-0.0812 0.53031,-0.0812 0.73147,0 0.20115,0.0811 0.0366,0.14754 -0.36574,0.14754 -0.4023,0 -0.56689,-0.0664 -0.36573,-0.14754 z m 93.6281,0 c 0.20115,-0.0812 0.53031,-0.0812 0.73147,0 0.20115,0.0811 0.0366,0.14754 -0.36574,0.14754 -0.40231,0 -0.56689,-0.0664 -0.36573,-0.14754 z m -95.9688,-0.29252 c 0.20115,-0.0811 0.53031,-0.0811 0.73147,0 0.20115,0.0812 0.0366,0.14754 -0.36574,0.14754 -0.40231,0 -0.56689,-0.0664 -0.36573,-0.14754 z m 98.3095,0 c 0.20116,-0.0811 0.53032,-0.0811 0.73147,0 0.20115,0.0812 0.0366,0.14754 -0.36573,0.14754 -0.40231,0 -0.56689,-0.0664 -0.36574,-0.14754 z m -100.65021,-0.29252 c 0.20116,-0.0811 0.53032,-0.0811 0.73147,0 0.20116,0.0812 0.0366,0.14754 -0.36573,0.14754 -0.40231,0 -0.56689,-0.0664 -0.36574,-0.14754 z m 102.99091,0 c 0.20116,-0.0811 0.53032,-0.0811 0.73147,0 0.20116,0.0812 0.0366,0.14754 -0.36573,0.14754 -0.40231,0 -0.56689,-0.0664 -0.36574,-0.14754 z m -105.03902,-0.29252 c 0.20115,-0.0812 0.53031,-0.0812 0.73147,0 0.20115,0.0812 0.0366,0.14755 -0.36574,0.14755 -0.4023,0 -0.56688,-0.0664 -0.36573,-0.14755 z m 107.37973,0 c 0.20115,-0.0812 0.53031,-0.0812 0.73147,0 0.20115,0.0812 0.0366,0.14755 -0.36574,0.14755 -0.40231,0 -0.56689,-0.0664 -0.36573,-0.14755 z M 203.2014,219.57011 c 0.21121,-0.0845 0.46357,-0.0741 0.56079,0.0231 0.0972,0.0972 -0.0756,0.16634 -0.38402,0.15364 -0.34084,-0.014 -0.41018,-0.0833 -0.17677,-0.17673 z m 111.45767,0.006 c 0.20115,-0.0811 0.53032,-0.0811 0.73147,0 0.20115,0.0812 0.0366,0.14755 -0.36573,0.14755 -0.40231,0 -0.56689,-0.0664 -0.36574,-0.14755 z m -152.92718,-0.56194 c 0.014,-0.34077 0.0834,-0.41008 0.17677,-0.17673 0.0845,0.21116 0.0741,0.46346 -0.0231,0.56066 -0.0972,0.0972 -0.16637,-0.0756 -0.15367,-0.38393 z m 14.62939,0 c 0.014,-0.34077 0.0834,-0.41008 0.17677,-0.17673 0.0845,0.21116 0.0741,0.46346 -0.0231,0.56066 -0.0972,0.0972 -0.16637,-0.0756 -0.15367,-0.38393 z m 24.79201,0.26333 c 0.21121,-0.0845 0.46357,-0.0741 0.56079,0.0231 0.0972,0.0972 -0.0756,0.16634 -0.38402,0.15364 -0.34085,-0.014 -0.41018,-0.0833 -0.17677,-0.17673 z m 115.5539,0.006 c 0.20115,-0.0811 0.53031,-0.0811 0.73146,0 0.20116,0.0812 0.0366,0.14755 -0.36573,0.14755 -0.40231,0 -0.56689,-0.0664 -0.36573,-0.14755 z m 39.5956,-0.26942 c 0.014,-0.34077 0.0834,-0.41008 0.17677,-0.17673 0.0845,0.21116 0.0741,0.46346 -0.0231,0.56066 -0.0972,0.0972 -0.16638,-0.0756 -0.15367,-0.38393 z m -157.2159,-0.0231 c 0.20115,-0.0812 0.53031,-0.0812 0.73146,0 0.20116,0.0811 0.0366,0.14754 -0.36573,0.14754 -0.40231,0 -0.56689,-0.0664 -0.36573,-0.14754 z m 119.6867,-0.006 c 0.21121,-0.0845 0.46357,-0.0741 0.56079,0.0231 0.0972,0.0972 -0.0756,0.16634 -0.38402,0.15364 -0.34085,-0.014 -0.41018,-0.0833 -0.17677,-0.17673 z m -121.73482,-0.28642 c 0.20115,-0.0811 0.53032,-0.0811 0.73147,0 0.20115,0.0811 0.0366,0.14754 -0.36573,0.14754 -0.40231,0 -0.56689,-0.0664 -0.36574,-0.14754 z m 123.47206,0 c 0.20115,-0.0811 0.53031,-0.0811 0.73147,0 0.20115,0.0811 0.0366,0.14754 -0.36574,0.14754 -0.40231,0 -0.56689,-0.0664 -0.36573,-0.14754 z m -124.91671,-0.29862 c 0.21121,-0.0845 0.46357,-0.0741 0.56079,0.0231 0.0972,0.0972 -0.0756,0.16633 -0.38402,0.15363 -0.34085,-0.014 -0.41018,-0.0833 -0.17677,-0.17673 z m 126.98311,0 c 0.21121,-0.0845 0.46357,-0.0741 0.56079,0.0231 0.0972,0.0972 -0.0756,0.16633 -0.38402,0.15363 -0.34085,-0.014 -0.41018,-0.0833 -0.17677,-0.17673 z m -128.73864,-0.29252 c 0.21121,-0.0845 0.46357,-0.0741 0.56079,0.0231 0.0972,0.0972 -0.0756,0.16633 -0.38402,0.15363 -0.34084,-0.014 -0.41018,-0.0834 -0.17677,-0.17673 z m -1.75553,-0.29252 c 0.21122,-0.0845 0.46357,-0.0741 0.5608,0.0231 0.0972,0.0972 -0.0756,0.16634 -0.38402,0.15363 -0.34085,-0.014 -0.41018,-0.0833 -0.17678,-0.17673 z m 133.71263,0 c 0.21122,-0.0845 0.46357,-0.0741 0.5608,0.0231 0.0972,0.0972 -0.0756,0.16634 -0.38402,0.15363 -0.34085,-0.014 -0.41018,-0.0833 -0.17678,-0.17673 z m -135.46815,-0.29252 c 0.21121,-0.0845 0.46357,-0.0741 0.56079,0.0231 0.0972,0.0972 -0.0756,0.16634 -0.38402,0.15363 -0.34085,-0.014 -0.41018,-0.0833 -0.17677,-0.17673 z m 137.22368,0 c 0.21121,-0.0845 0.46357,-0.0741 0.56079,0.0231 0.0972,0.0972 -0.0756,0.16634 -0.38402,0.15363 -0.34085,-0.014 -0.41018,-0.0833 -0.17677,-0.17673 z M 188.8646,217.22996 c 0.21121,-0.0845 0.46357,-0.0741 0.56079,0.0231 0.0972,0.0972 -0.0756,0.16634 -0.38402,0.15364 -0.34085,-0.014 -0.41018,-0.0833 -0.17677,-0.17673 z m -6.14435,-1.17008 c 0.21122,-0.0845 0.46357,-0.0741 0.5608,0.0231 0.0972,0.0972 -0.0756,0.16634 -0.38402,0.15364 -0.34085,-0.014 -0.41018,-0.0834 -0.17678,-0.17673 z m 152.43825,0 c 0.21122,-0.0845 0.46357,-0.0741 0.5608,0.0231 0.0972,0.0972 -0.0756,0.16634 -0.38402,0.15364 -0.34085,-0.014 -0.41018,-0.0834 -0.17678,-0.17673 z m -157.94255,-0.64894 c 0,-0.30376 0.55656,-0.7435 0.72142,-0.57 0.0535,0.0563 -0.0869,0.27216 -0.31205,0.47961 -0.22516,0.20745 -0.40937,0.24812 -0.40937,0.0904 z m 160.57584,0.0639 c 0.21122,-0.0845 0.46357,-0.0741 0.5608,0.0231 0.0972,0.0972 -0.0756,0.16634 -0.38402,0.15364 -0.34085,-0.014 -0.41018,-0.0833 -0.17678,-0.17673 z m 2.85326,-0.29947 c -0.15878,-0.4169 -0.12518,-0.4505 0.16379,-0.16375 0.19996,0.19843 0.28986,0.43446 0.19977,0.52452 -0.0901,0.0901 -0.25368,-0.0723 -0.36356,-0.36077 z m -91.07339,-6.1538 c 1.25451,-0.055 3.22947,-0.0546 4.38881,7.4e-4 1.15934,0.0554 0.13292,0.10035 -2.28093,0.0999 -2.41385,-4.1e-4 -3.3624,-0.0457 -2.10788,-0.10068 z m 14.92197,0 c 1.25451,-0.055 3.22948,-0.0546 4.38882,7.4e-4 1.15934,0.0554 0.13292,0.10035 -2.28093,0.0999 -2.41385,-4.1e-4 -3.3624,-0.0457 -2.10789,-0.10068 z m -23.85404,-0.28685 c 0.52589,-0.0651 1.31587,-0.0638 1.75553,0.003 0.43966,0.0667 0.009,0.12001 -0.95615,0.11837 -0.96554,-0.002 -1.32526,-0.0563 -0.79938,-0.12136 z m 35.40313,0 c 0.52588,-0.0651 1.31587,-0.0638 1.75553,0.003 0.43965,0.0667 0.009,0.12001 -0.95615,0.11837 -0.96554,-0.002 -1.32526,-0.0563 -0.79938,-0.12136 z m -41.1098,-0.29043 c 0.44475,-0.0672 1.10307,-0.0654 1.46293,0.004 0.35987,0.0694 -0.004,0.12444 -0.80864,0.12225 -0.80461,-0.002 -1.09905,-0.059 -0.65429,-0.12625 z m 47.10663,0 c 0.44475,-0.0672 1.10308,-0.0654 1.46294,0.004 0.35987,0.0694 -0.004,0.12444 -0.80864,0.12225 -0.80461,-0.002 -1.09905,-0.059 -0.6543,-0.12625 z m -51.34977,-0.2895 c 0.36395,-0.07 0.89061,-0.0673 1.17035,0.006 0.27974,0.0732 -0.018,0.13046 -0.66173,0.12721 -0.6437,-0.003 -0.87257,-0.0632 -0.50862,-0.13312 z m 56.17686,0 c 0.36395,-0.07 0.89061,-0.0673 1.17035,0.006 0.27974,0.0732 -0.018,0.13046 -0.66173,0.12721 -0.6437,-0.003 -0.87257,-0.0632 -0.50862,-0.13312 z m -77.17345,-1.95289 c 0,-0.0617 0.26333,-0.18099 0.58518,-0.26513 0.32185,-0.0841 0.58517,-0.0337 0.58517,0.11214 0,0.14583 -0.26332,0.26514 -0.58517,0.26514 -0.32185,0 -0.58518,-0.0505 -0.58518,-0.11215 z m 97.72433,-0.15299 c 0,-0.14582 0.26333,-0.19629 0.58518,-0.11214 0.32184,0.0841 0.58517,0.20346 0.58517,0.26513 0,0.0617 -0.26333,0.11215 -0.58517,0.11215 -0.32185,0 -0.58518,-0.11931 -0.58518,-0.26514 z m -99.84559,-0.22111 c 0.20116,-0.0812 0.53032,-0.0812 0.73147,0 0.20116,0.0812 0.0366,0.14754 -0.36573,0.14754 -0.40231,0 -0.56689,-0.0664 -0.36574,-0.14754 z m 102.40574,0 c 0.20115,-0.0812 0.53031,-0.0812 0.73147,0 0.20115,0.0812 0.0366,0.14754 -0.36574,0.14754 -0.40231,0 -0.56689,-0.0664 -0.36573,-0.14754 z M 205.5421,205.52918 c 0.21122,-0.0845 0.46357,-0.0741 0.5608,0.0231 0.0972,0.0972 -0.0756,0.16634 -0.38402,0.15363 -0.34085,-0.014 -0.41018,-0.0833 -0.17678,-0.17673 z m 106.79455,0 c 0.21122,-0.0845 0.46357,-0.0741 0.5608,0.0231 0.0972,0.0972 -0.0756,0.16634 -0.38402,0.15363 -0.34085,-0.014 -0.41018,-0.0833 -0.17678,-0.17673 z M 203.4757,205.24276 c 0.20116,-0.0812 0.53032,-0.0812 0.73147,0 0.20116,0.0812 0.0366,0.14754 -0.36573,0.14754 -0.40231,0 -0.56689,-0.0664 -0.36574,-0.14754 z m 110.59819,0 c 0.20116,-0.0812 0.53032,-0.0812 0.73147,0 0.20116,0.0812 0.0366,0.14754 -0.36573,0.14754 -0.40231,0 -0.56689,-0.0664 -0.36574,-0.14754 z m -112.33543,-0.29861 c 0.21121,-0.0845 0.46357,-0.0741 0.5608,0.0231 0.0972,0.0972 -0.0756,0.16634 -0.38403,0.15364 -0.34084,-0.014 -0.41017,-0.0834 -0.17677,-0.17673 z m 114.38355,0.006 c 0.20115,-0.0812 0.53032,-0.0812 0.73147,0 0.20115,0.0811 0.0366,0.14754 -0.36574,0.14754 -0.4023,0 -0.56688,-0.0664 -0.36573,-0.14754 z m -116.44995,-0.29252 c 0.20115,-0.0812 0.53032,-0.0812 0.73147,0 0.20115,0.0811 0.0366,0.14754 -0.36573,0.14754 -0.40231,0 -0.56689,-0.0664 -0.36574,-0.14754 z m 118.51635,-0.006 c 0.21121,-0.0845 0.46357,-0.0741 0.56079,0.0231 0.0972,0.0972 -0.0756,0.16634 -0.38402,0.15364 -0.34085,-0.014 -0.41018,-0.0833 -0.17677,-0.17673 z m -120.25359,-0.29252 c 0.21121,-0.0845 0.46357,-0.0741 0.56079,0.0231 0.0972,0.0972 -0.0756,0.16634 -0.38402,0.15364 -0.34085,-0.014 -0.41018,-0.0833 -0.17677,-0.17673 z m 122.00912,0 c 0.21121,-0.0845 0.46357,-0.0741 0.56079,0.0231 0.0972,0.0972 -0.0756,0.16634 -0.38402,0.15364 -0.34085,-0.014 -0.41018,-0.0833 -0.17677,-0.17673 z m -123.76465,-0.29252 c 0.21122,-0.0845 0.46357,-0.0741 0.5608,0.0231 0.0972,0.0972 -0.0756,0.16634 -0.38402,0.15364 -0.34085,-0.014 -0.41018,-0.0834 -0.17678,-0.17673 z m 125.52017,0 c 0.21122,-0.0845 0.46357,-0.0741 0.5608,0.0231 0.0972,0.0972 -0.0756,0.16634 -0.38402,0.15364 -0.34085,-0.014 -0.41018,-0.0834 -0.17678,-0.17673 z m 1.75553,-0.29252 c 0.21121,-0.0845 0.46357,-0.0741 0.56079,0.0231 0.0972,0.0972 -0.0756,0.16634 -0.38402,0.15364 -0.34084,-0.014 -0.41018,-0.0833 -0.17677,-0.17673 z m -130.49416,-0.29252 c 0.21121,-0.0845 0.46357,-0.0741 0.56079,0.0231 0.0972,0.0972 -0.0756,0.16634 -0.38402,0.15364 -0.34085,-0.014 -0.41018,-0.0833 -0.17677,-0.17673 z m 132.24969,0 c 0.21121,-0.0845 0.46357,-0.0741 0.56079,0.0231 0.0972,0.0972 -0.0756,0.16634 -0.38402,0.15364 -0.34085,-0.014 -0.41018,-0.0833 -0.17677,-0.17673 z M 191.2053,203.18903 c 0.21121,-0.0845 0.46357,-0.0741 0.56079,0.0231 0.0972,0.0972 -0.0756,0.16634 -0.38402,0.15364 -0.34085,-0.014 -0.41018,-0.0833 -0.17677,-0.17673 z m 135.46816,0 c 0.21121,-0.0845 0.46357,-0.0741 0.56079,0.0231 0.0972,0.0972 -0.0756,0.16634 -0.38402,0.15364 -0.34085,-0.014 -0.41018,-0.0833 -0.17677,-0.17673 z m 1.46294,-0.29252 c 0.21121,-0.0845 0.46357,-0.0741 0.56079,0.0231 0.0972,0.0972 -0.0756,0.16634 -0.38402,0.15364 -0.34085,-0.014 -0.41018,-0.0833 -0.17677,-0.17673 z m -139.85698,-0.29252 c 0.21121,-0.0845 0.46357,-0.0741 0.5608,0.0231 0.0972,0.0972 -0.0756,0.16634 -0.38403,0.15364 -0.34084,-0.014 -0.41017,-0.0833 -0.17677,-0.17673 z m -1.46294,-0.29252 c 0.21122,-0.0845 0.46357,-0.0741 0.5608,0.0231 0.0972,0.0972 -0.0756,0.16633 -0.38402,0.15363 -0.34085,-0.014 -0.41018,-0.0833 -0.17678,-0.17673 z m -1.46294,-0.29252 c 0.21122,-0.0845 0.46357,-0.0741 0.5608,0.0231 0.0972,0.0972 -0.0756,0.16633 -0.38402,0.15363 -0.34085,-0.014 -0.41018,-0.0834 -0.17678,-0.17673 z m 147.17167,0 c 0.21122,-0.0845 0.46357,-0.0741 0.5608,0.0231 0.0972,0.0972 -0.0756,0.16633 -0.38402,0.15363 -0.34085,-0.014 -0.41018,-0.0834 -0.17678,-0.17673 z m 1.46294,-0.29252 c 0.21121,-0.0845 0.46357,-0.0741 0.5608,0.0231 0.0972,0.0972 -0.0756,0.16633 -0.38403,0.15363 -0.34084,-0.014 -0.41017,-0.0834 -0.17677,-0.17673 z m -152.67597,-0.69499 c 0,-0.17039 0.13166,-0.22843 0.29258,-0.129 0.16093,0.0994 0.29259,0.23883 0.29259,0.30978 0,0.071 -0.13166,0.129 -0.29259,0.129 -0.16092,0 -0.29258,-0.1394 -0.29258,-0.30978 z m 155.21783,0.0173 c 0.0995,-0.16089 0.23889,-0.29252 0.30985,-0.29252 0.071,0 0.12903,0.13163 0.12903,0.29252 0,0.16088 -0.13943,0.29252 -0.30985,0.29252 -0.17042,0 -0.22849,-0.13164 -0.12903,-0.29252 z M 113.68707,188.5435 c -0.36394,-0.46395 -0.35359,-0.4743 0.11047,-0.11044 0.48738,0.38214 0.64237,0.62235 0.40156,0.62235 -0.0608,0 -0.29117,-0.23036 -0.51203,-0.51191 z m 290.28443,0.40147 c 0,-0.0608 0.23041,-0.29111 0.51203,-0.51191 0.46406,-0.36386 0.47441,-0.35351 0.11047,0.11044 -0.38223,0.48726 -0.6225,0.64222 -0.6225,0.40147 z m -291.74737,-1.57155 c -0.36394,-0.46395 -0.35359,-0.4743 0.11047,-0.11044 0.28162,0.22081 0.51203,0.45117 0.51203,0.51191 0,0.24075 -0.24027,0.0858 -0.6225,-0.40147 z m -1.59971,-1.31633 -0.55738,-0.65817 0.65833,0.55724 c 0.61866,0.52368 0.79152,0.75909 0.55737,0.75909 -0.0555,0 -0.35176,-0.29617 -0.65832,-0.65816 z m 296.71184,0.0731 c 0.29127,-0.32178 0.59541,-0.58504 0.67587,-0.58504 0.0805,0 -0.092,0.26326 -0.38328,0.58504 -0.29127,0.32177 -0.59541,0.58503 -0.67587,0.58503 -0.0805,0 0.092,-0.26326 0.38328,-0.58503 z M 255.7082,185.34246 c 0.28467,-0.0742 0.67967,-0.0693 0.87776,0.0108 0.19809,0.0801 -0.0348,0.14081 -0.5176,0.13485 -0.48277,-0.006 -0.64484,-0.0715 -0.36016,-0.14569 z m 6.14434,0 c 0.28468,-0.0742 0.67967,-0.0693 0.87776,0.0108 0.19809,0.0801 -0.0348,0.14081 -0.51759,0.13485 -0.48277,-0.006 -0.64485,-0.0715 -0.36017,-0.14569 z m -8.03345,-0.28963 c 0.21121,-0.0845 0.46357,-0.0741 0.5608,0.0231 0.0972,0.0972 -0.0756,0.16634 -0.38403,0.15363 -0.34084,-0.014 -0.41017,-0.0833 -0.17677,-0.17673 z m 10.24058,0 c 0.21121,-0.0845 0.46356,-0.0741 0.56079,0.0231 0.0972,0.0972 -0.0756,0.16634 -0.38402,0.15363 -0.34085,-0.014 -0.41018,-0.0833 -0.17677,-0.17673 z m -11.70352,-0.29252 c 0.21122,-0.0845 0.46357,-0.0741 0.5608,0.0231 0.0972,0.0972 -0.0756,0.16634 -0.38402,0.15363 -0.34085,-0.014 -0.41018,-0.0833 -0.17678,-0.17673 z m -145.36973,-2.0672 -1.89337,-1.9745 1.97497,1.89292 c 1.08623,1.04111 1.97497,1.92964 1.97497,1.97451 0,0.2153 -0.29793,-0.0589 -2.05657,-1.89293 z m 304.00719,0.0731 c 1.0367,-1.04575 1.95075,-1.90137 2.03121,-1.90137 0.0805,0 -0.70192,0.85562 -1.73862,1.90137 -1.03671,1.04576 -1.95075,1.90138 -2.03121,1.90138 -0.0805,0 0.70191,-0.85562 1.73862,-1.90138 z m -307.25453,-3.58336 c -0.36394,-0.46395 -0.35359,-0.4743 0.11047,-0.11044 0.48738,0.38214 0.64237,0.62235 0.40156,0.62235 -0.0607,0 -0.29117,-0.23036 -0.51203,-0.51191 z m 310.18041,0.40147 c 0,-0.0607 0.23041,-0.2911 0.51202,-0.51191 0.46406,-0.36386 0.47441,-0.35351 0.11047,0.11044 -0.38223,0.48727 -0.62249,0.64222 -0.62249,0.40147 z M 240.085,178.59784 c -0.36394,-0.46395 -0.35359,-0.47429 0.11047,-0.11044 0.48738,0.38214 0.64237,0.62235 0.40156,0.62235 -0.0607,0 -0.29117,-0.23036 -0.51203,-0.51191 z m 37.48857,0.40147 c 0,-0.0607 0.23041,-0.2911 0.51202,-0.51191 0.46406,-0.36385 0.47441,-0.35351 0.11047,0.11044 -0.38223,0.48727 -0.62249,0.64222 -0.62249,0.40147 z m -157.15698,-3.32666 c -0.36394,-0.46395 -0.35359,-0.4743 0.11047,-0.11044 0.48738,0.38214 0.64237,0.62235 0.40156,0.62235 -0.0608,0 -0.29117,-0.23036 -0.51203,-0.51191 z m 276.82539,0.40147 c 0,-0.0607 0.23041,-0.2911 0.51203,-0.51191 0.46406,-0.36386 0.47441,-0.35351 0.11047,0.11044 -0.38223,0.48726 -0.6225,0.64222 -0.6225,0.40147 z m -160.66803,-0.98651 c -0.36394,-0.46395 -0.35359,-0.4743 0.11047,-0.11044 0.28161,0.22081 0.51203,0.45117 0.51203,0.51191 0,0.24075 -0.24027,0.0858 -0.6225,-0.40147 z m 44.51067,0.40147 c 0,-0.0607 0.23041,-0.2911 0.51203,-0.51191 0.46406,-0.36386 0.47441,-0.35351 0.11047,0.11044 -0.38223,0.48727 -0.6225,0.64222 -0.6225,0.40147 z m -164.00463,-2.88788 -1.74637,-1.82825 1.82868,1.74596 c 1.00577,0.96028 1.82867,1.78299 1.82867,1.82825 0,0.21614 -0.28875,-0.0477 -1.91098,-1.74596 z m 283.81934,0.0731 c 0.95546,-0.96532 1.80304,-1.75512 1.8835,-1.75512 0.0805,0 -0.63545,0.7898 -1.59091,1.75512 -0.95547,0.96531 -1.80305,1.75511 -1.88351,1.75511 -0.0805,0 0.63545,-0.7898 1.59092,-1.75511 z m -286.62708,-3.14458 c -0.36395,-0.46396 -0.3536,-0.4743 0.11046,-0.11045 0.48738,0.38214 0.64237,0.62235 0.40156,0.62235 -0.0608,0 -0.29117,-0.23035 -0.51202,-0.5119 z m 289.11407,0.40146 c 0,-0.0607 0.23042,-0.2911 0.51203,-0.51191 0.46406,-0.36385 0.47441,-0.35351 0.11047,0.11045 -0.38223,0.48726 -0.6225,0.64222 -0.6225,0.40146 z M 95.607046,164.02063 c 0.01404,-0.34077 0.08337,-0.41008 0.176772,-0.17673 0.08452,0.21116 0.07413,0.46346 -0.0231,0.56066 -0.09722,0.0972 -0.166377,-0.0756 -0.153672,-0.38393 z m 192.230194,-2.63267 c 0.014,-0.34077 0.0834,-0.41008 0.17677,-0.17673 0.0845,0.21116 0.0741,0.46346 -0.0231,0.56066 -0.0972,0.0972 -0.16638,-0.0756 -0.15367,-0.38393 z M 95.021871,161.09544 c 0.01404,-0.34077 0.08337,-0.41008 0.176771,-0.17673 0.08452,0.21116 0.07413,0.46346 -0.0231,0.56066 -0.09722,0.0972 -0.166377,-0.0756 -0.153671,-0.38393 z m 327.990939,0 c 0.014,-0.34077 0.0834,-0.41008 0.17677,-0.17673 0.0845,0.21116 0.0741,0.46346 -0.0231,0.56066 -0.0972,0.0972 -0.16638,-0.0756 -0.15367,-0.38393 z m -313.65414,-0.87756 c 0.014,-0.34077 0.0834,-0.41008 0.17678,-0.17673 0.0845,0.21116 0.0741,0.46346 -0.0231,0.56066 -0.0972,0.0972 -0.16638,-0.0756 -0.15368,-0.38393 z m 120.58012,-0.85318 c 0.006,-0.48266 0.0715,-0.64469 0.14572,-0.36008 0.0742,0.28461 0.0693,0.67951 -0.0108,0.87756 -0.0802,0.19804 -0.14084,-0.0348 -0.13488,-0.51748 z m 58.22498,0 c 0.006,-0.48266 0.0715,-0.64469 0.14572,-0.36008 0.0742,0.28461 0.0693,0.67951 -0.0108,0.87756 -0.0802,0.19804 -0.14085,-0.0348 -0.13488,-0.51748 z M 94.774065,158.6334 c 0,-0.5631 0.06021,-0.79346 0.133807,-0.51191 0.07359,0.28155 0.07359,0.74227 0,1.02382 -0.07359,0.28155 -0.133807,0.0512 -0.133807,-0.51191 z m 328.576115,0 c 0,-0.5631 0.0602,-0.79346 0.1338,-0.51191 0.0736,0.28155 0.0736,0.74227 0,1.02382 -0.0736,0.28155 -0.1338,0.0512 -0.1338,-0.51191 z m -314.28409,0.12189 c 0.014,-0.34077 0.0834,-0.41009 0.17677,-0.17673 0.0845,0.21116 0.0741,0.46346 -0.0231,0.56066 -0.0972,0.0972 -0.16638,-0.0756 -0.15367,-0.38393 z m 299.9025,0 c 0.014,-0.34077 0.0834,-0.41009 0.17677,-0.17673 0.0845,0.21116 0.0741,0.46346 -0.0231,0.56066 -0.0972,0.0972 -0.16637,-0.0756 -0.15367,-0.38393 z m -314.194525,-4.8022 c 0,-0.5631 0.06021,-0.79345 0.133807,-0.5119 0.07359,0.28154 0.07359,0.74226 0,1.02381 -0.07359,0.28155 -0.133807,0.0512 -0.133807,-0.51191 z m 328.576115,0 c 0,-0.5631 0.0602,-0.79345 0.1338,-0.5119 0.0736,0.28154 0.0736,0.74226 0,1.02381 -0.0736,0.28155 -0.1338,0.0512 -0.1338,-0.51191 z m -314.28409,-0.17063 c 0.014,-0.34077 0.0834,-0.41008 0.17677,-0.17673 0.0845,0.21116 0.0741,0.46346 -0.0231,0.56066 -0.0972,0.0972 -0.16638,-0.0756 -0.15367,-0.38393 z m 299.9025,0 c 0.014,-0.34077 0.0834,-0.41008 0.17677,-0.17673 0.0845,0.21116 0.0741,0.46346 -0.0231,0.56066 -0.0972,0.0972 -0.16637,-0.0756 -0.15367,-0.38393 z M 288.16377,153.2218 c 0.006,-0.48266 0.0715,-0.6447 0.14572,-0.36009 0.0742,0.28462 0.0693,0.67952 -0.0108,0.87756 -0.0802,0.19805 -0.14085,-0.0348 -0.13488,-0.51747 z m -58.23582,-0.14626 c 0,-0.40222 0.0664,-0.56676 0.14758,-0.36565 0.0812,0.2011 0.0812,0.53019 0,0.7313 -0.0812,0.2011 -0.14758,0.0366 -0.14758,-0.36565 z m -120.56928,-0.75568 c 0.014,-0.34077 0.0834,-0.41008 0.17678,-0.17673 0.0845,0.21116 0.0741,0.46346 -0.0231,0.56066 -0.0972,0.0972 -0.16638,-0.0756 -0.15368,-0.38393 z m 299.31733,0 c 0.014,-0.34077 0.0834,-0.41008 0.17678,-0.17673 0.0845,0.21116 0.0741,0.46346 -0.0231,0.56066 -0.0972,0.0972 -0.16638,-0.0756 -0.15368,-0.38393 z M 95.021871,151.4423 c 0.01404,-0.34076 0.08337,-0.41008 0.176771,-0.17673 0.08452,0.21117 0.07413,0.46346 -0.0231,0.56066 -0.09722,0.0972 -0.166377,-0.0756 -0.153671,-0.38393 z m 327.990939,0 c 0.014,-0.34076 0.0834,-0.41008 0.17677,-0.17673 0.0845,0.21117 0.0741,0.46346 -0.0231,0.56066 -0.0972,0.0972 -0.16638,-0.0756 -0.15367,-0.38393 z m -135.17557,-0.29252 c 0.014,-0.34076 0.0834,-0.41008 0.17677,-0.17673 0.0845,0.21117 0.0741,0.46346 -0.0231,0.56067 -0.0972,0.0972 -0.16638,-0.0756 -0.15367,-0.38394 z M 95.607046,148.51711 c 0.01404,-0.34077 0.08337,-0.41008 0.176772,-0.17673 0.08452,0.21116 0.07413,0.46346 -0.0231,0.56066 -0.09722,0.0972 -0.166377,-0.0756 -0.153672,-0.38393 z m 18.409934,-5.20515 c 0,-0.0608 0.23041,-0.2911 0.51203,-0.51191 0.46406,-0.36386 0.47441,-0.35351 0.11047,0.11044 -0.38223,0.48726 -0.6225,0.64222 -0.6225,0.40147 z m 289.62461,-0.40147 c -0.36394,-0.46395 -0.35359,-0.4743 0.11047,-0.11044 0.48738,0.38214 0.64237,0.62235 0.40156,0.62235 -0.0608,0 -0.29117,-0.23036 -0.51203,-0.51191 z m -286.55244,-2.99832 c 0.95547,-0.96532 1.80304,-1.75512 1.8835,-1.75512 0.0805,0 -0.63545,0.7898 -1.59091,1.75512 -0.95547,0.96531 -1.80304,1.75511 -1.8835,1.75511 -0.0805,0 0.63545,-0.7898 1.59091,-1.75511 z m 283.80102,-0.0731 -1.74637,-1.82825 1.82867,1.74596 c 1.00578,0.96028 1.82868,1.78299 1.82868,1.82825 0,0.21614 -0.28875,-0.0477 -1.91098,-1.74596 z m -164.57149,-2.08495 c 0,-0.0607 0.23042,-0.2911 0.51203,-0.51191 0.46406,-0.36385 0.47441,-0.35351 0.11047,0.11044 -0.38223,0.48727 -0.6225,0.64222 -0.6225,0.40147 z m 45.02121,-0.40147 c -0.36395,-0.46395 -0.3536,-0.47429 0.11046,-0.11044 0.48738,0.38214 0.64237,0.62235 0.40156,0.62235 -0.0607,0 -0.29117,-0.23036 -0.51202,-0.51191 z m -161.17857,-0.18357 c 0,-0.0607 0.23042,-0.2911 0.51203,-0.51191 0.46406,-0.36385 0.47441,-0.35351 0.11047,0.11045 -0.38223,0.48726 -0.6225,0.64222 -0.6225,0.40146 z m 277.33593,-0.40146 c -0.36394,-0.46396 -0.3536,-0.4743 0.11047,-0.11045 0.48737,0.38214 0.64237,0.62235 0.40156,0.62235 -0.0608,0 -0.29117,-0.23035 -0.51203,-0.5119 z m -157.66751,-2.52373 c 0,-0.0607 0.23041,-0.2911 0.51203,-0.51191 0.46406,-0.36386 0.47441,-0.35351 0.11046,0.11044 -0.38222,0.48727 -0.62249,0.64222 -0.62249,0.40147 z m 37.99909,-0.40147 c -0.36394,-0.46395 -0.35359,-0.4743 0.11047,-0.11044 0.28162,0.22081 0.51203,0.45117 0.51203,0.51191 0,0.24075 -0.24027,0.0858 -0.6225,-0.40147 z m -174.34501,-0.18357 c 0,-0.0607 0.23041,-0.2911 0.51203,-0.51191 0.46406,-0.36385 0.47441,-0.35351 0.11046,0.11044 -0.38222,0.48727 -0.62249,0.64222 -0.62249,0.40147 z m 310.69093,-0.40147 c -0.36394,-0.46395 -0.35359,-0.47429 0.11047,-0.11044 0.28162,0.22081 0.51203,0.45117 0.51203,0.51191 0,0.24075 -0.24027,0.0858 -0.6225,-0.40147 z m -172.88207,-0.18357 c 0,-0.0607 0.23041,-0.2911 0.51203,-0.51191 0.46406,-0.36385 0.47441,-0.35351 0.11046,0.11045 -0.38222,0.48726 -0.62249,0.64222 -0.62249,0.40146 z m -134.29781,-3.25353 c 1.03671,-1.04575 1.95075,-1.90137 2.03121,-1.90137 0.0805,0 -0.70192,0.85562 -1.73862,1.90137 -1.0367,1.04576 -1.95075,1.90138 -2.03121,1.90138 -0.0805,0 0.70192,-0.85562 1.73862,-1.90138 z m 303.99028,-0.0731 -1.89336,-1.9745 1.97496,1.89292 c 1.08624,1.04111 1.97497,1.92964 1.97497,1.97451 0,0.2153 -0.29792,-0.0589 -2.05657,-1.89293 z M 255.7082,127.13113 c 0.28467,-0.0742 0.67967,-0.0693 0.87776,0.0108 0.19809,0.0801 -0.0348,0.14081 -0.5176,0.13485 -0.48277,-0.006 -0.64484,-0.0715 -0.36016,-0.14568 z m 6.14434,0 c 0.28468,-0.0742 0.67967,-0.0693 0.87776,0.0108 0.19809,0.0801 -0.0348,0.14081 -0.51759,0.13485 -0.48277,-0.006 -0.64485,-0.0715 -0.36017,-0.14568 z m -151.20032,-0.67485 c 0.29127,-0.32177 0.59541,-0.58504 0.67587,-0.58504 0.0805,0 -0.092,0.26327 -0.38328,0.58504 -0.29127,0.32177 -0.59541,0.58504 -0.67587,0.58504 -0.0805,0 0.092,-0.26327 0.38328,-0.58504 z m 296.65624,-0.0731 -0.55738,-0.65817 0.65833,0.55725 c 0.61866,0.52367 0.79152,0.75909 0.55737,0.75909 -0.0555,0 -0.35176,-0.29618 -0.65832,-0.65817 z m -295.3396,-0.91487 c 0,-0.0607 0.23042,-0.2911 0.51203,-0.51191 0.46406,-0.36385 0.47441,-0.35351 0.11047,0.11044 -0.38223,0.48727 -0.6225,0.64222 -0.6225,0.40147 z m 1.46294,-1.17008 c 0,-0.0607 0.23042,-0.2911 0.51203,-0.51191 0.46406,-0.36385 0.47441,-0.3535 0.11047,0.11045 -0.38223,0.48726 -0.6225,0.64222 -0.6225,0.40146 z m 67.88038,-12.7604 c 0,-0.16089 0.13943,-0.29252 0.30985,-0.29252 0.17042,0 0.22848,0.13163 0.12903,0.29252 -0.0995,0.16088 -0.23889,0.29252 -0.30986,0.29252 -0.071,0 -0.12902,-0.13164 -0.12902,-0.29252 z m 152.67597,-0.78487 c 0.21121,-0.0845 0.46357,-0.0741 0.5608,0.0231 0.0972,0.0972 -0.0756,0.16634 -0.38403,0.15364 -0.34084,-0.014 -0.41017,-0.0834 -0.17677,-0.17674 z M 186.81648,110.1679 c 0.21122,-0.0845 0.46357,-0.0741 0.5608,0.0231 0.0972,0.0972 -0.0756,0.16634 -0.38402,0.15364 -0.34085,-0.014 -0.41018,-0.0833 -0.17678,-0.17673 z m 1.46294,-0.29252 c 0.21121,-0.0845 0.46357,-0.0741 0.5608,0.0231 0.0972,0.0972 -0.0756,0.16634 -0.38403,0.15364 -0.34084,-0.014 -0.41017,-0.0833 -0.17677,-0.17673 z m 1.46294,-0.29252 c 0.21121,-0.0845 0.46357,-0.0741 0.5608,0.0231 0.0972,0.0972 -0.0756,0.16634 -0.38403,0.15364 -0.34084,-0.014 -0.41017,-0.0833 -0.17677,-0.17673 z m 138.39404,0 c 0.21121,-0.0845 0.46357,-0.0741 0.56079,0.0231 0.0972,0.0972 -0.0756,0.16634 -0.38402,0.15364 -0.34085,-0.014 -0.41018,-0.0833 -0.17677,-0.17673 z m -136.9311,-0.29252 c 0.21121,-0.0845 0.46357,-0.0741 0.56079,0.0231 0.0972,0.0972 -0.0756,0.16634 -0.38402,0.15364 -0.34085,-0.014 -0.41018,-0.0834 -0.17677,-0.17673 z m 135.46816,0 c 0.21121,-0.0845 0.46357,-0.0741 0.56079,0.0231 0.0972,0.0972 -0.0756,0.16634 -0.38402,0.15364 -0.34085,-0.014 -0.41018,-0.0834 -0.17677,-0.17673 z m -133.71263,-0.29252 c 0.21121,-0.0845 0.46357,-0.0741 0.56079,0.0231 0.0972,0.0972 -0.0756,0.16634 -0.38402,0.15364 -0.34085,-0.014 -0.41018,-0.0833 -0.17677,-0.17673 z m 132.24969,0 c 0.21121,-0.0845 0.46357,-0.0741 0.56079,0.0231 0.0972,0.0972 -0.0756,0.16634 -0.38402,0.15364 -0.34085,-0.014 -0.41018,-0.0833 -0.17677,-0.17673 z m -1.75553,-0.29252 c 0.21121,-0.0845 0.46357,-0.0741 0.56079,0.0231 0.0972,0.0972 -0.0756,0.16634 -0.38402,0.15364 -0.34084,-0.014 -0.41018,-0.0833 -0.17677,-0.17673 z m -127.2757,-0.29252 c 0.21122,-0.0845 0.46357,-0.0741 0.5608,0.0231 0.0972,0.0972 -0.0756,0.16634 -0.38402,0.15364 -0.34085,-0.014 -0.41018,-0.0834 -0.17678,-0.17673 z m 125.52017,0 c 0.21122,-0.0845 0.46357,-0.0741 0.5608,0.0231 0.0972,0.0972 -0.0756,0.16634 -0.38402,0.15364 -0.34085,-0.014 -0.41018,-0.0834 -0.17678,-0.17673 z m -123.76464,-0.29252 c 0.21121,-0.0845 0.46357,-0.0741 0.56079,0.0231 0.0972,0.0972 -0.0756,0.16634 -0.38402,0.15364 -0.34085,-0.014 -0.41018,-0.0833 -0.17677,-0.17673 z m 122.00912,0 c 0.21121,-0.0845 0.46357,-0.0741 0.56079,0.0231 0.0972,0.0972 -0.0756,0.16634 -0.38402,0.15364 -0.34085,-0.014 -0.41018,-0.0833 -0.17677,-0.17673 z m -120.25359,-0.29252 c 0.21121,-0.0845 0.46357,-0.0741 0.56079,0.0231 0.0972,0.0972 -0.0756,0.16633 -0.38402,0.15363 -0.34085,-0.014 -0.41018,-0.0833 -0.17677,-0.17673 z m 118.49806,0 c 0.21121,-0.0845 0.46357,-0.0741 0.56079,0.0231 0.0972,0.0972 -0.0756,0.16633 -0.38402,0.15363 -0.34085,-0.014 -0.41018,-0.0833 -0.17677,-0.17673 z m -116.44995,-0.29252 c 0.21121,-0.0845 0.46357,-0.0741 0.5608,0.0231 0.0972,0.0972 -0.0756,0.16633 -0.38403,0.15363 -0.34084,-0.014 -0.41017,-0.0833 -0.17677,-0.17673 z m 114.38355,0.006 c 0.20115,-0.0811 0.53032,-0.0811 0.73147,0 0.20115,0.0812 0.0366,0.14754 -0.36574,0.14754 -0.4023,0 -0.56688,-0.0664 -0.36573,-0.14754 z M 203.4757,107.2488 c 0.20116,-0.0812 0.53032,-0.0812 0.73147,0 0.20116,0.0811 0.0366,0.14754 -0.36573,0.14754 -0.40231,0 -0.56689,-0.0664 -0.36574,-0.14754 z m 110.59819,0 c 0.20116,-0.0812 0.53032,-0.0812 0.73147,0 0.20116,0.0811 0.0366,0.14754 -0.36573,0.14754 -0.40231,0 -0.56689,-0.0664 -0.36574,-0.14754 z M 205.5421,106.95018 c 0.21122,-0.0845 0.46357,-0.0741 0.5608,0.0231 0.0972,0.0972 -0.0756,0.16634 -0.38402,0.15363 -0.34085,-0.014 -0.41018,-0.0833 -0.17678,-0.17673 z m 106.79455,0 c 0.21122,-0.0845 0.46357,-0.0741 0.5608,0.0231 0.0972,0.0972 -0.0756,0.16634 -0.38402,0.15363 -0.34085,-0.014 -0.41018,-0.0833 -0.17678,-0.17673 z m -104.76472,-0.28642 c 0.20116,-0.0811 0.53032,-0.0811 0.73147,0 0.20116,0.0812 0.0366,0.14754 -0.36573,0.14754 -0.40231,0 -0.56689,-0.0664 -0.36574,-0.14754 z m 2.56015,-0.0988 c -0.55837,-0.23988 -0.55501,-0.25234 0.0731,-0.27196 0.36208,-0.0113 0.65832,0.11107 0.65832,0.27196 0,0.16088 -0.0329,0.28327 -0.0731,0.27196 -0.0402,-0.0113 -0.33648,-0.13369 -0.65832,-0.27196 z m 97.28544,-0.0406 c 0,-0.13858 0.32916,-0.25196 0.73147,-0.25196 0.40231,0 0.73147,0.0505 0.73147,0.11216 0,0.0617 -0.32916,0.17507 -0.73147,0.25195 -0.40231,0.0769 -0.73147,0.0264 -0.73147,-0.11215 z m 2.56015,0.13935 c 0.20115,-0.0811 0.53031,-0.0811 0.73147,0 0.20115,0.0812 0.0366,0.14754 -0.36574,0.14754 -0.40231,0 -0.56689,-0.0664 -0.36573,-0.14754 z m -79.28789,-2.35331 c 0.36395,-0.07 0.89061,-0.0673 1.17035,0.006 0.27974,0.0732 -0.018,0.13046 -0.66173,0.12722 -0.6437,-0.003 -0.87257,-0.0631 -0.50862,-0.13312 z m 56.17686,0 c 0.36395,-0.07 0.89061,-0.0673 1.17035,0.006 0.27974,0.0732 -0.018,0.13046 -0.66173,0.12722 -0.6437,-0.003 -0.87257,-0.0631 -0.50862,-0.13312 z m -51.93372,-0.29554 c 0.44475,-0.0672 1.10307,-0.0654 1.46293,0.004 0.35987,0.0694 -0.004,0.12445 -0.80864,0.12225 -0.80461,-0.002 -1.09905,-0.059 -0.65429,-0.12624 z m 47.10663,0 c 0.44475,-0.0672 1.10308,-0.0654 1.46294,0.004 0.35987,0.0694 -0.004,0.12445 -0.80864,0.12225 -0.80461,-0.002 -1.09905,-0.059 -0.6543,-0.12624 z m -41.55149,-0.29213 c 0.44254,-0.067 1.16669,-0.067 1.60923,0 0.44254,0.067 0.0805,0.12186 -0.80461,0.12186 -0.88508,0 -1.24716,-0.0548 -0.80462,-0.12186 z m 35.69571,0 c 0.44254,-0.067 1.1667,-0.067 1.60924,0 0.44254,0.067 0.0805,0.12186 -0.80462,0.12186 -0.88508,0 -1.24716,-0.0548 -0.80462,-0.12186 z m -26.77178,-0.3002 c 1.16669,-0.0555 3.07583,-0.0555 4.24252,0 1.1667,0.0555 0.21213,0.10095 -2.12126,0.10095 -2.33339,0 -3.28796,-0.0454 -2.12126,-0.10095 z m 15.21456,0 c 1.1667,-0.0555 3.07583,-0.0555 4.24253,0 1.16669,0.0555 0.21212,0.10095 -2.12126,0.10095 -2.33339,0 -3.28796,-0.0454 -2.12127,-0.10095 z m -87.27634,-5.94517 c -0.30021,-0.485642 -0.0308,-0.552986 0.3893,-0.0973 0.2075,0.225102 0.24819,0.409276 0.0904,0.409276 -0.15778,0 -0.37365,-0.140392 -0.47972,-0.311981 z m 163.29484,-0.06628 c 0.10988,-0.288489 0.27348,-0.450837 0.36356,-0.360774 0.0901,0.09006 1.9e-4,0.326099 -0.19977,0.524525 -0.28897,0.286747 -0.32257,0.253147 -0.16379,-0.163751 z M 180.08696,97.004528 c 0.21122,-0.0845 0.46357,-0.07411 0.5608,0.02309 0.0972,0.0972 -0.0756,0.166338 -0.38402,0.153637 -0.34085,-0.01404 -0.41018,-0.08335 -0.17678,-0.176731 z m 2.63329,-0.585038 c 0.21122,-0.0845 0.46357,-0.07411 0.5608,0.02309 0.0972,0.0972 -0.0756,0.166338 -0.38402,0.153637 -0.34085,-0.01404 -0.41018,-0.08335 -0.17678,-0.17673 z m 152.43825,0 c 0.21122,-0.0845 0.46357,-0.07411 0.5608,0.02309 0.0972,0.0972 -0.0756,0.166338 -0.38402,0.153637 -0.34085,-0.01404 -0.41018,-0.08335 -0.17678,-0.17673 z M 184.18319,96.12697 c 0.21122,-0.0845 0.46357,-0.07411 0.5608,0.02309 0.0972,0.0972 -0.0756,0.166338 -0.38402,0.153637 -0.34085,-0.01404 -0.41018,-0.08335 -0.17678,-0.176731 z m 149.51238,0 c 0.21121,-0.0845 0.46356,-0.07411 0.56079,0.02309 0.0972,0.0972 -0.0756,0.166338 -0.38402,0.153637 -0.34085,-0.01404 -0.41018,-0.08335 -0.17677,-0.176731 z M 190.32754,94.956893 c 0.21121,-0.0845 0.46357,-0.07411 0.56079,0.02309 0.0972,0.0972 -0.0756,0.166338 -0.38402,0.153637 -0.34085,-0.01404 -0.41018,-0.08335 -0.17677,-0.176731 z m 137.22368,0 c 0.21121,-0.0845 0.46357,-0.07411 0.56079,0.02309 0.0972,0.0972 -0.0756,0.166338 -0.38402,0.153637 -0.34085,-0.01404 -0.41018,-0.08335 -0.17677,-0.176731 z M 192.08306,94.664374 c 0.21122,-0.0845 0.46357,-0.07411 0.5608,0.02309 0.0972,0.0972 -0.0756,0.166339 -0.38402,0.153637 -0.34085,-0.01404 -0.41018,-0.08335 -0.17678,-0.17673 z m 133.71263,0 c 0.21122,-0.0845 0.46357,-0.07411 0.5608,0.02309 0.0972,0.0972 -0.0756,0.166339 -0.38402,0.153637 -0.34085,-0.01404 -0.41018,-0.08335 -0.17678,-0.17673 z m -131.9571,-0.292519 c 0.21121,-0.0845 0.46357,-0.07411 0.56079,0.02309 0.0972,0.0972 -0.0756,0.166338 -0.38402,0.153637 -0.34084,-0.01404 -0.41018,-0.08335 -0.17677,-0.17673 z m 1.75553,-0.29252 c 0.21121,-0.0845 0.46357,-0.07411 0.56079,0.02309 0.0972,0.0972 -0.0756,0.166338 -0.38402,0.153637 -0.34085,-0.01404 -0.41018,-0.08335 -0.17677,-0.176731 z m 126.98311,0 c 0.21121,-0.0845 0.46357,-0.07411 0.56079,0.02309 0.0972,0.0972 -0.0756,0.166338 -0.38402,0.153637 -0.34085,-0.01404 -0.41018,-0.08335 -0.17677,-0.176731 z M 161.73189,93.523484 c 0.014,-0.340768 0.0834,-0.410082 0.17677,-0.17673 0.0845,0.211162 0.0741,0.46346 -0.0231,0.560662 -0.0972,0.0972 -0.16637,-0.07557 -0.15367,-0.383932 z m 14.62939,0 c 0.014,-0.340768 0.0834,-0.410082 0.17677,-0.17673 0.0845,0.211162 0.0741,0.46346 -0.0231,0.560662 -0.0972,0.0972 -0.16637,-0.07557 -0.15367,-0.383932 z m 20.67749,0.269426 c 0.20115,-0.08115 0.53032,-0.08115 0.73147,0 0.20115,0.08115 0.0366,0.147543 -0.36573,0.147543 -0.40231,0 -0.56689,-0.06639 -0.36574,-0.147543 z m 123.47206,0 c 0.20115,-0.08115 0.53031,-0.08115 0.73147,0 0.20115,0.08115 0.0366,0.147543 -0.36574,0.147543 -0.40231,0 -0.56689,-0.06639 -0.36573,-0.147543 z m 35.79196,-0.269426 c 0.014,-0.340768 0.0834,-0.410082 0.17677,-0.17673 0.0845,0.211162 0.0741,0.46346 -0.0231,0.560662 -0.0972,0.0972 -0.16638,-0.07557 -0.15367,-0.383932 z m -157.2159,-0.02309 c 0.20115,-0.08115 0.53031,-0.08115 0.73146,0 0.20116,0.08115 0.0366,0.147542 -0.36573,0.147542 -0.40231,0 -0.56689,-0.06639 -0.36573,-0.147542 z m 119.6867,-0.0061 c 0.21121,-0.0845 0.46357,-0.07411 0.56079,0.02309 0.0972,0.0972 -0.0756,0.166339 -0.38402,0.153637 -0.34085,-0.01404 -0.41018,-0.08335 -0.17677,-0.17673 z m -117.6203,-0.29252 c 0.21121,-0.0845 0.46357,-0.07411 0.56079,0.02309 0.0972,0.0972 -0.0756,0.166338 -0.38402,0.153637 -0.34085,-0.01404 -0.41018,-0.08335 -0.17677,-0.176731 z m 115.5539,0.0061 c 0.20115,-0.08115 0.53031,-0.08115 0.73146,0 0.20116,0.08115 0.0366,0.147542 -0.36573,0.147542 -0.40231,0 -0.56689,-0.06639 -0.36573,-0.147542 z m -113.81666,-0.29252 c 0.20115,-0.08115 0.53031,-0.08115 0.73147,0 0.20115,0.08115 0.0366,0.147543 -0.36574,0.147543 -0.40231,0 -0.56689,-0.06639 -0.36573,-0.147543 z m 112.07942,-0.0061 c 0.21121,-0.0845 0.46356,-0.07411 0.56079,0.02309 0.0972,0.0972 -0.0756,0.166338 -0.38402,0.153637 -0.34085,-0.01404 -0.41018,-0.08335 -0.17677,-0.176731 z M 205.0905,92.61385 c 0.28468,-0.07417 0.67968,-0.06929 0.87777,0.01084 0.19809,0.08013 -0.0348,0.140809 -0.5176,0.134848 -0.48277,-0.006 -0.64484,-0.07152 -0.36017,-0.145687 z m 107.52046,0.009 c 0.20115,-0.08115 0.53031,-0.08115 0.73147,0 0.20115,0.08115 0.0366,0.147543 -0.36574,0.147543 -0.40231,0 -0.56689,-0.06639 -0.36573,-0.147543 z M 207.27934,92.330314 c 0.20116,-0.08115 0.53032,-0.08115 0.73147,0 0.20116,0.08115 0.0366,0.147542 -0.36573,0.147542 -0.40231,0 -0.56689,-0.06639 -0.36574,-0.147542 z m 102.99091,0 c 0.20116,-0.08115 0.53032,-0.08115 0.73147,0 0.20116,0.08115 0.0366,0.147542 -0.36573,0.147542 -0.40231,0 -0.56689,-0.06639 -0.36574,-0.147542 z m 46.32512,-0.269426 c 0.014,-0.340768 0.0834,-0.410083 0.17678,-0.17673 0.0845,0.211162 0.0741,0.46346 -0.0231,0.560662 -0.0972,0.0972 -0.16638,-0.07557 -0.15368,-0.383932 z m -146.97532,-0.02309 c 0.20115,-0.08115 0.53031,-0.08115 0.73147,0 0.20115,0.08115 0.0366,0.147543 -0.36574,0.147543 -0.40231,0 -0.56689,-0.06639 -0.36573,-0.147543 z m 98.46136,-0.009 c 0.28468,-0.07417 0.67968,-0.06929 0.87777,0.01084 0.19809,0.08013 -0.0348,0.140809 -0.5176,0.134848 -0.48277,-0.006 -0.64485,-0.07152 -0.36017,-0.145687 z m -96.12066,-0.283536 c 0.20115,-0.08115 0.53031,-0.08115 0.73147,0 0.20115,0.08115 0.0366,0.147543 -0.36574,0.147543 -0.4023,0 -0.56689,-0.06639 -0.36573,-0.147543 z m 93.6281,0 c 0.20115,-0.08115 0.53031,-0.08115 0.73147,0 0.20115,0.08115 0.0366,0.147543 -0.36574,0.147543 -0.40231,0 -0.56689,-0.06639 -0.36573,-0.147543 z M 214.7459,91.443773 c 0.28468,-0.07417 0.67967,-0.06929 0.87777,0.01084 0.19809,0.08013 -0.0348,0.140809 -0.5176,0.134847 -0.48277,-0.006 -0.64485,-0.07152 -0.36017,-0.145687 z m 88.36152,0 c 0.28468,-0.07417 0.67967,-0.06929 0.87776,0.01084 0.1981,0.08013 -0.0348,0.140809 -0.51759,0.134847 -0.48277,-0.006 -0.64485,-0.07152 -0.36017,-0.145687 z m -85.72823,-0.29252 c 0.28468,-0.07417 0.67967,-0.06929 0.87777,0.01084 0.19809,0.08013 -0.0348,0.14081 -0.5176,0.134848 -0.48277,-0.006 -0.64485,-0.07152 -0.36017,-0.145687 z m 82.94308,0.009 c 0.20115,-0.08115 0.53031,-0.08115 0.73147,0 0.20115,0.08115 0.0366,0.147542 -0.36574,0.147542 -0.40231,0 -0.56689,-0.06639 -0.36573,-0.147542 z m -80.16906,-0.29252 c 0.20115,-0.08115 0.53031,-0.08115 0.73147,0 0.20115,0.08115 0.0366,0.147543 -0.36574,0.147543 -0.40231,0 -0.56689,-0.06639 -0.36573,-0.147543 z m 77.24318,0 c 0.20115,-0.08115 0.53032,-0.08115 0.73147,0 0.20115,0.08115 0.0366,0.147543 -0.36574,0.147543 -0.4023,0 -0.56688,-0.06639 -0.36573,-0.147543 z M 241.951,89.38576 c 0.60346,-0.06311 1.59095,-0.06311 2.19441,0 0.60346,0.06311 0.10972,0.114744 -1.09721,0.114744 -1.20692,0 -1.70066,-0.05164 -1.0972,-0.114744 z m 32.18466,0 c 0.60346,-0.06311 1.59094,-0.06311 2.19441,0 0.60346,0.06311 0.10972,0.114744 -1.09721,0.114744 -1.20692,0 -1.70066,-0.05164 -1.0972,-0.114744 z m -19.74968,-0.298293 c 2.61501,-0.04848 6.8941,-0.04848 9.50911,0 2.615,0.04848 0.47545,0.08815 -4.75456,0.08815 -5.23,0 -7.36955,-0.03967 -4.75455,-0.08815 z m -79.48764,-2.291926 c 0.014,-0.340768 0.0834,-0.410083 0.17677,-0.176731 0.0845,0.211163 0.0741,0.463461 -0.0231,0.560662 -0.0972,0.0972 -0.16638,-0.07557 -0.15368,-0.383931 z m 168.23799,0 c 0.014,-0.340768 0.0834,-0.410083 0.17678,-0.176731 0.0845,0.211163 0.0741,0.463461 -0.0231,0.560662 -0.0972,0.0972 -0.16638,-0.07557 -0.15368,-0.383931 z M 160.26895,86.210502 c 0.014,-0.340768 0.0834,-0.410082 0.17677,-0.17673 0.0845,0.211162 0.0741,0.46346 -0.0231,0.560662 -0.0972,0.0972 -0.16638,-0.07557 -0.15368,-0.383932 z m 197.49677,0 c 0.014,-0.340768 0.0834,-0.410082 0.17678,-0.17673 0.0845,0.211162 0.0741,0.46346 -0.0231,0.560662 -0.0972,0.0972 -0.16638,-0.07557 -0.15368,-0.383932 z M 174.60576,85.332944 c 0.014,-0.340768 0.0834,-0.410082 0.17677,-0.17673 0.0845,0.211162 0.0741,0.46346 -0.0231,0.560662 -0.0972,0.0972 -0.16638,-0.07557 -0.15367,-0.383932 z m 68.14986,0.352714 c 0,-0.06074 0.23041,-0.291102 0.51202,-0.511909 0.46407,-0.363856 0.47441,-0.35351 0.11047,0.110442 -0.38223,0.487264 -0.62249,0.64222 -0.62249,0.401467 z m 32.14733,-0.401467 c -0.36394,-0.463952 -0.35359,-0.474298 0.11047,-0.110442 0.48738,0.382138 0.64237,0.622351 0.40156,0.622351 -0.0608,0 -0.29117,-0.230359 -0.51203,-0.511909 z m 68.52597,0.04875 c 0.014,-0.340768 0.0834,-0.410082 0.17677,-0.17673 0.0845,0.211162 0.0741,0.46346 -0.0231,0.560662 -0.0972,0.0972 -0.16637,-0.07557 -0.15367,-0.383932 z M 159.97636,84.747906 c 0.014,-0.340768 0.0834,-0.410083 0.17678,-0.176731 0.0845,0.211163 0.0741,0.463461 -0.0231,0.560662 -0.0972,0.0972 -0.16638,-0.07557 -0.15368,-0.383931 z m 83.94961,-0.524845 c 0,-0.06074 0.23041,-0.291102 0.51203,-0.511908 0.46406,-0.363857 0.47441,-0.35351 0.11046,0.110442 -0.38222,0.487263 -0.62249,0.64222 -0.62249,0.401466 z m 29.80663,-0.401466 c -0.36394,-0.463952 -0.35359,-0.474299 0.11047,-0.110442 0.48738,0.382138 0.64237,0.622351 0.40156,0.622351 -0.0608,0 -0.29117,-0.230359 -0.51203,-0.511909 z M 159.68378,82.99279 c 0.014,-0.340768 0.0834,-0.410082 0.17677,-0.17673 0.0845,0.211162 0.0741,0.46346 -0.0231,0.560662 -0.0972,0.0972 -0.16638,-0.07557 -0.15367,-0.383932 z m 198.66712,0 c 0.014,-0.340768 0.0834,-0.410082 0.17677,-0.17673 0.0845,0.211162 0.0741,0.46346 -0.0231,0.560662 -0.0972,0.0972 -0.16637,-0.07557 -0.15367,-0.383932 z M 245.09632,82.760465 c 0,-0.06074 0.23041,-0.291102 0.51203,-0.511909 0.46406,-0.363856 0.47441,-0.35351 0.11047,0.110442 -0.38223,0.487264 -0.6225,0.64222 -0.6225,0.401467 z m 27.46593,-0.401467 c -0.36394,-0.463952 -0.35359,-0.474298 0.11047,-0.110442 0.48738,0.382139 0.64237,0.622351 0.40156,0.622351 -0.0608,0 -0.29117,-0.230359 -0.51203,-0.511909 z m -98.54167,-0.243766 c 0.014,-0.340768 0.0834,-0.410082 0.17677,-0.17673 0.0845,0.211162 0.0741,0.46346 -0.0231,0.560662 -0.0972,0.0972 -0.16637,-0.07557 -0.15367,-0.383932 z m 53.22788,0.352714 c 0,-0.06074 0.23041,-0.291103 0.51203,-0.511909 0.46406,-0.363856 0.47441,-0.35351 0.11047,0.110442 -0.38223,0.487263 -0.6225,0.64222 -0.6225,0.401467 z m 63.16165,-0.401467 c -0.36394,-0.463952 -0.35359,-0.474298 0.11047,-0.110442 0.48737,0.382138 0.64237,0.622351 0.40156,0.622351 -0.0608,0 -0.29117,-0.230359 -0.51203,-0.511909 z m 53.60399,0.04875 c 0.014,-0.340768 0.0834,-0.410082 0.17677,-0.17673 0.0845,0.211162 0.0741,0.46346 -0.0231,0.560662 -0.0972,0.0972 -0.16638,-0.07557 -0.15367,-0.383932 z M 159.39119,80.945155 c 0.014,-0.340768 0.0834,-0.410082 0.17677,-0.17673 0.0845,0.211162 0.0741,0.46346 -0.0231,0.560662 -0.0972,0.0972 -0.16638,-0.07557 -0.15367,-0.383932 z m 86.87548,0.352713 c 0,-0.06074 0.23041,-0.291102 0.51203,-0.511908 0.46406,-0.363856 0.47441,-0.35351 0.11047,0.110442 -0.38223,0.487263 -0.6225,0.64222 -0.6225,0.401466 z m 25.12523,-0.401466 c -0.36394,-0.463952 -0.35359,-0.474298 0.11047,-0.110442 0.48738,0.382138 0.64237,0.622351 0.40156,0.622351 -0.0608,0 -0.29117,-0.230359 -0.51203,-0.511909 z m 87.25159,0.04875 c 0.014,-0.340768 0.0834,-0.410082 0.17677,-0.17673 0.0845,0.211162 0.0741,0.46346 -0.0231,0.560662 -0.0972,0.0972 -0.16638,-0.07557 -0.15367,-0.383932 z m -184.9155,-0.585038 c 0.014,-0.340769 0.0834,-0.410083 0.17677,-0.176731 0.0845,0.211163 0.0741,0.46346 -0.0231,0.560662 -0.0972,0.0972 -0.16637,-0.07557 -0.15367,-0.383931 z m 170.5787,0 c 0.014,-0.340769 0.0834,-0.410083 0.17677,-0.176731 0.0845,0.211163 0.0741,0.46346 -0.0231,0.560662 -0.0972,0.0972 -0.16638,-0.07557 -0.15367,-0.383931 z m -96.86967,-0.524845 c 0,-0.06074 0.23041,-0.291102 0.51203,-0.511909 0.46406,-0.363856 0.47441,-0.353509 0.11047,0.110442 -0.38223,0.487264 -0.6225,0.64222 -0.6225,0.401467 z m 22.78453,-0.401467 c -0.36394,-0.463951 -0.35359,-0.474298 0.11047,-0.110442 0.28161,0.220807 0.51203,0.451166 0.51203,0.511909 0,0.240753 -0.24027,0.0858 -0.6225,-0.401467 z M 159.1217,79.068156 c 0,-0.402214 0.0664,-0.566756 0.14758,-0.365649 0.0812,0.201107 0.0812,0.530191 0,0.731298 -0.0812,0.201107 -0.14758,0.03656 -0.14758,-0.365649 z m 199.83748,0 c 0,-0.402214 0.0664,-0.566756 0.14757,-0.365649 0.0812,0.201107 0.0812,0.530191 0,0.731298 -0.0812,0.201107 -0.14757,0.03656 -0.14757,-0.365649 z M 173.4585,78.483118 c 0,-0.402214 0.0664,-0.566756 0.14758,-0.365649 0.0812,0.201107 0.0812,0.530191 0,0.731298 -0.0812,0.201107 -0.14758,0.03657 -0.14758,-0.365649 z m 171.16387,0 c 0,-0.402214 0.0664,-0.566756 0.14758,-0.365649 0.0812,0.201107 0.0812,0.530191 0,0.731298 -0.0812,0.201107 -0.14758,0.03657 -0.14758,-0.365649 z m -95.72241,-0.402962 c 0,-0.06074 0.23041,-0.291102 0.51203,-0.511908 0.46406,-0.363857 0.47441,-0.35351 0.11047,0.110442 -0.38223,0.487263 -0.6225,0.64222 -0.6225,0.401466 z m 19.85865,-0.401466 c -0.36394,-0.463952 -0.35359,-0.474299 0.11047,-0.110442 0.28161,0.220806 0.51203,0.451165 0.51203,0.511908 0,0.240754 -0.24027,0.0858 -0.6225,-0.401466 z M 231.0521,77.495118 c 0,-0.06074 0.23042,-0.291102 0.51203,-0.511909 0.46406,-0.363856 0.47441,-0.35351 0.11047,0.110442 -0.38223,0.487264 -0.6225,0.64222 -0.6225,0.401467 z m 55.55437,-0.401467 c -0.36394,-0.463952 -0.3536,-0.474298 0.11046,-0.110442 0.48738,0.382138 0.64238,0.622351 0.40157,0.622351 -0.0608,0 -0.29118,-0.230359 -0.51203,-0.511909 z M 158.80601,76.849885 c 0.014,-0.340768 0.0834,-0.410082 0.17678,-0.17673 0.0845,0.211162 0.0741,0.46346 -0.0231,0.560662 -0.0972,0.0972 -0.16638,-0.07557 -0.15368,-0.383932 z m 200.42265,0 c 0.014,-0.340768 0.0834,-0.410082 0.17678,-0.17673 0.0845,0.211162 0.0741,0.46346 -0.0231,0.560662 -0.0972,0.0972 -0.16638,-0.07557 -0.15368,-0.383932 z M 173.16592,76.435483 c 0,-0.402214 0.0664,-0.566756 0.14757,-0.365649 0.0812,0.201107 0.0812,0.530191 0,0.731298 -0.0812,0.201107 -0.14757,0.03657 -0.14757,-0.365649 z m 171.74904,0 c 0,-0.402214 0.0664,-0.566756 0.14758,-0.365649 0.0812,0.201107 0.0812,0.530191 0,0.731298 -0.0812,0.201107 -0.14758,0.03657 -0.14758,-0.365649 z M 250.3629,76.325041 c 0,-0.06074 0.23041,-0.291103 0.51203,-0.511909 0.46406,-0.363856 0.47441,-0.35351 0.11047,0.110442 -0.38223,0.487263 -0.6225,0.64222 -0.6225,0.401467 z m 16.93277,-0.401467 c -0.36394,-0.463952 -0.35359,-0.474298 0.11047,-0.110442 0.48738,0.382138 0.64237,0.622351 0.40156,0.622351 -0.0608,0 -0.29117,-0.230359 -0.51203,-0.511909 z m -35.07322,0.108947 c 0,-0.06074 0.23042,-0.291102 0.51203,-0.511908 0.46406,-0.363857 0.47441,-0.35351 0.11047,0.110442 -0.38223,0.487263 -0.6225,0.64222 -0.6225,0.401466 z m -73.68593,-1.644673 c 0,-0.402214 0.0664,-0.566756 0.14758,-0.365649 0.0812,0.201107 0.0812,0.530191 0,0.731298 -0.0812,0.201107 -0.14758,0.03657 -0.14758,-0.365649 z m 14.34765,-0.14626 c 0.006,-0.482657 0.0715,-0.644694 0.14572,-0.360082 0.0742,0.284612 0.0693,0.679513 -0.0108,0.877558 -0.0802,0.198045 -0.14084,-0.03482 -0.13488,-0.517476 z m 186.66018,0.14626 c 0,-0.402214 0.0664,-0.566756 0.14758,-0.365649 0.0812,0.201107 0.0812,0.530191 0,0.731298 -0.0812,0.201107 -0.14758,0.03657 -0.14758,-0.365649 z m -126.15154,0.182077 c 0,-0.06074 0.23041,-0.291102 0.51202,-0.511909 0.46407,-0.363856 0.47441,-0.35351 0.11047,0.110442 -0.38223,0.487264 -0.62249,0.64222 -0.62249,0.401467 z m 18.87191,-0.474597 c 0.29127,-0.321771 0.59541,-0.585038 0.67587,-0.585038 0.0805,0 -0.092,0.263267 -0.38328,0.585038 -0.29127,0.321772 -0.59541,0.585039 -0.67587,0.585039 -0.0805,0 0.092,-0.263267 0.38328,-0.585039 z m 13.43124,-0.07313 -0.55738,-0.658169 0.65833,0.557246 c 0.36207,0.306485 0.65832,0.602661 0.65832,0.658168 0,0.23409 -0.23547,0.06127 -0.75927,-0.557245 z m 79.51159,0.07313 c 0,-0.402214 0.0664,-0.566756 0.14758,-0.365649 0.0812,0.201107 0.0812,0.530192 0,0.731299 -0.0812,0.201107 -0.14758,0.03656 -0.14758,-0.36565 z M 158.25478,71.608915 c 0.006,-0.482657 0.0715,-0.644694 0.14572,-0.360082 0.0742,0.284611 0.0693,0.679512 -0.0108,0.877558 -0.0802,0.198045 -0.14084,-0.03482 -0.13488,-0.517476 z m 14.3368,0 c 0.006,-0.482657 0.0715,-0.644694 0.14572,-0.360082 0.0742,0.284611 0.0693,0.679512 -0.0108,0.877558 -0.0802,0.198045 -0.14084,-0.03482 -0.13488,-0.517476 z m 81.72125,0.146259 c 0.29127,-0.321771 0.59541,-0.585038 0.67588,-0.585038 0.0805,0 -0.092,0.263267 -0.38329,0.585038 -0.29126,0.321771 -0.59541,0.585039 -0.67587,0.585039 -0.0805,0 0.092,-0.263268 0.38328,-0.585039 z m 9.33502,-0.07313 -0.55738,-0.658168 0.65832,0.557246 c 0.36208,0.306485 0.65832,0.60266 0.65832,0.658168 0,0.234089 -0.23547,0.06127 -0.75926,-0.557246 z m 81.86313,-0.07313 c 0.006,-0.482657 0.0715,-0.644694 0.14572,-0.360082 0.0742,0.284611 0.0693,0.679512 -0.0108,0.877558 -0.0802,0.198045 -0.14085,-0.03482 -0.13488,-0.517476 z m 14.3368,0 c 0.006,-0.482657 0.0715,-0.644694 0.14572,-0.360082 0.0742,0.284611 0.0693,0.679512 -0.0108,0.877558 -0.0802,0.198045 -0.14084,-0.03482 -0.13488,-0.517476 z M 236.90386,70.182136 c 0,-0.06074 0.23041,-0.291103 0.51203,-0.511909 0.46406,-0.363856 0.47441,-0.35351 0.11047,0.110442 -0.38223,0.487263 -0.6225,0.64222 -0.6225,0.401467 z m 43.85085,-0.401467 c -0.36394,-0.463952 -0.35359,-0.474298 0.11047,-0.110442 0.28161,0.220806 0.51203,0.451165 0.51203,0.511909 0,0.240753 -0.24027,0.0858 -0.6225,-0.401467 z M 256.50724,69.26876 c 0.37795,-0.402214 0.75302,-0.731298 0.83348,-0.731298 0.0805,0 -0.16294,0.329084 -0.54089,0.731298 -0.37795,0.402214 -0.75301,0.731298 -0.83347,0.731298 -0.0805,0 0.16293,-0.329084 0.54088,-0.731298 z m 4.95185,-0.07313 -0.70932,-0.804428 0.80461,0.709159 c 0.44254,0.390037 0.80462,0.75203 0.80462,0.804428 0,0.229415 -0.23694,0.0427 -0.89991,-0.709159 z m -89.14926,-0.658168 c 0,-0.5631 0.0602,-0.793459 0.13381,-0.511909 0.0736,0.28155 0.0736,0.742268 0,1.023818 -0.0736,0.28155 -0.13381,0.05119 -0.13381,-0.511909 z m 173.50458,0 c 0,-0.5631 0.0602,-0.793459 0.1338,-0.511909 0.0736,0.28155 0.0736,0.742268 0,1.023818 -0.0736,0.28155 -0.1338,0.05119 -0.1338,-0.511909 z M 157.97894,68.098683 c 0.003,-0.643542 0.0632,-0.872367 0.13315,-0.508498 0.07,0.363868 0.0673,0.890403 -0.006,1.170077 -0.0732,0.279674 -0.13049,-0.01804 -0.12724,-0.661579 z m 202.17817,0 c 0.003,-0.643542 0.0632,-0.872367 0.13315,-0.508498 0.07,0.363868 0.0673,0.890403 -0.006,1.170077 -0.0732,0.279674 -0.13049,-0.01804 -0.12725,-0.661579 z M 238.3668,68.42702 c 0,-0.06074 0.23041,-0.291102 0.51203,-0.511909 0.46406,-0.363856 0.47441,-0.35351 0.11047,0.110442 -0.38223,0.487264 -0.6225,0.64222 -0.6225,0.401467 z m 40.92497,-0.401467 c -0.36394,-0.463952 -0.35359,-0.474298 0.11047,-0.110442 0.28162,0.220807 0.51203,0.451166 0.51203,0.511909 0,0.240753 -0.24027,0.0858 -0.6225,-0.401467 z M 258.85213,66.66116 c 0.18948,-0.189441 0.38733,-0.189441 0.57681,0 0.18949,0.189441 0.0906,0.28834 -0.28841,0.28834 -0.37897,0 -0.47789,-0.0989 -0.2884,-0.28834 z m -19.02239,0.01074 c 0,-0.06074 0.23041,-0.291102 0.51203,-0.511909 0.46406,-0.363856 0.47441,-0.353509 0.11046,0.110443 -0.38222,0.487263 -0.62249,0.642219 -0.62249,0.401466 z m 37.99909,-0.401466 c -0.36394,-0.463952 -0.35359,-0.474299 0.11047,-0.110443 0.28162,0.220807 0.51203,0.451166 0.51203,0.511909 0,0.240753 -0.24027,0.0858 -0.6225,-0.401466 z M 172.04003,63.71089 c 0.002,-0.965314 0.0563,-1.324949 0.12138,-0.799189 0.0651,0.525759 0.0638,1.315561 -0.003,1.755115 -0.0668,0.439554 -0.12004,0.0094 -0.1184,-0.955926 z m 174.09273,-0.14626 c 0,-1.045756 0.0531,-1.473566 0.11801,-0.950688 0.0649,0.522879 0.0649,1.378498 0,1.901376 -0.0649,0.522878 -0.11801,0.09507 -0.11801,-0.950688 z m -104.10861,0.585039 c 0.29126,-0.321771 0.59541,-0.585039 0.67587,-0.585039 0.0805,0 -0.092,0.263268 -0.38329,0.585039 -0.29126,0.321771 -0.5954,0.585038 -0.67587,0.585038 -0.0805,0 0.092,-0.263267 0.38329,-0.585038 z m 33.91238,-0.07313 -0.55737,-0.658168 0.65832,0.557245 c 0.61866,0.523673 0.79152,0.759091 0.55738,0.759091 -0.0555,0 -0.35177,-0.296175 -0.65833,-0.658168 z M 157.73345,59.323104 c 3.1e-4,-2.89594 0.0441,-4.041077 0.0973,-2.544747 0.0532,1.496329 0.053,3.865736 -5.6e-4,5.265347 -0.0535,1.399611 -0.097,0.175341 -0.0967,-2.7206 z m 202.76219,0 c -3.4e-4,-2.735055 0.0436,-3.893313 0.0977,-2.573906 0.0541,1.319407 0.0544,3.557179 6.1e-4,4.972828 -0.0537,1.415648 -0.098,0.336134 -0.0983,-2.398922 z m -86.45527,2.559544 -0.70933,-0.804428 0.80462,0.709159 c 0.44254,0.390037 0.80462,0.75203 0.80462,0.804428 0,0.229415 -0.23694,0.0427 -0.89991,-0.709159 z m -29.96811,-0.07313 c 0.29127,-0.321771 0.59541,-0.585038 0.67587,-0.585038 0.0805,0 -0.092,0.263267 -0.38328,0.585038 -0.29127,0.321772 -0.59541,0.585039 -0.67587,0.585039 -0.0805,0 0.092,-0.263267 0.38328,-0.585039 z m 1.31665,-1.554128 c 0,-0.05034 0.42791,-0.478152 0.95091,-0.950688 l 0.95091,-0.859155 -0.85936,0.950687 c -0.80104,0.886174 -1.04246,1.085145 -1.04246,0.859156 z m 26.46079,-0.859156 -0.85936,-0.950687 0.95091,0.859155 c 0.523,0.472536 0.95091,0.900346 0.95091,0.950688 0,0.225989 -0.24142,0.02702 -1.04246,-0.859156 z m -2.4825,-2.72256 c -0.31949,-0.384873 -0.24691,-0.577721 0.46795,-1.243207 l 0.8461,-0.787671 -0.69302,0.795853 c -0.57472,0.660003 -0.62962,0.872215 -0.32165,1.243207 0.20424,0.246044 0.30552,0.447354 0.22506,0.447354 -0.0805,0 -0.31646,-0.204991 -0.52444,-0.455536 z m -20.6258,-0.07803 c 0.13265,-0.233671 -0.0502,-0.69781 -0.46086,-1.170078 l -0.68072,-0.782773 0.85887,0.800439 c 0.71563,0.666938 0.79249,0.862089 0.46085,1.170077 -0.32214,0.299175 -0.3561,0.295808 -0.17814,-0.01767 z m 97.39136,-1.514072 c 0,-1.045757 0.0531,-1.473566 0.11801,-0.950688 0.0649,0.522878 0.0649,1.378497 0,1.901376 -0.0649,0.522878 -0.11801,0.09507 -0.11801,-0.950688 z m -174.09273,-0.14626 c 0.002,-0.965313 0.0563,-1.324949 0.12138,-0.799189 0.0651,0.525759 0.0638,1.315562 -0.003,1.755116 -0.0668,0.439554 -0.12004,0.0094 -0.1184,-0.955927 z m 101.43731,-2.925193 c 0.5459,-0.563099 1.05838,-1.023817 1.13885,-1.023817 0.0805,0 -0.30036,0.460718 -0.84627,1.023817 -0.5459,0.5631 -1.05838,1.023818 -1.13885,1.023818 -0.0805,0 0.30036,-0.460718 0.84627,-1.023818 z m -29.27454,-0.365649 -1.0083,-1.096947 1.0972,1.00807 c 1.02126,0.93829 1.23173,1.185825 1.00831,1.185825 -0.0489,0 -0.54264,-0.493627 -1.09721,-1.096948 z m -86.22386,-0.804428 c 0.003,-0.643542 0.0632,-0.872366 0.13315,-0.508498 0.07,0.363868 0.0673,0.890403 -0.006,1.170077 -0.0732,0.279674 -0.13049,-0.01804 -0.12724,-0.661579 z m 202.17227,0.14626 c 0,-0.5631 0.0602,-0.793459 0.13381,-0.511909 0.0736,0.28155 0.0736,0.742268 0,1.023818 -0.0736,0.281549 -0.13381,0.05119 -0.13381,-0.511909 z m -14.34764,-0.14626 c 0.006,-0.482657 0.0715,-0.644694 0.14572,-0.360082 0.0742,0.284612 0.0693,0.679513 -0.0109,0.877558 -0.0801,0.198045 -0.14084,-0.03482 -0.13487,-0.517476 z M 172.28815,50.693786 c 0,-0.402214 0.0664,-0.566757 0.14758,-0.36565 0.0812,0.201107 0.0812,0.530192 0,0.731299 -0.0812,0.201107 -0.14758,0.03656 -0.14758,-0.365649 z m 68.98238,-1.681986 -0.70932,-0.804428 0.80461,0.709158 c 0.44254,0.390037 0.80462,0.75203 0.80462,0.804428 0,0.229416 -0.23694,0.0427 -0.89991,-0.709158 z m 35.42527,0.07313 c 0.37795,-0.402214 0.75301,-0.731298 0.83348,-0.731298 0.0805,0 -0.16294,0.329084 -0.54089,0.731298 -0.37795,0.402214 -0.75301,0.731299 -0.83347,0.731299 -0.0805,0 0.16293,-0.329085 0.54088,-0.731299 z m 68.80434,-0.731298 c 0,-0.402214 0.0664,-0.566756 0.14757,-0.365649 0.0812,0.201107 0.0812,0.530191 0,0.731298 -0.0812,0.201107 -0.14757,0.03657 -0.14757,-0.365649 z m -187.24536,-0.43878 c 0.006,-0.482657 0.0715,-0.644693 0.14572,-0.360082 0.0742,0.284612 0.0693,0.679513 -0.0108,0.877558 -0.0802,0.198045 -0.14084,-0.03482 -0.13488,-0.517476 z m 14.30286,0.268143 c 0.014,-0.340768 0.0834,-0.410083 0.17677,-0.17673 0.0845,0.211162 0.0741,0.46346 -0.0231,0.560662 -0.0972,0.0972 -0.16637,-0.07557 -0.15367,-0.383932 z m 187.29014,-0.268143 c 0.006,-0.482657 0.0715,-0.644693 0.14572,-0.360082 0.0742,0.284612 0.0693,0.679513 -0.0108,0.877558 -0.0802,0.198045 -0.14084,-0.03482 -0.13488,-0.517476 z m -120.77731,-0.804428 -0.55738,-0.658168 0.65833,0.557245 c 0.36207,0.306486 0.65832,0.602661 0.65832,0.658169 0,0.234089 -0.23548,0.06127 -0.75927,-0.557246 z m 39.81974,0.07313 c 0.29127,-0.321771 0.59541,-0.585038 0.67587,-0.585038 0.0805,0 -0.092,0.263267 -0.38328,0.585038 -0.29127,0.321771 -0.59541,0.585039 -0.67587,0.585039 -0.0805,0 0.092,-0.263268 0.38328,-0.585039 z M 172.87333,46.305996 c 0,-0.402214 0.0664,-0.566756 0.14757,-0.365649 0.0812,0.201107 0.0812,0.530191 0,0.731298 -0.0812,0.201107 -0.14757,0.03657 -0.14757,-0.365649 z m 172.31112,0.121883 c 0.014,-0.340768 0.0834,-0.410082 0.17677,-0.17673 0.0845,0.211162 0.0741,0.46346 -0.0231,0.560662 -0.0972,0.0972 -0.16638,-0.07557 -0.15367,-0.383932 z m 14.3599,-0.706921 c 0,-0.402214 0.0664,-0.566756 0.14758,-0.365649 0.0812,0.201107 0.0812,0.530191 0,0.731298 -0.0812,0.201107 -0.14758,0.03656 -0.14758,-0.365649 z M 158.51343,45.550321 c 0.014,-0.340768 0.0834,-0.410082 0.17677,-0.17673 0.0845,0.211162 0.0741,0.46346 -0.0231,0.560662 -0.0972,0.0972 -0.16638,-0.07557 -0.15367,-0.383932 z m 78.6457,-0.04875 c -0.36394,-0.463952 -0.3536,-0.474298 0.11046,-0.110442 0.28162,0.220807 0.51203,0.451166 0.51203,0.511909 0,0.240753 -0.24027,0.0858 -0.62249,-0.401467 z m 21.0815,-0.292519 -0.70933,-0.804428 0.80155,0.706279 c 0.79413,0.699737 0.80768,0.701092 1.46294,0.14626 l 0.66139,-0.56002 -0.55738,0.658169 c -0.70738,0.835297 -0.80093,0.82705 -1.65917,-0.14626 z m 22.25881,0.693986 c 0,-0.06074 0.23042,-0.291102 0.51203,-0.511909 0.46406,-0.363856 0.47441,-0.35351 0.11047,0.110442 -0.38223,0.487264 -0.6225,0.64222 -0.6225,0.401467 z M 173.14282,44.672764 c 0.014,-0.340769 0.0834,-0.410083 0.17677,-0.176731 0.0845,0.211162 0.0741,0.46346 -0.0231,0.560662 -0.0972,0.0972 -0.16638,-0.07557 -0.15367,-0.383931 z m 171.74904,0 c 0.014,-0.340769 0.0834,-0.410083 0.17677,-0.176731 0.0845,0.211162 0.0741,0.46346 -0.0231,0.560662 -0.0972,0.0972 -0.16637,-0.07557 -0.15367,-0.383931 z M 235.4036,44.038972 c -0.36394,-0.463952 -0.35359,-0.474299 0.11047,-0.110442 0.48738,0.382138 0.64237,0.622351 0.40156,0.622351 -0.0608,0 -0.29117,-0.230359 -0.51203,-0.511909 z m -76.59759,-0.243766 c 0.014,-0.340769 0.0834,-0.410083 0.17678,-0.176731 0.0845,0.211163 0.0741,0.463461 -0.0231,0.560662 -0.0972,0.0972 -0.16638,-0.07557 -0.15368,-0.383931 z m 200.42265,0 c 0.014,-0.340769 0.0834,-0.410083 0.17678,-0.176731 0.0845,0.211163 0.0741,0.463461 -0.0231,0.560662 -0.0972,0.0972 -0.16638,-0.07557 -0.15368,-0.383931 z m -75.51075,-0.524845 c 0,-0.06074 0.23041,-0.291102 0.51203,-0.511909 0.46406,-0.363856 0.47441,-0.353509 0.11047,0.110443 -0.38223,0.487263 -0.6225,0.64222 -0.6225,0.401466 z m -20.33485,-1.352154 c 0.62855,-0.643543 1.20865,-1.170077 1.28911,-1.170077 0.0805,0 -0.36798,0.526534 -0.99653,1.170077 -0.62855,0.643542 -1.20865,1.170077 -1.28911,1.170077 -0.0805,0 0.36798,-0.526535 0.99653,-1.170077 z m -9.08399,-0.365649 -1.15659,-1.243207 1.2435,1.156313 c 0.68393,0.635973 1.2435,1.195416 1.2435,1.243207 0,0.221314 -0.2548,-1.43e-4 -1.33041,-1.156313 z m -3.08055,-2.778933 -0.70933,-0.804428 0.80462,0.709158 c 0.44254,0.390037 0.80462,0.75203 0.80462,0.804428 0,0.229416 -0.23694,0.0427 -0.89991,-0.709158 z m 15.5293,0.07313 c 0.37795,-0.402214 0.75301,-0.731298 0.83347,-0.731298 0.0805,0 -0.16294,0.329084 -0.54089,0.731298 -0.37794,0.402214 -0.75301,0.731299 -0.83347,0.731299 -0.0805,0 0.16294,-0.329085 0.54089,-0.731299 z m -18.02195,-2.267024 -0.55738,-0.658168 0.65832,0.557245 c 0.36208,0.306485 0.65833,0.602661 0.65833,0.658169 0,0.234089 -0.23548,0.06127 -0.75927,-0.557246 z m 20.50894,0.07313 c 0.29127,-0.321771 0.59541,-0.585039 0.67587,-0.585039 0.0805,0 -0.092,0.263268 -0.38328,0.585039 -0.29127,0.321771 -0.59541,0.585038 -0.67587,0.585038 -0.0805,0 0.092,-0.263267 0.38328,-0.585038 z m -22.42029,-1.681986 c -0.36394,-0.463952 -0.35359,-0.474299 0.11047,-0.110442 0.28162,0.220806 0.51203,0.451165 0.51203,0.511908 0,0.240754 -0.24027,0.0858 -0.6225,-0.401466 z m 24.02953,0.401466 c 0,-0.06074 0.23041,-0.291102 0.51202,-0.511908 0.46407,-0.363857 0.47441,-0.35351 0.11047,0.110442 -0.38223,0.487263 -0.62249,0.64222 -0.62249,0.401466 z m 1.90182,-1.644673 c 0.29126,-0.321771 0.59541,-0.585039 0.67587,-0.585039 0.0805,0 -0.092,0.263268 -0.38329,0.585039 -0.29126,0.321771 -0.5954,0.585038 -0.67587,0.585038 -0.0805,0 0.092,-0.263267 0.38329,-0.585038 z M 245.059,33.508277 c -0.36394,-0.463951 -0.3536,-0.474298 0.11047,-0.110442 0.48737,0.382139 0.64237,0.622351 0.40156,0.622351 -0.0608,0 -0.29117,-0.230359 -0.51203,-0.511909 z M 243.59606,32.3382 c -0.36394,-0.463952 -0.35359,-0.474298 0.11047,-0.110442 0.48737,0.382138 0.64237,0.622351 0.40156,0.622351 -0.0608,0 -0.29117,-0.230359 -0.51203,-0.511909 z m 30.46645,0.401467 c 0,-0.06074 0.23041,-0.291102 0.51203,-0.511909 0.46406,-0.363856 0.47441,-0.35351 0.11047,0.110442 -0.38223,0.487264 -0.6225,0.64222 -0.6225,0.401467 z m -31.92939,-1.571544 c -0.36394,-0.463952 -0.35359,-0.474298 0.11047,-0.110442 0.28161,0.220807 0.51203,0.451165 0.51203,0.511909 0,0.240753 -0.24027,0.0858 -0.6225,-0.401467 z m -63.45423,-0.183572 c 0,-0.06074 0.23041,-0.291102 0.51202,-0.511909 0.46406,-0.363856 0.47441,-0.353509 0.11047,0.110443 -0.38223,0.487263 -0.62249,0.642219 -0.62249,0.401466 z m 160.30079,-0.401466 c -0.36394,-0.463952 -0.35359,-0.474299 0.11047,-0.110443 0.48738,0.382139 0.64237,0.622351 0.40156,0.622351 -0.0607,0 -0.29117,-0.230359 -0.51203,-0.511908 z m -139.87451,-6.12334 c 0.21121,-0.0845 0.46357,-0.07411 0.5608,0.02309 0.0972,0.0972 -0.0756,0.166338 -0.38403,0.153636 -0.34084,-0.01404 -0.41017,-0.08335 -0.17677,-0.17673 z m 119.66842,0 c 0.21121,-0.0845 0.46357,-0.07411 0.56079,0.02309 0.0972,0.0972 -0.0756,0.166338 -0.38402,0.153636 -0.34085,-0.01404 -0.41018,-0.08335 -0.17677,-0.17673 z M 189.74236,24.167226 c 0.21121,-0.0845 0.46357,-0.07411 0.5608,0.02309 0.0972,0.0972 -0.0756,0.166339 -0.38403,0.153637 -0.34084,-0.01404 -0.41017,-0.08335 -0.17677,-0.17673 z m 7.29641,0.0061 c 0.20115,-0.08115 0.53032,-0.08115 0.73147,0 0.20115,0.08115 0.0366,0.147542 -0.36573,0.147542 -0.40231,0 -0.56689,-0.06639 -0.36574,-0.147542 z m 123.47206,0 c 0.20115,-0.08115 0.53031,-0.08115 0.73147,0 0.20115,0.08115 0.0366,0.147542 -0.36574,0.147542 -0.40231,0 -0.56689,-0.06639 -0.36573,-0.147542 z m 7.62557,-0.0061 c 0.21121,-0.0845 0.46357,-0.07411 0.56079,0.02309 0.0972,0.0972 -0.0756,0.166339 -0.38402,0.153637 -0.34085,-0.01404 -0.41018,-0.08335 -0.17677,-0.17673 z M 192.94778,23.862533 c 0.52588,-0.0651 1.31587,-0.06376 1.75553,0.003 0.43966,0.06674 0.009,0.120012 -0.95615,0.11837 -0.96554,-0.0016 -1.32526,-0.05625 -0.79938,-0.121355 z m 130.78675,0 c 0.52589,-0.0651 1.31587,-0.06376 1.75553,0.003 0.43966,0.06674 0.009,0.120012 -0.95615,0.11837 -0.96554,-0.0016 -1.32526,-0.05625 -0.79938,-0.121355 z M 168.14572,21.331415 c 0,-0.06074 0.23042,-0.291103 0.51203,-0.511909 0.46406,-0.363856 0.47441,-0.35351 0.11047,0.110442 -0.38223,0.487263 -0.6225,0.64222 -0.6225,0.401467 z m 181.36713,-0.401467 c -0.36395,-0.463952 -0.3536,-0.474298 0.11046,-0.110442 0.48738,0.382138 0.64237,0.622351 0.40156,0.622351 -0.0608,0 -0.29117,-0.230359 -0.51202,-0.511909 z m -177.2709,-3.693803 c 0,-0.06074 0.23042,-0.291103 0.51203,-0.511909 0.46406,-0.363856 0.47441,-0.35351 0.11047,0.110442 -0.38223,0.487263 -0.6225,0.64222 -0.6225,0.401467 z m 173.17467,-0.401467 c -0.36394,-0.463952 -0.3536,-0.474298 0.11046,-0.110442 0.28162,0.220806 0.51203,0.451165 0.51203,0.511909 0,0.240753 -0.24027,0.0858 -0.62249,-0.401467 z M 201.44587,10.418819 c 0.21122,-0.0845 0.46357,-0.07411 0.5608,0.02309 0.0972,0.0972 -0.0756,0.166338 -0.38402,0.153637 -0.34085,-0.01404 -0.41018,-0.08335 -0.17678,-0.176731 z m 114.98701,0 c 0.21122,-0.0845 0.46357,-0.07411 0.5608,0.02309 0.0972,0.0972 -0.0756,0.166338 -0.38402,0.153637 -0.34085,-0.01404 -0.41018,-0.08335 -0.17678,-0.176731 z M 187.40166,10.1263 c 0.21121,-0.0845 0.46357,-0.07411 0.56079,0.02309 0.0972,0.0972 -0.0756,0.166338 -0.38402,0.153636 -0.34085,-0.01404 -0.41018,-0.08335 -0.17677,-0.17673 z m 12.2704,0.0061 c 0.20115,-0.08115 0.53032,-0.08115 0.73147,0 0.20115,0.08115 0.0366,0.147543 -0.36573,0.147543 -0.40231,0 -0.56689,-0.06639 -0.36574,-0.147543 z m 118.20548,0 c 0.20115,-0.08115 0.53031,-0.08115 0.73147,0 0.20115,0.08115 0.0366,0.147543 -0.36574,0.147543 -0.40231,0 -0.56689,-0.06639 -0.36573,-0.147543 z m 12.59956,-0.0061 c 0.21121,-0.0845 0.46357,-0.07411 0.56079,0.02309 0.0972,0.0972 -0.0756,0.166338 -0.38402,0.153636 -0.34085,-0.01404 -0.41018,-0.08335 -0.17677,-0.17673 z"
       id="path3" /><path
       style="fill:#60d9fa"
       d="m 186.31678,302.10055 c -13.21213,-2.86543 -22.26413,-12.62807 -26.23885,-28.29876 -1.40977,-5.55811 -1.92361,-10.00587 -2.09107,-18.09996 -0.20319,-9.8216 0.32176,-16.56676 2.12487,-27.30258 0.66074,-3.93409 3.13521,-15.62062 3.51939,-16.62155 0.1111,-0.28945 -0.85502,-0.69526 -3.59161,-1.50863 -13.02613,-3.87162 -26.91226,-9.63595 -35.97694,-14.93454 -24.916996,-14.56474 -34.474749,-33.32964 -26.452131,-51.93392 3.278871,-7.60363 10.622421,-15.63863 20.356471,-22.27319 10.57547,-7.20805 25.52477,-13.89165 42.0726,-18.80999 2.73659,-0.81337 3.70271,-1.21918 3.59161,-1.50863 -0.37015,-0.964376 -2.84842,-12.630268 -3.49997,-16.475296 -1.61773,-9.546876 -2.22,-16.332466 -2.21985,-25.0104 2.1e-4,-11.992084 1.44291,-20.471941 4.86304,-28.583836 1.48395,-3.519631 4.48156,-8.240208 6.96541,-10.968975 3.47597,-3.818712 8.9357,-7.148775 14.35201,-8.753754 2.35035,-0.696462 3.24393,-0.794623 8.3164,-0.913561 6.22718,-0.1460141 8.17843,0.05666 13.35115,1.386742 14.46354,3.719086 31.05299,14.032143 48.78704,30.329123 l 4.62233,4.247762 3.42383,-3.178617 c 17.7793,-16.505937 33.81396,-26.774088 48.33588,-30.952955 5.83077,-1.677878 8.28556,-1.9803973 14.85916,-1.831189 5.17302,0.117417 6.04029,0.211555 8.40176,0.911966 13.88897,4.119468 22.45581,15.773852 25.3502,34.486571 0.43513,2.813173 0.64194,5.932291 0.75469,11.382289 0.20346,9.834085 -0.32608,16.625734 -2.12876,27.302574 -0.66993,3.967883 -3.13602,15.632874 -3.51203,16.612526 -0.112,0.29179 0.7325,0.65837 3.15048,1.36757 13.29781,3.90028 27.83353,9.98323 37.24368,15.58583 23.76074,14.14665 33.10297,32.04937 26.14098,50.09459 -1.96179,5.08489 -5.07513,9.64715 -9.90111,14.50899 -3.99046,4.02011 -6.08838,5.76041 -10.98017,9.10845 -10.40645,7.12238 -26.31104,14.21556 -42.50338,18.9558 -2.39039,0.69977 -3.26182,1.07565 -3.15273,1.35986 0.3832,0.99836 2.85851,12.69072 3.51818,16.61839 1.80311,10.73582 2.32806,17.48098 2.12486,27.30258 -0.25101,12.13274 -1.79942,19.90441 -5.53279,27.76977 -4.33618,9.13534 -11.44911,15.39321 -20.5721,18.09909 -2.36147,0.70041 -3.22874,0.79455 -8.40176,0.91196 -6.5736,0.14921 -9.02839,-0.15331 -14.85916,-1.83119 -14.12073,-4.06342 -29.63965,-13.87246 -46.89302,-29.63966 l -4.90685,-4.48419 -3.79471,3.5143 c -7.96449,7.37596 -14.73589,12.82528 -22.0873,17.77486 -11.75169,7.91223 -22.18742,12.56452 -32.09364,14.30747 -3.1645,0.55678 -12.22635,0.54231 -14.83609,-0.0237 z m 13.42843,-14.06677 c 12.66057,-2.52515 29.12276,-12.67259 45.93628,-28.31552 1.85062,-1.72178 3.36476,-3.24055 3.36476,-3.37505 0,-0.1345 -1.39013,-1.80392 -3.08918,-3.70982 -6.94369,-7.78903 -13.46156,-15.83105 -19.99681,-24.67292 -2.19992,-2.97638 -4.16985,-5.61699 -4.37762,-5.86803 -0.27188,-0.3285 -1.43743,-0.56073 -4.15863,-0.82861 -10.17654,-1.00178 -26.34145,-3.48854 -35.23407,-5.42031 -2.49431,-0.54185 -4.62251,-0.90023 -4.72934,-0.7964 -0.69486,0.67533 -3.91697,17.61206 -4.82182,25.34542 -0.72385,6.18646 -0.73859,19.43196 -0.0269,24.13284 1.75847,11.61457 6.03839,19.22375 12.56446,22.33814 1.86543,0.89022 2.8292,1.15736 6.37638,1.76743 1.20995,0.2081 5.8513,-0.13022 8.19246,-0.59717 z m 129.71821,0.14806 c 2.60504,-0.53857 5.59921,-2.17073 7.81381,-4.25939 4.31399,-4.06864 6.94029,-10.1452 8.38345,-19.39707 0.41492,-2.66002 0.52223,-5.07793 0.51277,-11.55451 -0.0127,-8.68488 -0.3196,-12.36449 -1.76896,-21.20765 -0.66438,-4.05369 -3.22564,-16.24049 -3.51268,-16.71377 -0.0622,-0.10253 -1.92485,0.20005 -4.13925,0.67242 -9.88346,2.10829 -21.91786,4.00568 -33.83626,5.33477 -4.33696,0.48364 -6.17653,0.79908 -6.3381,1.08682 -0.12521,0.22297 -2.19041,3.04388 -4.58934,6.26867 -6.87143,9.237 -11.99503,15.57527 -18.74746,23.19198 -2.20362,2.48568 -4.00659,4.62594 -4.00659,4.75614 0,0.28975 5.29901,5.20997 9.62341,8.9355 15.50802,13.36039 30.86334,21.76527 42.39448,23.20502 2.35115,0.29356 5.91842,0.155 8.21072,-0.31893 z m -68.91485,-43.6209 c 4.44656,-4.7383 17.61017,-20.68289 17.61017,-21.33054 0,-0.0531 -8.55819,-0.0965 -19.01821,-0.0965 -10.46001,0 -18.98529,0.0896 -18.94506,0.19914 0.3407,0.92756 10.44472,13.29697 15.0896,18.47278 1.7182,1.91459 3.25498,3.66327 3.41509,3.88596 0.1601,0.22268 0.31722,0.40488 0.34917,0.40488 0.0319,0 0.7066,-0.69108 1.49924,-1.53573 z m 21.41381,-35.89402 c 2.97708,-0.17475 5.82966,-0.3846 6.33906,-0.46635 0.8278,-0.13285 1.27646,-0.68371 4.22386,-5.18598 8.81192,-13.46054 17.2971,-28.18831 24.0245,-41.69945 2.32704,-4.67355 2.37076,-4.80084 2.00934,-5.85038 -0.48248,-1.40111 -8.02096,-15.888 -11.28958,-21.6955 -4.61803,-8.20502 -15.25128,-25.42144 -17.7298,-28.70652 -0.42196,-0.55928 -0.88225,-0.66817 -3.66425,-0.86687 -12.93001,-0.92348 -36.13653,-1.05409 -49.26424,-0.27728 -8.34102,0.49357 -7.0306,-0.18936 -10.85957,5.65953 -8.76946,13.39567 -17.05282,27.76608 -24.02394,41.67799 -2.34676,4.68333 -2.3801,4.78029 -2.01135,5.85039 0.49007,1.42213 8.02959,15.90795 11.29992,21.71073 3.85535,6.84083 9.10864,15.49029 13.79399,22.71163 3.82424,5.89414 4.28745,6.49175 5.14889,6.64285 0.52063,0.0913 3.84322,0.30732 7.38353,0.47998 3.54031,0.17267 7.29275,0.35912 8.33875,0.41434 3.89953,0.20585 31.06563,-0.093 36.28089,-0.39911 z m -25.74772,-23.31125 c -4.63232,-0.69556 -7.09176,-1.44369 -10.53317,-3.20406 -12.3758,-6.33056 -18.61958,-21.17745 -14.45623,-34.37502 1.89914,-6.02015 5.3599,-11.0106 10.12503,-14.60039 14.81466,-11.16057 35.62262,-6.37362 43.90256,10.09994 7.1767,14.27859 1.35554,31.83895 -12.94587,39.05304 -4.82205,2.4324 -11.58197,3.70374 -16.09232,3.02649 z m -45.35112,20.84168 c 0,-0.0642 -1.33713,-2.26905 -2.9714,-4.8997 -3.88074,-6.24674 -9.74008,-16.38767 -13.0735,-22.62668 -1.4613,-2.73505 -2.76195,-5.14901 -2.89032,-5.36434 -0.38336,-0.64304 -6.10106,14.05157 -9.47581,24.35302 -0.62795,1.91684 -1.1085,3.51778 -1.06789,3.55765 0.33545,0.32932 15.15601,3.0628 22.80559,4.20622 5.85753,0.87555 6.67333,0.97015 6.67333,0.77383 z M 312.02805,205.715 c 8.01806,-1.11355 24.46112,-4.08919 24.87325,-4.50122 0.0501,-0.0501 -0.65396,-2.31256 -1.56455,-5.02776 -3.50282,-10.44477 -8.62312,-23.4781 -8.98607,-22.87334 -0.12724,0.212 -1.42695,2.62324 -2.88826,5.35829 -3.33341,6.23901 -9.19275,16.37994 -13.07349,22.62668 -1.63428,2.63065 -2.97141,4.83552 -2.97141,4.8997 0,0.16339 -0.15851,0.17998 4.61053,-0.48235 z M 169.1848,192.78503 c 3.72212,-11.22728 8.72861,-24.01633 13.39787,-34.22476 l 1.03692,-2.26702 -1.00585,-2.20667 c -4.8102,-10.55281 -9.697,-23.02806 -13.42196,-34.2642 l -1.66589,-5.02505 -1.51876,0.44756 c -30.24358,8.91236 -50.53418,21.56147 -55.89999,34.84791 -0.86118,2.13238 -0.90926,2.46027 -0.90926,6.20045 0,3.74018 0.0481,4.06807 0.90926,6.20044 5.00004,12.38076 23.20446,24.41449 49.69983,32.85327 5.81145,1.85094 7.54349,2.40768 7.65613,2.46093 0.0269,0.0127 0.80163,-2.24758 1.7217,-5.02286 z m 193.27411,1.26699 c 20.66654,-7.07562 36.58753,-16.93269 43.03846,-26.64614 2.99868,-4.51525 3.86961,-7.36054 3.67016,-11.99019 -0.10884,-2.52638 -0.28942,-3.471 -1.01759,-5.32289 -4.70585,-11.96803 -21.8518,-23.57001 -47.48144,-32.12878 -3.78169,-1.26286 -7.55925,-2.49199 -8.39457,-2.7314 l -1.51875,-0.43529 -1.66718,5.02505 c -3.33151,10.04156 -7.93016,21.90296 -12.35349,31.86369 l -2.04595,4.60718 2.03989,4.60718 c 4.55037,10.27719 8.23626,19.71282 11.69905,29.94877 l 2.33861,6.91288 3.26882,-0.97254 c 1.79785,-0.5349 5.58864,-1.76678 8.42398,-2.73752 z M 194.06039,135.30499 c 3.02683,-5.76797 9.32552,-16.72176 13.45616,-23.40107 1.84596,-2.98494 3.30461,-5.47883 3.24145,-5.54198 -0.40605,-0.40595 -28.73141,4.42769 -29.37338,5.01248 -0.0998,0.0909 1.86927,6.07588 3.71075,11.27911 1.36788,3.86503 6.49512,16.96612 6.63986,16.96612 0.0335,0 1.07986,-1.9416 2.32516,-4.31466 z m 134.66114,-0.96429 c 3.12103,-7.75514 8.443,-22.70482 8.17729,-22.97046 -0.58543,-0.5853 -28.95373,-5.43022 -29.36833,-5.01571 -0.0673,0.0672 1.38807,2.56445 3.23403,5.54939 4.13476,6.68597 10.43011,17.63459 13.46449,23.41693 1.24989,2.38179 2.30725,4.29048 2.3497,4.24153 0.0424,-0.0489 1.00672,-2.3987 2.14282,-5.22168 z M 183.49191,96.463183 c 8.99998,-1.882015 24.13714,-4.176577 33.8711,-5.134342 2.04594,-0.201308 3.82864,-0.44255 3.96156,-0.536094 0.13293,-0.09354 1.48483,-1.881317 3.00423,-3.97283 6.8868,-9.479926 12.90878,-16.988815 20.71759,-25.833039 l 4.21302,-4.77165 -2.77006,-2.599191 c -16.28546,-15.280864 -31.5111,-25.040265 -44.5058,-28.527539 -16.47401,-4.420985 -26.39954,3.342127 -29.37164,22.972614 -0.39467,2.606766 -0.50675,5.207602 -0.49792,11.554512 0.0124,8.915392 0.36645,13.031315 1.88713,21.938946 0.80873,4.737258 3.10738,15.531842 3.41254,16.025488 0.0793,0.128222 0.371,0.16114 0.64829,0.07315 0.27729,-0.08799 2.72077,-0.6235 5.42996,-1.190026 z m 158.84547,-5.109217 c 2.89756,-13.123578 3.82004,-20.75581 3.83607,-31.738342 0.0129,-8.860846 -0.31727,-12.180988 -1.75494,-17.645374 -2.59954,-9.880452 -7.72354,-15.880412 -15.0569,-17.630898 -2.22796,-0.531817 -7.82317,-0.450703 -10.67946,0.154819 -12.65787,2.683418 -28.65008,12.331077 -44.14143,26.629297 -1.74853,1.613859 -3.71508,3.405275 -4.37011,3.980925 l -1.19095,1.046636 4.55822,5.164472 c 6.48286,7.345074 10.59589,12.422789 17.10481,21.116627 3.13175,4.183026 5.88185,7.835861 6.11131,8.11741 0.24325,0.298454 0.81686,0.511909 1.37563,0.511909 1.069,0 11.48171,1.207092 16.45629,1.907694 5.79465,0.816098 15.4047,2.48862 20.77374,3.615438 2.89662,0.607924 5.35368,1.028977 5.46014,0.935674 0.10647,-0.0933 0.78937,-2.868132 1.51758,-6.166287 z m -64.25179,-2.100522 c -0.52262,-1.422888 -18.27583,-22.617357 -18.94506,-22.617357 -0.66923,0 -18.42243,21.194469 -18.94506,22.617357 -0.0402,0.109531 8.48505,0.199147 18.94506,0.199147 10.46002,0 18.9853,-0.08962 18.94506,-0.199147 z"
       id="path2" /></g></svg>
