<?xml version="1.0" encoding="UTF-8" standalone="no"?>
<!-- Created with Inkscape (http://www.inkscape.org/) -->

<svg
   version="1.1"
   id="svg1"
   width="32"
   height="32"
   viewBox="0 0 512 313"
   sodipodi:docname="Tailwind_CSS_Logo.svg.png"
   xml:space="preserve"
   inkscape:export-filename="tailwind.svg"
   inkscape:export-xdpi="7.5"
   inkscape:export-ydpi="7.5"
   xmlns:inkscape="http://www.inkscape.org/namespaces/inkscape"
   xmlns:sodipodi="http://sodipodi.sourceforge.net/DTD/sodipodi-0.dtd"
   xmlns="http://www.w3.org/2000/svg"
   xmlns:svg="http://www.w3.org/2000/svg"><defs
     id="defs1" /><sodipodi:namedview
     id="namedview1"
     pagecolor="#ffffff"
     bordercolor="#000000"
     borderopacity="0.25"
     inkscape:showpageshadow="2"
     inkscape:pageopacity="0.0"
     inkscape:pagecheckerboard="0"
     inkscape:deskcolor="#d1d1d1" /><g
     id="g3"
     transform="translate(0,-1)"><path
       style="fill:#5dc8f8"
       d="m 239.75,308.56067 c 0.9625,-0.25152 2.5375,-0.25152 3.5,0 0.9625,0.25153 0.175,0.45733 -1.75,0.45733 -1.925,0 -2.7125,-0.2058 -1.75,-0.45733 z m 30,0 c 0.9625,-0.25152 2.5375,-0.25152 3.5,0 0.9625,0.25153 0.175,0.45733 -1.75,0.45733 -1.925,0 -2.7125,-0.2058 -1.75,-0.45733 z m -38.4375,-0.99378 c 0.72187,-0.28888 1.58437,-0.25335 1.91667,0.0789 0.33229,0.33229 -0.25834,0.56864 -1.3125,0.52522 -1.16495,-0.048 -1.4019,-0.28494 -0.60417,-0.60416 z m 49,0 c 0.72187,-0.28888 1.58437,-0.25335 1.91667,0.0789 0.33229,0.33229 -0.25834,0.56864 -1.3125,0.52522 -1.16495,-0.048 -1.4019,-0.28494 -0.60417,-0.60416 z m -55,-1 c 0.72187,-0.28888 1.58437,-0.25335 1.91667,0.0789 0.33229,0.33229 -0.25834,0.56864 -1.3125,0.52522 -1.16495,-0.048 -1.4019,-0.28494 -0.60417,-0.60416 z m 61,0 c 0.72187,-0.28888 1.58437,-0.25335 1.91667,0.0789 0.33229,0.33229 -0.25834,0.56864 -1.3125,0.52522 -1.16495,-0.048 -1.4019,-0.28494 -0.60417,-0.60416 z M 341,282.25 c 0.99549,-1.1 2.03497,-2 2.30997,-2 0.275,0 -0.31448,0.9 -1.30997,2 -0.99549,1.1 -2.03498,2 -2.30998,2 -0.275,0 0.31449,-0.9 1.30998,-2 z M 164.37244,278.5 c -1.24387,-1.58606 -1.2085,-1.62143 0.37756,-0.37756 1.66575,1.30637 2.19548,2.12756 1.37244,2.12756 -0.20765,0 -0.99515,-0.7875 -1.75,-1.75 z m -6.94813,-6 -2.42431,-2.75 2.75,2.42431 c 2.57029,2.26589 3.20859,3.07569 2.42431,3.07569 -0.17912,0 -1.41662,-1.2375 -2.75,-2.75 z M 353.5,269.75 c 1.29175,-1.375 2.57363,-2.5 2.84863,-2.5 0.275,0 -0.55688,1.125 -1.84863,2.5 -1.29175,1.375 -2.57363,2.5 -2.84863,2.5 -0.275,0 0.55688,-1.125 1.84863,-2.5 z M 145.44617,261.5 142,257.75 l 3.75,3.44617 c 3.49042,3.20761 4.20979,4.05383 3.44617,4.05383 -0.16711,0 -1.85461,-1.6875 -3.75,-3.75 z M 1.9588813,254.18347 c -0.3625339,-0.58659 -0.3890915,-1.33659 -0.059017,-1.66667 0.3300745,-0.33007 0.6001355,-0.0486 0.6001355,0.62555 0,0.67413 0.5195288,0.9046 1.1545085,0.51216 0.7152993,-0.44208 0.8830623,-0.27432 0.440983,0.44098 -0.8841291,1.43055 -1.2963633,1.44753 -2.13661,0.088 z M 13,243.25 c 3.820498,-3.85 7.171361,-7 7.446361,-7 0.275,0 -2.625863,3.15 -6.446361,7 -3.820499,3.85 -7.1713612,7 -7.4463612,7 -0.275,0 2.6258625,-3.15 6.4463612,-7 z m 292.76903,4.30701 c 0.97297,-0.25355 2.32297,-0.23687 3,0.0371 0.67703,0.27393 -0.11903,0.48137 -1.76903,0.46099 -1.65,-0.0204 -2.20394,-0.2445 -1.23097,-0.49804 z m 16,0 c 0.97297,-0.25355 2.32297,-0.23687 3,0.0371 0.67703,0.27393 -0.11903,0.48137 -1.76903,0.46099 -1.65,-0.0204 -2.20394,-0.2445 -1.23097,-0.49804 z M 125.96241,242 121,236.75 l 5.25,4.96241 c 2.8875,2.72932 5.25,5.09182 5.25,5.25 0,0.74619 -0.92643,-0.084 -5.53759,-4.96241 z m 173.35009,4.56689 c 0.72187,-0.28888 1.58437,-0.25335 1.91667,0.0789 0.33229,0.33229 -0.25834,0.56864 -1.3125,0.52522 -1.16495,-0.048 -1.4019,-0.28494 -0.60417,-0.60416 z m 29,0 c 0.72187,-0.28888 1.58437,-0.25335 1.91667,0.0789 0.33229,0.33229 -0.25834,0.56864 -1.3125,0.52522 -1.16495,-0.048 -1.4019,-0.28494 -0.60417,-0.60416 z M 22.5,234.87244 c 0,-0.20765 0.7875,-0.99515 1.75,-1.75 1.586055,-1.24387 1.621426,-1.2085 0.377555,0.37756 C 23.321185,235.16575 22.5,235.69548 22.5,234.87244 Z M 116.37244,233.5 c -1.24387,-1.58606 -1.2085,-1.62143 0.37756,-0.37756 0.9625,0.75485 1.75,1.54235 1.75,1.75 0,0.82304 -0.82119,0.29331 -2.12756,-1.37244 z M 266.90499,231 265,228.75 l 2.25,1.90499 c 1.2375,1.04774 2.25,2.06024 2.25,2.25 0,0.80025 -0.80479,0.20945 -2.59501,-1.90499 z M 359.5,232.87244 c 0,-0.20765 0.7875,-0.99515 1.75,-1.75 1.58606,-1.24387 1.62143,-1.2085 0.37756,0.37756 -1.30637,1.66575 -2.12756,2.19548 -2.12756,1.37244 z M 112.37244,230.5 c -1.24387,-1.58606 -1.2085,-1.62143 0.37756,-0.37756 0.9625,0.75485 1.75,1.54235 1.75,1.75 0,0.82304 -0.82119,0.29331 -2.12756,-1.37244 z M 370.5,222.75 c 3.54322,-3.575 6.66722,-6.5 6.94222,-6.5 0.275,0 -2.399,2.925 -5.94222,6.5 -3.54322,3.575 -6.66722,6.5 -6.94222,6.5 -0.275,0 2.399,-2.925 5.94222,-6.5 z M 248.48706,213.5 234,198.75 l 14.75,14.48706 c 13.70235,13.45809 15.20273,15.01294 14.48706,15.01294 -0.14461,0 -6.78211,-6.6375 -14.75,-14.75 z m -187.718028,4.05701 c 0.972967,-0.25355 2.322967,-0.23687 3,0.0371 C 64.446064,217.86804 63.65,218.07548 62,218.0551 c -1.65,-0.0204 -2.203936,-0.2445 -1.230968,-0.49804 z M 77.25,217.58772 c 0.6875,-0.27741 1.8125,-0.27741 2.5,0 0.6875,0.27741 0.125,0.50438 -1.25,0.50438 -1.375,0 -1.9375,-0.22697 -1.25,-0.50438 z m 303.11331,-5.57671 c 1.42467,-1.81727 3.19352,-1.50026 3.05774,0.54801 -0.0542,0.81746 -0.2415,0.78586 -0.59724,-0.10076 -0.42357,-1.05565 -0.82037,-1.05565 -2.17106,0 -1.47442,1.15236 -1.50565,1.1041 -0.28944,-0.44725 z M 30,196.25 c 0.995486,-1.1 2.034975,-2 2.309975,-2 0.275,0 -0.314489,0.9 -1.309975,2 -0.995487,1.1 -2.034975,2 -2.309975,2 -0.275,0 0.314488,-0.9 1.309975,-2 z M 225.42431,191.5 223,188.75 l 2.75,2.42431 c 2.57029,2.26589 3.20859,3.07569 2.42431,3.07569 -0.17912,0 -1.41662,-1.2375 -2.75,-2.75 z m -6.05187,-5 c -1.24387,-1.58606 -1.2085,-1.62143 0.37756,-0.37756 0.9625,0.75485 1.75,1.54235 1.75,1.75 0,0.82304 -0.82119,0.29331 -2.12756,-1.37244 z M 43,183.25 c 0.995486,-1.1 2.034975,-2 2.309975,-2 0.275,0 -0.314489,0.9 -1.309975,2 -0.995487,1.1 -2.034975,2 -2.309975,2 -0.275,0 0.314488,-0.9 1.309975,-2 z m 116.3125,-24.68311 c 0.72187,-0.28888 1.58437,-0.25335 1.91667,0.0789 0.33229,0.33229 -0.25834,0.56864 -1.3125,0.52522 -1.16495,-0.048 -1.4019,-0.28494 -0.60417,-0.60416 z M 102.25,157.58772 c 0.6875,-0.27741 1.8125,-0.27741 2.5,0 0.6875,0.27741 0.125,0.50438 -1.25,0.50438 -1.375,0 -1.9375,-0.22697 -1.25,-0.50438 z m 50,0 c 0.6875,-0.27741 1.8125,-0.27741 2.5,0 0.6875,0.27741 0.125,0.50438 -1.25,0.50438 -1.375,0 -1.9375,-0.22697 -1.25,-0.50438 z m -41.5,-1.02705 c 0.9625,-0.25152 2.5375,-0.25152 3.5,0 0.9625,0.25153 0.175,0.45733 -1.75,0.45733 -1.925,0 -2.7125,-0.2058 -1.75,-0.45733 z m 32,0 c 0.9625,-0.25152 2.5375,-0.25152 3.5,0 0.9625,0.25153 0.175,0.45733 -1.75,0.45733 -1.925,0 -2.7125,-0.2058 -1.75,-0.45733 z m 237,-1.04571 c 2.6125,-0.206 6.8875,-0.206 9.5,0 2.6125,0.206 0.475,0.37454 -4.75,0.37454 -5.225,0 -7.3625,-0.16854 -4.75,-0.37454 z m -15.98097,-0.95795 c 0.97297,-0.25355 2.32297,-0.23687 3,0.0371 0.67703,0.27393 -0.11903,0.48137 -1.76903,0.46099 -1.65,-0.0204 -2.20394,-0.2445 -1.23097,-0.49804 z m 38.48097,0.0307 c 0.6875,-0.27741 1.8125,-0.27741 2.5,0 0.6875,0.27741 0.125,0.50438 -1.25,0.50438 -1.375,0 -1.9375,-0.22697 -1.25,-0.50438 z m -46,-1 c 0.6875,-0.27741 1.8125,-0.27741 2.5,0 0.6875,0.27741 0.125,0.50438 -1.25,0.50438 -1.375,0 -1.9375,-0.22697 -1.25,-0.50438 z m 54.0625,-0.0208 c 0.72187,-0.28888 1.58437,-0.25335 1.91667,0.0789 0.33229,0.33229 -0.25834,0.56864 -1.3125,0.52522 -1.16495,-0.048 -1.4019,-0.28494 -0.60417,-0.60416 z m -59,-1 c 0.72187,-0.28888 1.58437,-0.25335 1.91667,0.0789 0.33229,0.33229 -0.25834,0.56864 -1.3125,0.52522 -1.16495,-0.048 -1.4019,-0.28494 -0.60417,-0.60416 z m 65,0 c 0.72187,-0.28888 1.58437,-0.25335 1.91667,0.0789 0.33229,0.33229 -0.25834,0.56864 -1.3125,0.52522 -1.16495,-0.048 -1.4019,-0.28494 -0.60417,-0.60416 z m -70,-1 c 0.72187,-0.28888 1.58437,-0.25335 1.91667,0.0789 0.33229,0.33229 -0.25834,0.56864 -1.3125,0.52522 -1.16495,-0.048 -1.4019,-0.28494 -0.60417,-0.60416 z M 466.5,130.87244 c 0,-0.20765 0.7875,-0.99515 1.75,-1.75 1.58606,-1.24387 1.62143,-1.2085 0.37756,0.37756 -1.30637,1.66575 -2.12756,2.19548 -2.12756,1.37244 z M 476,122.25 c 2.14824,-2.2 4.1309,-4 4.4059,-4 0.275,0 -1.25766,1.8 -3.4059,4 -2.14824,2.2 -4.1309,4 -4.4059,4 -0.275,0 1.25766,-1.8 3.4059,-4 z M 288.90499,122 287,119.75 l 2.25,1.90499 c 2.11444,1.79021 2.70524,2.59501 1.90499,2.59501 -0.18976,0 -1.20226,-1.0125 -2.25,-2.25 z M 267.4879,101.5 252,85.749999 267.75,101.2379 c 14.63187,14.38838 16.20244,16.0121 15.4879,16.0121 -0.14416,0 -7.23166,-7.0875 -15.75,-15.75 z M 482.5,114.87244 c 0,-0.20765 0.7875,-0.99515 1.75,-1.75 1.58606,-1.24387 1.62143,-1.2085 0.37756,0.37756 -1.30637,1.66575 -2.12756,2.19548 -2.12756,1.37244 z M 128.5,103.25 c 0,-0.55 0.47656,-1 1.05902,-1 0.58246,0 0.7809,0.45 0.44098,1 -0.33992,0.55 -0.81648,1 -1.05902,1 -0.24254,0 -0.44098,-0.45 -0.44098,-1 z m 4.5,-5.000001 c 0.99549,-1.1 2.03497,-2 2.30997,-2 0.275,0 -0.31448,0.9 -1.30997,2 -0.99549,1.1 -2.03498,2.000001 -2.30998,2.000001 -0.275,0 0.31449,-0.900001 1.30998,-2.000001 z m 308.25,-3.662281 c 0.6875,-0.277412 1.8125,-0.277412 2.5,0 0.6875,0.277413 0.125,0.504386 -1.25,0.504386 -1.375,0 -1.9375,-0.226973 -1.25,-0.504386 z m -9.9375,-1.020833 c 0.72187,-0.288871 1.58437,-0.253344 1.91667,0.07895 0.33229,0.332292 -0.25834,0.568641 -1.3125,0.52522 -1.16495,-0.04798 -1.4019,-0.284941 -0.60417,-0.604167 z m 20.9375,0.02083 c 0.6875,-0.277412 1.8125,-0.277412 2.5,0 0.6875,0.277413 0.125,0.504386 -1.25,0.504386 -1.375,0 -1.9375,-0.226973 -1.25,-0.504386 z m 45.25,-1.337719 c 0.5887,-1.1 1.29537,-2 1.57037,-2 0.275,0 0.0183,0.9 -0.57037,2 -0.5887,1.1 -1.29537,2 -1.57037,2 -0.275,0 -0.0183,-0.9 0.57037,-2 z m -356.5,-3 c 2.14824,-2.2 4.1309,-4 4.4059,-4 0.275,0 -1.25766,1.8 -3.4059,4 -2.14824,2.2 -4.1309,4 -4.4059,4 -0.275,0 1.25766,-1.8 3.4059,-4 z m 7.5,-6.377555 c 0,-0.207656 0.7875,-0.995156 1.75,-1.75 1.58606,-1.243871 1.62143,-1.208501 0.37756,0.377555 -1.30637,1.665748 -2.12756,2.195479 -2.12756,1.372445 z m 97.87244,-1.372445 c -1.24387,-1.586056 -1.2085,-1.621426 0.37756,-0.377555 1.66575,1.30637 2.19548,2.127555 1.37244,2.127555 -0.20765,0 -0.99515,-0.7875 -1.75,-1.75 z m 150,-3 c -1.24387,-1.586056 -1.2085,-1.621426 0.37756,-0.377555 1.66575,1.30637 2.19548,2.127555 1.37244,2.127555 -0.20765,0 -0.99515,-0.7875 -1.75,-1.75 z M 486.5,79.872444 c 0,-0.207656 0.7875,-0.995156 1.75,-1.75 1.58606,-1.243871 1.62143,-1.208501 0.37756,0.377555 -1.30637,1.665748 -2.12756,2.195479 -2.12756,1.372445 z m 6,-5.122445 c 1.29175,-1.375 2.57363,-2.5 2.84863,-2.5 0.275,0 -0.55688,1.125 -1.84863,2.5 -1.29175,1.375 -2.57363,2.5 -2.84863,2.5 -0.275,0 0.55688,-1.125 1.84863,-2.5 z m -102.07569,-1.25 -2.42431,-2.75 2.75,2.424314 c 1.5125,1.333373 2.75,2.570873 2.75,2.75 0,0.784274 -0.8098,0.145975 -3.07569,-2.424314 z M 229.5,70.749999 c -1.375,-0.786021 -2.02351,-1.445075 -1.44113,-1.464565 0.58238,-0.01949 1.93238,0.625254 3,1.432762 2.46898,1.86744 1.68038,1.883528 -1.55887,0.0318 z m -19.1875,-6.183114 c 0.72187,-0.288871 1.58437,-0.253344 1.91667,0.07895 0.33229,0.332292 -0.25834,0.568641 -1.3125,0.52522 -1.16495,-0.04798 -1.4019,-0.284941 -0.60417,-0.604167 z M 194.25,63.517794 c 2.3375,-0.210535 6.1625,-0.210535 8.5,0 2.3375,0.210535 0.425,0.382791 -4.25,0.382791 -4.675,0 -6.5875,-0.172256 -4.25,-0.382791 z M 505.5,61.749999 c 1.29175,-1.375 2.57363,-2.5 2.84863,-2.5 0.275,0 -0.55688,1.125 -1.84863,2.5 -1.29175,1.375 -2.57363,2.5 -2.84863,2.5 -0.275,0 0.55688,-1.125 1.84863,-2.5 z m 4.66643,-3.926887 c -0.30115,-0.784788 0.2132,-2.000585 1.14301,-2.701772 1.39413,-1.051342 1.48508,-1.042795 0.5187,0.04874 -0.64452,0.727995 -0.93387,1.943792 -0.64301,2.701772 0.29087,0.75798 0.30385,1.378145 0.0288,1.378145 -0.275,0 -0.7464,-0.642099 -1.04755,-1.426887 z M 357.44617,41.499999 354,37.749999 l 3.75,3.446167 c 2.0625,1.895392 3.75,3.582892 3.75,3.75 0,0.763621 -0.84622,0.04425 -4.05383,-3.446167 z M 164,36.249999 c 3.8205,-3.85 7.17136,-7 7.44636,-7 0.275,0 -2.62586,3.15 -6.44636,7 -3.8205,3.85 -7.17136,7 -7.44636,7 -0.275,0 2.62586,-3.15 6.44636,-7 z m 184.90499,-2.25 -1.90499,-2.25 2.25,1.904988 c 1.2375,1.047743 2.25,2.060243 2.25,2.25 0,0.800253 -0.80479,0.209457 -2.59501,-1.904988 z m -4.53255,-3.5 c -1.24387,-1.586056 -1.2085,-1.621426 0.37756,-0.377555 1.66575,1.30637 2.19548,2.127555 1.37244,2.127555 -0.20765,0 -0.99515,-0.7875 -1.75,-1.75 z M 173.5,27.872444 c 0,-0.207656 0.7875,-0.995156 1.75,-1.75 1.58606,-1.243871 1.62143,-1.208501 0.37756,0.377555 C 174.32119,28.165747 173.5,28.695478 173.5,27.872444 Z M 221.3125,5.566885 c 0.72187,-0.2888706 1.58437,-0.2533443 1.91667,0.078947 0.33229,0.3322916 -0.25834,0.5686403 -1.3125,0.5252193 -1.16495,-0.047984 -1.4019,-0.2849403 -0.60417,-0.6041663 z m 69,0 c 0.72187,-0.2888706 1.58437,-0.2533443 1.91667,0.078947 0.33229,0.3322916 -0.25834,0.5686403 -1.3125,0.5252193 -1.16495,-0.047984 -1.4019,-0.2849403 -0.60417,-0.6041663 z m -64,-1 c 0.72187,-0.2888706 1.58437,-0.2533443 1.91667,0.078947 0.33229,0.3322916 -0.25834,0.5686403 -1.3125,0.5252193 -1.16495,-0.047984 -1.4019,-0.2849403 -0.60417,-0.6041663 z m 59,0 c 0.72187,-0.2888706 1.58437,-0.2533443 1.91667,0.078947 0.33229,0.3322916 -0.25834,0.5686403 -1.3125,0.5252193 -1.16495,-0.047984 -1.4019,-0.2849403 -0.60417,-0.6041663 z M 233.25,3.5877183 c 0.6875,-0.2774122 1.8125,-0.2774122 2.5,0 0.6875,0.2774123 0.125,0.504386 -1.25,0.504386 -1.375,0 -1.9375,-0.2269737 -1.25,-0.504386 z m 44,0 c 0.6875,-0.2774122 1.8125,-0.2774122 2.5,0 0.6875,0.2774123 0.125,0.504386 -1.25,0.504386 -1.375,0 -1.9375,-0.2269737 -1.25,-0.504386 z M 243.76375,2.5324178 c 1.52006,-0.2298544 3.77006,-0.2237118 5,0.01365 1.22994,0.2373619 -0.0137,0.4254245 -2.76375,0.417917 -2.75,-0.00751 -3.75631,-0.2017127 -2.23625,-0.431567 z m 21,0 c 1.52006,-0.2298544 3.77006,-0.2237118 5,0.01365 1.22994,0.2373619 -0.0138,0.4254245 -2.76375,0.417917 -2.75,-0.00751 -3.75631,-0.2017127 -2.23625,-0.431567 z"
       id="path4" /><path
       style="fill:#37bcf7"
       d="M 237.85195,308.29787 C 209.40713,305.01322 186.43989,295.58636 165,278.39595 161.15,275.30904 148.9984,264.00087 137.99645,253.26669 117.60404,233.37059 111.32851,228.3802 100.25467,223.25386 85.724768,216.52762 63.944944,215.41811 48,220.59188 33.812593,225.19538 17.919999,236.6232 6.3189092,250.56332 0.64779491,257.37786 0.64361743,256.97229 6.2186995,240.83441 16.919615,209.85906 35.537141,185.96774 59.520077,172.43433 c 33.43598,-18.86769 88.299093,-21.49344 125.784963,-6.02007 20.27316,8.36833 32.84981,17.63958 60.2215,44.39405 27.00506,26.3961 36.07718,32.45939 53.87882,36.00953 28.96665,5.77675 56.52169,-5.18021 78.66344,-31.27966 6.24619,-7.36266 6.29947,-7.0202 1.19971,7.71182 -16.52338,47.73224 -47.26136,75.20725 -93.39495,83.48067 -10.37748,1.86106 -37.74285,2.75414 -48.02161,1.5672 z M 365.5,154.59854 C 342.78615,151.1543 330.94876,147.66023 316.62799,140.17289 301.56681,132.29845 292.46114,125.05938 269.38998,102.61838 240.13464,74.162115 231.33153,68.359115 211.83536,64.67846 201.8007,62.78403 189.78365,63.174577 180,65.713088 c -14.6354,3.797371 -32.66638,15.828326 -44.14219,29.453346 -3.21224,3.813845 -5.96899,6.805716 -6.1261,6.648606 -0.15712,-0.15711 1.28944,-5.094037 3.21458,-10.970942 C 146.56305,49.275817 172.19089,21.640561 208,9.911492 c 32.42977,-10.62218651 75.60098,-9.32951606 105.96516,3.172902 20.15467,8.298666 32.67912,17.622383 61.79171,46.000314 19.38996,18.900654 27.56505,25.433764 37.06815,29.622961 13.5493,5.972861 33.94905,7.508874 48.114,3.622777 15.41567,-4.229228 27.34605,-11.872903 41.27903,-26.447054 l 9.15818,-9.579621 -1.55046,5.223114 c -7.49357,25.244017 -18.30593,44.679295 -33.29844,59.854155 -22.91653,23.19526 -52.99915,34.08854 -93.15567,33.73278 -8.45441,-0.0749 -16.49666,-0.30678 -17.87166,-0.51528 z"
       id="path3" /></g></svg>
